ISO-10303-21;
HEADER;
FILE_DESCRIPTION(('FreeCAD Model'),'2;1');
FILE_NAME('Open CASCADE Shape Model','2026-07-26T08:57:18',(''),(''),
  'Open CASCADE STEP processor 7.8','FreeCAD','Unknown');
FILE_SCHEMA(('AUTOMOTIVE_DESIGN { 1 0 10303 214 1 1 1 1 }'));
ENDSEC;
DATA;
#1 = APPLICATION_PROTOCOL_DEFINITION('international standard',
  'automotive_design',2000,#2);
#2 = APPLICATION_CONTEXT(
  'core data for automotive mechanical design processes');
#3 = SHAPE_DEFINITION_REPRESENTATION(#4,#10);
#4 = PRODUCT_DEFINITION_SHAPE('','',#5);
#5 = PRODUCT_DEFINITION('design','',#6,#9);
#6 = PRODUCT_DEFINITION_FORMATION('','',#7);
#7 = PRODUCT('Unnamed','Unnamed','',(#8));
#8 = PRODUCT_CONTEXT('',#2,'mechanical');
#9 = PRODUCT_DEFINITION_CONTEXT('part definition',#2,'design');
#10 = SHAPE_REPRESENTATION('',(#11,#15,#19),#23);
#11 = AXIS2_PLACEMENT_3D('',#12,#13,#14);
#12 = CARTESIAN_POINT('',(0.,0.,0.));
#13 = DIRECTION('',(0.,0.,1.));
#14 = DIRECTION('',(1.,0.,-0.));
#15 = AXIS2_PLACEMENT_3D('',#16,#17,#18);
#16 = CARTESIAN_POINT('',(0.,0.,0.));
#17 = DIRECTION('',(0.,0.,1.));
#18 = DIRECTION('',(1.,0.,0.));
#19 = AXIS2_PLACEMENT_3D('',#20,#21,#22);
#20 = CARTESIAN_POINT('',(0.,0.,0.));
#21 = DIRECTION('',(0.,0.,1.));
#22 = DIRECTION('',(1.,0.,0.));
#23 = ( GEOMETRIC_REPRESENTATION_CONTEXT(3) 
GLOBAL_UNCERTAINTY_ASSIGNED_CONTEXT((#27)) GLOBAL_UNIT_ASSIGNED_CONTEXT(
(#24,#25,#26)) REPRESENTATION_CONTEXT('Context #1',
  '3D Context with UNIT and UNCERTAINTY') );
#24 = ( LENGTH_UNIT() NAMED_UNIT(*) SI_UNIT(.MILLI.,.METRE.) );
#25 = ( NAMED_UNIT(*) PLANE_ANGLE_UNIT() SI_UNIT($,.RADIAN.) );
#26 = ( NAMED_UNIT(*) SI_UNIT($,.STERADIAN.) SOLID_ANGLE_UNIT() );
#27 = UNCERTAINTY_MEASURE_WITH_UNIT(LENGTH_MEASURE(1.E-07),#24,
  'distance_accuracy_value','confusion accuracy');
#28 = PRODUCT_RELATED_PRODUCT_CATEGORY('part',$,(#7));
#29 = SHAPE_DEFINITION_REPRESENTATION(#30,#36);
#30 = PRODUCT_DEFINITION_SHAPE('','',#31);
#31 = PRODUCT_DEFINITION('design','',#32,#35);
#32 = PRODUCT_DEFINITION_FORMATION('','',#33);
#33 = PRODUCT('Pocket','Pocket','',(#34));
#34 = PRODUCT_CONTEXT('',#2,'mechanical');
#35 = PRODUCT_DEFINITION_CONTEXT('part definition',#2,'design');
#36 = ADVANCED_BREP_SHAPE_REPRESENTATION('',(#11,#37),#415);
#37 = MANIFOLD_SOLID_BREP('',#38);
#38 = CLOSED_SHELL('',(#39,#79,#142,#174,#206,#223,#254,#286,#318,#335,
    #352,#369,#386,#403));
#39 = ADVANCED_FACE('',(#40),#74,.F.);
#40 = FACE_BOUND('',#41,.F.);
#41 = EDGE_LOOP('',(#42,#52,#60,#68));
#42 = ORIENTED_EDGE('',*,*,#43,.T.);
#43 = EDGE_CURVE('',#44,#46,#48,.T.);
#44 = VERTEX_POINT('',#45);
#45 = CARTESIAN_POINT('',(-0.85,-1.,0.75));
#46 = VERTEX_POINT('',#47);
#47 = CARTESIAN_POINT('',(0.85,-1.,0.75));
#48 = LINE('',#49,#50);
#49 = CARTESIAN_POINT('',(-1.,-1.,0.75));
#50 = VECTOR('',#51,1.);
#51 = DIRECTION('',(1.,0.,0.));
#52 = ORIENTED_EDGE('',*,*,#53,.T.);
#53 = EDGE_CURVE('',#46,#54,#56,.T.);
#54 = VERTEX_POINT('',#55);
#55 = CARTESIAN_POINT('',(0.85,-1.,-0.75));
#56 = LINE('',#57,#58);
#57 = CARTESIAN_POINT('',(0.85,-1.,0.75));
#58 = VECTOR('',#59,1.);
#59 = DIRECTION('',(0.,0.,-1.));
#60 = ORIENTED_EDGE('',*,*,#61,.F.);
#61 = EDGE_CURVE('',#62,#54,#64,.T.);
#62 = VERTEX_POINT('',#63);
#63 = CARTESIAN_POINT('',(-0.85,-1.,-0.75));
#64 = LINE('',#65,#66);
#65 = CARTESIAN_POINT('',(-1.,-1.,-0.75));
#66 = VECTOR('',#67,1.);
#67 = DIRECTION('',(1.,0.,0.));
#68 = ORIENTED_EDGE('',*,*,#69,.F.);
#69 = EDGE_CURVE('',#44,#62,#70,.T.);
#70 = LINE('',#71,#72);
#71 = CARTESIAN_POINT('',(-0.85,-1.,0.75));
#72 = VECTOR('',#73,1.);
#73 = DIRECTION('',(0.,0.,-1.));
#74 = PLANE('',#75);
#75 = AXIS2_PLACEMENT_3D('',#76,#77,#78);
#76 = CARTESIAN_POINT('',(-1.,-1.,0.75));
#77 = DIRECTION('',(0.,1.,0.));
#78 = DIRECTION('',(0.,0.,-1.));
#79 = ADVANCED_FACE('',(#80),#137,.F.);
#80 = FACE_BOUND('',#81,.F.);
#81 = EDGE_LOOP('',(#82,#92,#100,#108,#114,#115,#123,#131));
#82 = ORIENTED_EDGE('',*,*,#83,.T.);
#83 = EDGE_CURVE('',#84,#86,#88,.T.);
#84 = VERTEX_POINT('',#85);
#85 = CARTESIAN_POINT('',(-0.85,1.,0.75));
#86 = VERTEX_POINT('',#87);
#87 = CARTESIAN_POINT('',(0.85,1.,0.75));
#88 = LINE('',#89,#90);
#89 = CARTESIAN_POINT('',(-1.,1.,0.75));
#90 = VECTOR('',#91,1.);
#91 = DIRECTION('',(1.,0.,0.));
#92 = ORIENTED_EDGE('',*,*,#93,.T.);
#93 = EDGE_CURVE('',#86,#94,#96,.T.);
#94 = VERTEX_POINT('',#95);
#95 = CARTESIAN_POINT('',(1.,0.85,0.75));
#96 = LINE('',#97,#98);
#97 = CARTESIAN_POINT('',(0.425,1.425,0.75));
#98 = VECTOR('',#99,1.);
#99 = DIRECTION('',(0.707106781187,-0.707106781187,0.));
#100 = ORIENTED_EDGE('',*,*,#101,.T.);
#101 = EDGE_CURVE('',#94,#102,#104,.T.);
#102 = VERTEX_POINT('',#103);
#103 = CARTESIAN_POINT('',(1.,-0.85,0.75));
#104 = LINE('',#105,#106);
#105 = CARTESIAN_POINT('',(1.,1.,0.75));
#106 = VECTOR('',#107,1.);
#107 = DIRECTION('',(0.,-1.,0.));
#108 = ORIENTED_EDGE('',*,*,#109,.F.);
#109 = EDGE_CURVE('',#46,#102,#110,.T.);
#110 = LINE('',#111,#112);
#111 = CARTESIAN_POINT('',(0.925,-0.925,0.75));
#112 = VECTOR('',#113,1.);
#113 = DIRECTION('',(0.707106781187,0.707106781187,0.));
#114 = ORIENTED_EDGE('',*,*,#43,.F.);
#115 = ORIENTED_EDGE('',*,*,#116,.T.);
#116 = EDGE_CURVE('',#44,#117,#119,.T.);
#117 = VERTEX_POINT('',#118);
#118 = CARTESIAN_POINT('',(-1.,-0.85,0.75));
#119 = LINE('',#120,#121);
#120 = CARTESIAN_POINT('',(-1.425,-0.425,0.75));
#121 = VECTOR('',#122,1.);
#122 = DIRECTION('',(-0.707106781187,0.707106781187,0.));
#123 = ORIENTED_EDGE('',*,*,#124,.F.);
#124 = EDGE_CURVE('',#125,#117,#127,.T.);
#125 = VERTEX_POINT('',#126);
#126 = CARTESIAN_POINT('',(-1.,0.85,0.75));
#127 = LINE('',#128,#129);
#128 = CARTESIAN_POINT('',(-1.,1.,0.75));
#129 = VECTOR('',#130,1.);
#130 = DIRECTION('',(0.,-1.,0.));
#131 = ORIENTED_EDGE('',*,*,#132,.F.);
#132 = EDGE_CURVE('',#84,#125,#133,.T.);
#133 = LINE('',#134,#135);
#134 = CARTESIAN_POINT('',(-0.925,0.925,0.75));
#135 = VECTOR('',#136,1.);
#136 = DIRECTION('',(-0.707106781187,-0.707106781187,-0.));
#137 = PLANE('',#138);
#138 = AXIS2_PLACEMENT_3D('',#139,#140,#141);
#139 = CARTESIAN_POINT('',(-1.,1.,0.75));
#140 = DIRECTION('',(0.,0.,-1.));
#141 = DIRECTION('',(0.,-1.,0.));
#142 = ADVANCED_FACE('',(#143),#169,.T.);
#143 = FACE_BOUND('',#144,.F.);
#144 = EDGE_LOOP('',(#145,#146,#147,#155,#163));
#145 = ORIENTED_EDGE('',*,*,#116,.F.);
#146 = ORIENTED_EDGE('',*,*,#69,.T.);
#147 = ORIENTED_EDGE('',*,*,#148,.T.);
#148 = EDGE_CURVE('',#62,#149,#151,.T.);
#149 = VERTEX_POINT('',#150);
#150 = CARTESIAN_POINT('',(-1.,-0.85,-0.75));
#151 = LINE('',#152,#153);
#152 = CARTESIAN_POINT('',(-0.925,-0.925,-0.75));
#153 = VECTOR('',#154,1.);
#154 = DIRECTION('',(-0.707106781187,0.707106781187,0.));
#155 = ORIENTED_EDGE('',*,*,#156,.F.);
#156 = EDGE_CURVE('',#157,#149,#159,.T.);
#157 = VERTEX_POINT('',#158);
#158 = CARTESIAN_POINT('',(-1.,-0.85,-0.597652));
#159 = LINE('',#160,#161);
#160 = CARTESIAN_POINT('',(-1.,-0.85,0.75));
#161 = VECTOR('',#162,1.);
#162 = DIRECTION('',(0.,0.,-1.));
#163 = ORIENTED_EDGE('',*,*,#164,.F.);
#164 = EDGE_CURVE('',#117,#157,#165,.T.);
#165 = LINE('',#166,#167);
#166 = CARTESIAN_POINT('',(-1.,-0.85,0.75));
#167 = VECTOR('',#168,1.);
#168 = DIRECTION('',(0.,0.,-1.));
#169 = PLANE('',#170);
#170 = AXIS2_PLACEMENT_3D('',#171,#172,#173);
#171 = CARTESIAN_POINT('',(-0.925,-0.925,0.75));
#172 = DIRECTION('',(-0.707106781187,-0.707106781187,0.));
#173 = DIRECTION('',(0.,0.,1.));
#174 = ADVANCED_FACE('',(#175),#201,.F.);
#175 = FACE_BOUND('',#176,.T.);
#176 = EDGE_LOOP('',(#177,#178,#179,#187,#195));
#177 = ORIENTED_EDGE('',*,*,#109,.F.);
#178 = ORIENTED_EDGE('',*,*,#53,.T.);
#179 = ORIENTED_EDGE('',*,*,#180,.T.);
#180 = EDGE_CURVE('',#54,#181,#183,.T.);
#181 = VERTEX_POINT('',#182);
#182 = CARTESIAN_POINT('',(1.,-0.85,-0.75));
#183 = LINE('',#184,#185);
#184 = CARTESIAN_POINT('',(0.425,-1.425,-0.75));
#185 = VECTOR('',#186,1.);
#186 = DIRECTION('',(0.707106781187,0.707106781187,0.));
#187 = ORIENTED_EDGE('',*,*,#188,.F.);
#188 = EDGE_CURVE('',#189,#181,#191,.T.);
#189 = VERTEX_POINT('',#190);
#190 = CARTESIAN_POINT('',(1.,-0.85,-0.597652));
#191 = LINE('',#192,#193);
#192 = CARTESIAN_POINT('',(1.,-0.85,0.75));
#193 = VECTOR('',#194,1.);
#194 = DIRECTION('',(0.,0.,-1.));
#195 = ORIENTED_EDGE('',*,*,#196,.F.);
#196 = EDGE_CURVE('',#102,#189,#197,.T.);
#197 = LINE('',#198,#199);
#198 = CARTESIAN_POINT('',(1.,-0.85,0.75));
#199 = VECTOR('',#200,1.);
#200 = DIRECTION('',(0.,0.,-1.));
#201 = PLANE('',#202);
#202 = AXIS2_PLACEMENT_3D('',#203,#204,#205);
#203 = CARTESIAN_POINT('',(0.925,-0.925,0.75));
#204 = DIRECTION('',(-0.707106781187,0.707106781187,0.));
#205 = DIRECTION('',(0.,0.,1.));
#206 = ADVANCED_FACE('',(#207),#218,.F.);
#207 = FACE_BOUND('',#208,.F.);
#208 = EDGE_LOOP('',(#209,#210,#211,#212));
#209 = ORIENTED_EDGE('',*,*,#148,.F.);
#210 = ORIENTED_EDGE('',*,*,#61,.T.);
#211 = ORIENTED_EDGE('',*,*,#180,.T.);
#212 = ORIENTED_EDGE('',*,*,#213,.T.);
#213 = EDGE_CURVE('',#181,#149,#214,.T.);
#214 = LINE('',#215,#216);
#215 = CARTESIAN_POINT('',(1.,-0.85,-0.75));
#216 = VECTOR('',#217,1.);
#217 = DIRECTION('',(-1.,-0.,-0.));
#218 = PLANE('',#219);
#219 = AXIS2_PLACEMENT_3D('',#220,#221,#222);
#220 = CARTESIAN_POINT('',(-1.,-1.,-0.75));
#221 = DIRECTION('',(0.,0.,1.));
#222 = DIRECTION('',(0.,1.,0.));
#223 = ADVANCED_FACE('',(#224),#249,.F.);
#224 = FACE_BOUND('',#225,.F.);
#225 = EDGE_LOOP('',(#226,#236,#242,#243));
#226 = ORIENTED_EDGE('',*,*,#227,.T.);
#227 = EDGE_CURVE('',#228,#230,#232,.T.);
#228 = VERTEX_POINT('',#229);
#229 = CARTESIAN_POINT('',(-0.85,1.,-0.75));
#230 = VERTEX_POINT('',#231);
#231 = CARTESIAN_POINT('',(0.85,1.,-0.75));
#232 = LINE('',#233,#234);
#233 = CARTESIAN_POINT('',(-1.,1.,-0.75));
#234 = VECTOR('',#235,1.);
#235 = DIRECTION('',(1.,0.,0.));
#236 = ORIENTED_EDGE('',*,*,#237,.T.);
#237 = EDGE_CURVE('',#230,#86,#238,.T.);
#238 = LINE('',#239,#240);
#239 = CARTESIAN_POINT('',(0.85,1.,-0.75));
#240 = VECTOR('',#241,1.);
#241 = DIRECTION('',(0.,0.,1.));
#242 = ORIENTED_EDGE('',*,*,#83,.F.);
#243 = ORIENTED_EDGE('',*,*,#244,.F.);
#244 = EDGE_CURVE('',#228,#84,#245,.T.);
#245 = LINE('',#246,#247);
#246 = CARTESIAN_POINT('',(-0.85,1.,-0.75));
#247 = VECTOR('',#248,1.);
#248 = DIRECTION('',(0.,0.,1.));
#249 = PLANE('',#250);
#250 = AXIS2_PLACEMENT_3D('',#251,#252,#253);
#251 = CARTESIAN_POINT('',(-1.,1.,-0.75));
#252 = DIRECTION('',(0.,-1.,0.));
#253 = DIRECTION('',(0.,0.,1.));
#254 = ADVANCED_FACE('',(#255),#281,.T.);
#255 = FACE_BOUND('',#256,.F.);
#256 = EDGE_LOOP('',(#257,#265,#266,#267,#275));
#257 = ORIENTED_EDGE('',*,*,#258,.F.);
#258 = EDGE_CURVE('',#228,#259,#261,.T.);
#259 = VERTEX_POINT('',#260);
#260 = CARTESIAN_POINT('',(-1.,0.85,-0.75));
#261 = LINE('',#262,#263);
#262 = CARTESIAN_POINT('',(-1.425,0.425,-0.75));
#263 = VECTOR('',#264,1.);
#264 = DIRECTION('',(-0.707106781187,-0.707106781187,0.));
#265 = ORIENTED_EDGE('',*,*,#244,.T.);
#266 = ORIENTED_EDGE('',*,*,#132,.T.);
#267 = ORIENTED_EDGE('',*,*,#268,.F.);
#268 = EDGE_CURVE('',#269,#125,#271,.T.);
#269 = VERTEX_POINT('',#270);
#270 = CARTESIAN_POINT('',(-1.,0.85,-0.597652));
#271 = LINE('',#272,#273);
#272 = CARTESIAN_POINT('',(-1.,0.85,-0.75));
#273 = VECTOR('',#274,1.);
#274 = DIRECTION('',(0.,0.,1.));
#275 = ORIENTED_EDGE('',*,*,#276,.F.);
#276 = EDGE_CURVE('',#259,#269,#277,.T.);
#277 = LINE('',#278,#279);
#278 = CARTESIAN_POINT('',(-1.,0.85,-0.75));
#279 = VECTOR('',#280,1.);
#280 = DIRECTION('',(0.,0.,1.));
#281 = PLANE('',#282);
#282 = AXIS2_PLACEMENT_3D('',#283,#284,#285);
#283 = CARTESIAN_POINT('',(-0.925,0.925,-0.75));
#284 = DIRECTION('',(-0.707106781187,0.707106781187,0.));
#285 = DIRECTION('',(-0.,-0.,-1.));
#286 = ADVANCED_FACE('',(#287),#313,.F.);
#287 = FACE_BOUND('',#288,.T.);
#288 = EDGE_LOOP('',(#289,#297,#298,#299,#307));
#289 = ORIENTED_EDGE('',*,*,#290,.F.);
#290 = EDGE_CURVE('',#230,#291,#293,.T.);
#291 = VERTEX_POINT('',#292);
#292 = CARTESIAN_POINT('',(1.,0.85,-0.75));
#293 = LINE('',#294,#295);
#294 = CARTESIAN_POINT('',(0.925,0.925,-0.75));
#295 = VECTOR('',#296,1.);
#296 = DIRECTION('',(0.707106781187,-0.707106781187,0.));
#297 = ORIENTED_EDGE('',*,*,#237,.T.);
#298 = ORIENTED_EDGE('',*,*,#93,.T.);
#299 = ORIENTED_EDGE('',*,*,#300,.F.);
#300 = EDGE_CURVE('',#301,#94,#303,.T.);
#301 = VERTEX_POINT('',#302);
#302 = CARTESIAN_POINT('',(1.,0.85,-0.597652));
#303 = LINE('',#304,#305);
#304 = CARTESIAN_POINT('',(1.,0.85,-0.75));
#305 = VECTOR('',#306,1.);
#306 = DIRECTION('',(0.,0.,1.));
#307 = ORIENTED_EDGE('',*,*,#308,.F.);
#308 = EDGE_CURVE('',#291,#301,#309,.T.);
#309 = LINE('',#310,#311);
#310 = CARTESIAN_POINT('',(1.,0.85,-0.75));
#311 = VECTOR('',#312,1.);
#312 = DIRECTION('',(0.,0.,1.));
#313 = PLANE('',#314);
#314 = AXIS2_PLACEMENT_3D('',#315,#316,#317);
#315 = CARTESIAN_POINT('',(0.925,0.925,-0.75));
#316 = DIRECTION('',(-0.707106781187,-0.707106781187,0.));
#317 = DIRECTION('',(-0.,-0.,-1.));
#318 = ADVANCED_FACE('',(#319),#330,.F.);
#319 = FACE_BOUND('',#320,.F.);
#320 = EDGE_LOOP('',(#321,#322,#328,#329));
#321 = ORIENTED_EDGE('',*,*,#164,.T.);
#322 = ORIENTED_EDGE('',*,*,#323,.F.);
#323 = EDGE_CURVE('',#269,#157,#324,.T.);
#324 = LINE('',#325,#326);
#325 = CARTESIAN_POINT('',(-1.,0.85,-0.597652));
#326 = VECTOR('',#327,1.);
#327 = DIRECTION('',(0.,-1.,0.));
#328 = ORIENTED_EDGE('',*,*,#268,.T.);
#329 = ORIENTED_EDGE('',*,*,#124,.T.);
#330 = PLANE('',#331);
#331 = AXIS2_PLACEMENT_3D('',#332,#333,#334);
#332 = CARTESIAN_POINT('',(-1.,0.,0.));
#333 = DIRECTION('',(1.,0.,0.));
#334 = DIRECTION('',(0.,0.,1.));
#335 = ADVANCED_FACE('',(#336),#347,.T.);
#336 = FACE_BOUND('',#337,.T.);
#337 = EDGE_LOOP('',(#338,#339,#345,#346));
#338 = ORIENTED_EDGE('',*,*,#196,.T.);
#339 = ORIENTED_EDGE('',*,*,#340,.F.);
#340 = EDGE_CURVE('',#301,#189,#341,.T.);
#341 = LINE('',#342,#343);
#342 = CARTESIAN_POINT('',(1.,0.85,-0.597652));
#343 = VECTOR('',#344,1.);
#344 = DIRECTION('',(0.,-1.,0.));
#345 = ORIENTED_EDGE('',*,*,#300,.T.);
#346 = ORIENTED_EDGE('',*,*,#101,.T.);
#347 = PLANE('',#348);
#348 = AXIS2_PLACEMENT_3D('',#349,#350,#351);
#349 = CARTESIAN_POINT('',(1.,0.,0.));
#350 = DIRECTION('',(1.,0.,0.));
#351 = DIRECTION('',(0.,0.,1.));
#352 = ADVANCED_FACE('',(#353),#364,.F.);
#353 = FACE_BOUND('',#354,.F.);
#354 = EDGE_LOOP('',(#355,#361,#362,#363));
#355 = ORIENTED_EDGE('',*,*,#356,.T.);
#356 = EDGE_CURVE('',#189,#157,#357,.T.);
#357 = LINE('',#358,#359);
#358 = CARTESIAN_POINT('',(1.,-0.85,-0.597652));
#359 = VECTOR('',#360,1.);
#360 = DIRECTION('',(-1.,-0.,-0.));
#361 = ORIENTED_EDGE('',*,*,#156,.T.);
#362 = ORIENTED_EDGE('',*,*,#213,.F.);
#363 = ORIENTED_EDGE('',*,*,#188,.F.);
#364 = PLANE('',#365);
#365 = AXIS2_PLACEMENT_3D('',#366,#367,#368);
#366 = CARTESIAN_POINT('',(1.,-0.85,-0.597652));
#367 = DIRECTION('',(0.,-1.,0.));
#368 = DIRECTION('',(0.,0.,-1.));
#369 = ADVANCED_FACE('',(#370),#381,.F.);
#370 = FACE_BOUND('',#371,.F.);
#371 = EDGE_LOOP('',(#372,#373,#379,#380));
#372 = ORIENTED_EDGE('',*,*,#258,.T.);
#373 = ORIENTED_EDGE('',*,*,#374,.F.);
#374 = EDGE_CURVE('',#291,#259,#375,.T.);
#375 = LINE('',#376,#377);
#376 = CARTESIAN_POINT('',(1.,0.85,-0.75));
#377 = VECTOR('',#378,1.);
#378 = DIRECTION('',(-1.,-0.,-0.));
#379 = ORIENTED_EDGE('',*,*,#290,.F.);
#380 = ORIENTED_EDGE('',*,*,#227,.F.);
#381 = PLANE('',#382);
#382 = AXIS2_PLACEMENT_3D('',#383,#384,#385);
#383 = CARTESIAN_POINT('',(-1.,-1.,-0.75));
#384 = DIRECTION('',(0.,0.,1.));
#385 = DIRECTION('',(0.,1.,0.));
#386 = ADVANCED_FACE('',(#387),#398,.F.);
#387 = FACE_BOUND('',#388,.F.);
#388 = EDGE_LOOP('',(#389,#390,#391,#397));
#389 = ORIENTED_EDGE('',*,*,#374,.T.);
#390 = ORIENTED_EDGE('',*,*,#276,.T.);
#391 = ORIENTED_EDGE('',*,*,#392,.F.);
#392 = EDGE_CURVE('',#301,#269,#393,.T.);
#393 = LINE('',#394,#395);
#394 = CARTESIAN_POINT('',(1.,0.85,-0.597652));
#395 = VECTOR('',#396,1.);
#396 = DIRECTION('',(-1.,-0.,-0.));
#397 = ORIENTED_EDGE('',*,*,#308,.F.);
#398 = PLANE('',#399);
#399 = AXIS2_PLACEMENT_3D('',#400,#401,#402);
#400 = CARTESIAN_POINT('',(1.,0.85,-0.75));
#401 = DIRECTION('',(0.,1.,0.));
#402 = DIRECTION('',(0.,-0.,1.));
#403 = ADVANCED_FACE('',(#404),#410,.F.);
#404 = FACE_BOUND('',#405,.F.);
#405 = EDGE_LOOP('',(#406,#407,#408,#409));
#406 = ORIENTED_EDGE('',*,*,#392,.T.);
#407 = ORIENTED_EDGE('',*,*,#323,.T.);
#408 = ORIENTED_EDGE('',*,*,#356,.F.);
#409 = ORIENTED_EDGE('',*,*,#340,.F.);
#410 = PLANE('',#411);
#411 = AXIS2_PLACEMENT_3D('',#412,#413,#414);
#412 = CARTESIAN_POINT('',(1.,0.85,-0.597652));
#413 = DIRECTION('',(-0.,0.,1.));
#414 = DIRECTION('',(0.,-1.,0.));
#415 = ( GEOMETRIC_REPRESENTATION_CONTEXT(3) 
GLOBAL_UNCERTAINTY_ASSIGNED_CONTEXT((#419)) GLOBAL_UNIT_ASSIGNED_CONTEXT
((#416,#417,#418)) REPRESENTATION_CONTEXT('Context #1',
  '3D Context with UNIT and UNCERTAINTY') );
#416 = ( LENGTH_UNIT() NAMED_UNIT(*) SI_UNIT(.MILLI.,.METRE.) );
#417 = ( NAMED_UNIT(*) PLANE_ANGLE_UNIT() SI_UNIT($,.RADIAN.) );
#418 = ( NAMED_UNIT(*) SI_UNIT($,.STERADIAN.) SOLID_ANGLE_UNIT() );
#419 = UNCERTAINTY_MEASURE_WITH_UNIT(LENGTH_MEASURE(1.E-07),#416,
  'distance_accuracy_value','confusion accuracy');
#420 = CONTEXT_DEPENDENT_SHAPE_REPRESENTATION(#421,#423);
#421 = ( REPRESENTATION_RELATIONSHIP('','',#36,#10) 
REPRESENTATION_RELATIONSHIP_WITH_TRANSFORMATION(#422) 
SHAPE_REPRESENTATION_RELATIONSHIP() );
#422 = ITEM_DEFINED_TRANSFORMATION('','',#11,#15);
#423 = PRODUCT_DEFINITION_SHAPE('Placement','Placement of an item',#424
  );
#424 = NEXT_ASSEMBLY_USAGE_OCCURRENCE('44','Pocket','',#5,#31,$);
#425 = PRODUCT_RELATED_PRODUCT_CATEGORY('part',$,(#33));
#426 = SHAPE_DEFINITION_REPRESENTATION(#427,#433);
#427 = PRODUCT_DEFINITION_SHAPE('','',#428);
#428 = PRODUCT_DEFINITION('design','',#429,#432);
#429 = PRODUCT_DEFINITION_FORMATION('','',#430);
#430 = PRODUCT('Chamfer001','Chamfer001','',(#431));
#431 = PRODUCT_CONTEXT('',#2,'mechanical');
#432 = PRODUCT_DEFINITION_CONTEXT('part definition',#2,'design');
#433 = ADVANCED_BREP_SHAPE_REPRESENTATION('',(#11,#434),#776);
#434 = MANIFOLD_SOLID_BREP('',#435);
#435 = CLOSED_SHELL('',(#436,#476,#507,#538,#569,#600,#624,#648,#670,
    #694,#711,#735,#752,#764));
#436 = ADVANCED_FACE('',(#437),#471,.F.);
#437 = FACE_BOUND('',#438,.F.);
#438 = EDGE_LOOP('',(#439,#449,#457,#465));
#439 = ORIENTED_EDGE('',*,*,#440,.F.);
#440 = EDGE_CURVE('',#441,#443,#445,.T.);
#441 = VERTEX_POINT('',#442);
#442 = CARTESIAN_POINT('',(-0.25,0.25,3.5));
#443 = VERTEX_POINT('',#444);
#444 = CARTESIAN_POINT('',(-0.25,0.25,-3.5));
#445 = LINE('',#446,#447);
#446 = CARTESIAN_POINT('',(-0.25,0.25,3.65));
#447 = VECTOR('',#448,1.);
#448 = DIRECTION('',(0.,-2.22044604925E-16,-1.));
#449 = ORIENTED_EDGE('',*,*,#450,.T.);
#450 = EDGE_CURVE('',#441,#451,#453,.T.);
#451 = VERTEX_POINT('',#452);
#452 = CARTESIAN_POINT('',(-0.25,-0.25,3.5));
#453 = LINE('',#454,#455);
#454 = CARTESIAN_POINT('',(-0.25,0.25,3.5));
#455 = VECTOR('',#456,1.);
#456 = DIRECTION('',(0.,-1.,2.22044604925E-16));
#457 = ORIENTED_EDGE('',*,*,#458,.T.);
#458 = EDGE_CURVE('',#451,#459,#461,.T.);
#459 = VERTEX_POINT('',#460);
#460 = CARTESIAN_POINT('',(-0.25,-0.25,-3.5));
#461 = LINE('',#462,#463);
#462 = CARTESIAN_POINT('',(-0.25,-0.25,3.65));
#463 = VECTOR('',#464,1.);
#464 = DIRECTION('',(0.,-2.22044604925E-16,-1.));
#465 = ORIENTED_EDGE('',*,*,#466,.F.);
#466 = EDGE_CURVE('',#443,#459,#467,.T.);
#467 = LINE('',#468,#469);
#468 = CARTESIAN_POINT('',(-0.25,0.25,-3.5));
#469 = VECTOR('',#470,1.);
#470 = DIRECTION('',(0.,-1.,2.22044604925E-16));
#471 = PLANE('',#472);
#472 = AXIS2_PLACEMENT_3D('',#473,#474,#475);
#473 = CARTESIAN_POINT('',(-0.25,0.25,3.65));
#474 = DIRECTION('',(1.,0.,0.));
#475 = DIRECTION('',(0.,-2.22044604925E-16,-1.));
#476 = ADVANCED_FACE('',(#477),#502,.T.);
#477 = FACE_BOUND('',#478,.T.);
#478 = EDGE_LOOP('',(#479,#480,#488,#496));
#479 = ORIENTED_EDGE('',*,*,#440,.F.);
#480 = ORIENTED_EDGE('',*,*,#481,.F.);
#481 = EDGE_CURVE('',#482,#441,#484,.T.);
#482 = VERTEX_POINT('',#483);
#483 = CARTESIAN_POINT('',(0.25,0.25,3.5));
#484 = LINE('',#485,#486);
#485 = CARTESIAN_POINT('',(0.25,0.25,3.5));
#486 = VECTOR('',#487,1.);
#487 = DIRECTION('',(-1.,0.,0.));
#488 = ORIENTED_EDGE('',*,*,#489,.F.);
#489 = EDGE_CURVE('',#490,#482,#492,.T.);
#490 = VERTEX_POINT('',#491);
#491 = CARTESIAN_POINT('',(0.25,0.25,-3.5));
#492 = LINE('',#493,#494);
#493 = CARTESIAN_POINT('',(0.25,0.25,-3.65));
#494 = VECTOR('',#495,1.);
#495 = DIRECTION('',(0.,2.22044604925E-16,1.));
#496 = ORIENTED_EDGE('',*,*,#497,.F.);
#497 = EDGE_CURVE('',#443,#490,#498,.T.);
#498 = LINE('',#499,#500);
#499 = CARTESIAN_POINT('',(-0.25,0.25,-3.5));
#500 = VECTOR('',#501,1.);
#501 = DIRECTION('',(1.,0.,0.));
#502 = PLANE('',#503);
#503 = AXIS2_PLACEMENT_3D('',#504,#505,#506);
#504 = CARTESIAN_POINT('',(0.,0.25,-4.825200068563E-16));
#505 = DIRECTION('',(0.,1.,0.));
#506 = DIRECTION('',(0.,0.,1.));
#507 = ADVANCED_FACE('',(#508),#533,.T.);
#508 = FACE_BOUND('',#509,.T.);
#509 = EDGE_LOOP('',(#510,#518,#519,#527));
#510 = ORIENTED_EDGE('',*,*,#511,.F.);
#511 = EDGE_CURVE('',#441,#512,#514,.T.);
#512 = VERTEX_POINT('',#513);
#513 = CARTESIAN_POINT('',(-1.E-01,1.E-01,3.65));
#514 = LINE('',#515,#516);
#515 = CARTESIAN_POINT('',(-0.116666666667,0.116666666667,3.633333333333
    ));
#516 = VECTOR('',#517,1.);
#517 = DIRECTION('',(0.57735026919,-0.57735026919,0.57735026919));
#518 = ORIENTED_EDGE('',*,*,#450,.T.);
#519 = ORIENTED_EDGE('',*,*,#520,.F.);
#520 = EDGE_CURVE('',#521,#451,#523,.T.);
#521 = VERTEX_POINT('',#522);
#522 = CARTESIAN_POINT('',(-1.E-01,-1.E-01,3.65));
#523 = LINE('',#524,#525);
#524 = CARTESIAN_POINT('',(-3.333333333333E-02,-3.333333333333E-02,
    3.716666666667));
#525 = VECTOR('',#526,1.);
#526 = DIRECTION('',(-0.57735026919,-0.57735026919,-0.57735026919));
#527 = ORIENTED_EDGE('',*,*,#528,.F.);
#528 = EDGE_CURVE('',#512,#521,#529,.T.);
#529 = LINE('',#530,#531);
#530 = CARTESIAN_POINT('',(-0.1,0.25,3.65));
#531 = VECTOR('',#532,1.);
#532 = DIRECTION('',(0.,-1.,2.22044604925E-16));
#533 = PLANE('',#534);
#534 = AXIS2_PLACEMENT_3D('',#535,#536,#537);
#535 = CARTESIAN_POINT('',(-0.175,0.25,3.575));
#536 = DIRECTION('',(-0.707106781187,1.561602370373E-16,0.707106781187)
  );
#537 = DIRECTION('',(6.003399017612E-19,-1.,2.214442650233E-16));
#538 = ADVANCED_FACE('',(#539),#564,.T.);
#539 = FACE_BOUND('',#540,.F.);
#540 = EDGE_LOOP('',(#541,#549,#550,#558));
#541 = ORIENTED_EDGE('',*,*,#542,.F.);
#542 = EDGE_CURVE('',#443,#543,#545,.T.);
#543 = VERTEX_POINT('',#544);
#544 = CARTESIAN_POINT('',(-1.E-01,1.E-01,-3.65));
#545 = LINE('',#546,#547);
#546 = CARTESIAN_POINT('',(-0.2,0.2,-3.55));
#547 = VECTOR('',#548,1.);
#548 = DIRECTION('',(0.57735026919,-0.57735026919,-0.57735026919));
#549 = ORIENTED_EDGE('',*,*,#466,.T.);
#550 = ORIENTED_EDGE('',*,*,#551,.F.);
#551 = EDGE_CURVE('',#552,#459,#554,.T.);
#552 = VERTEX_POINT('',#553);
#553 = CARTESIAN_POINT('',(-1.E-01,-1.E-01,-3.65));
#554 = LINE('',#555,#556);
#555 = CARTESIAN_POINT('',(-0.116666666667,-0.116666666667,
    -3.633333333333));
#556 = VECTOR('',#557,1.);
#557 = DIRECTION('',(-0.57735026919,-0.57735026919,0.57735026919));
#558 = ORIENTED_EDGE('',*,*,#559,.F.);
#559 = EDGE_CURVE('',#543,#552,#560,.T.);
#560 = LINE('',#561,#562);
#561 = CARTESIAN_POINT('',(-0.1,0.25,-3.65));
#562 = VECTOR('',#563,1.);
#563 = DIRECTION('',(0.,-1.,2.22044604925E-16));
#564 = PLANE('',#565);
#565 = AXIS2_PLACEMENT_3D('',#566,#567,#568);
#566 = CARTESIAN_POINT('',(-0.175,0.25,-3.575));
#567 = DIRECTION('',(-0.707106781187,-1.561602370373E-16,-0.707106781187
    ));
#568 = DIRECTION('',(6.003399017612E-19,1.,-2.214442650233E-16));
#569 = ADVANCED_FACE('',(#570),#595,.F.);
#570 = FACE_BOUND('',#571,.F.);
#571 = EDGE_LOOP('',(#572,#573,#581,#589));
#572 = ORIENTED_EDGE('',*,*,#458,.F.);
#573 = ORIENTED_EDGE('',*,*,#574,.F.);
#574 = EDGE_CURVE('',#575,#451,#577,.T.);
#575 = VERTEX_POINT('',#576);
#576 = CARTESIAN_POINT('',(0.25,-0.25,3.5));
#577 = LINE('',#578,#579);
#578 = CARTESIAN_POINT('',(0.25,-0.25,3.5));
#579 = VECTOR('',#580,1.);
#580 = DIRECTION('',(-1.,0.,0.));
#581 = ORIENTED_EDGE('',*,*,#582,.F.);
#582 = EDGE_CURVE('',#583,#575,#585,.T.);
#583 = VERTEX_POINT('',#584);
#584 = CARTESIAN_POINT('',(0.25,-0.25,-3.5));
#585 = LINE('',#586,#587);
#586 = CARTESIAN_POINT('',(0.25,-0.25,-3.65));
#587 = VECTOR('',#588,1.);
#588 = DIRECTION('',(0.,2.22044604925E-16,1.));
#589 = ORIENTED_EDGE('',*,*,#590,.F.);
#590 = EDGE_CURVE('',#459,#583,#591,.T.);
#591 = LINE('',#592,#593);
#592 = CARTESIAN_POINT('',(-0.25,-0.25,-3.5));
#593 = VECTOR('',#594,1.);
#594 = DIRECTION('',(1.,0.,0.));
#595 = PLANE('',#596);
#596 = AXIS2_PLACEMENT_3D('',#597,#598,#599);
#597 = CARTESIAN_POINT('',(0.,-0.25,-3.714977043938E-16));
#598 = DIRECTION('',(0.,1.,0.));
#599 = DIRECTION('',(0.,0.,1.));
#600 = ADVANCED_FACE('',(#601),#619,.F.);
#601 = FACE_BOUND('',#602,.F.);
#602 = EDGE_LOOP('',(#603,#611,#617,#618));
#603 = ORIENTED_EDGE('',*,*,#604,.F.);
#604 = EDGE_CURVE('',#605,#482,#607,.T.);
#605 = VERTEX_POINT('',#606);
#606 = CARTESIAN_POINT('',(1.E-01,1.E-01,3.65));
#607 = LINE('',#608,#609);
#608 = CARTESIAN_POINT('',(0.2,0.2,3.55));
#609 = VECTOR('',#610,1.);
#610 = DIRECTION('',(0.57735026919,0.57735026919,-0.57735026919));
#611 = ORIENTED_EDGE('',*,*,#612,.T.);
#612 = EDGE_CURVE('',#605,#512,#613,.T.);
#613 = LINE('',#614,#615);
#614 = CARTESIAN_POINT('',(0.25,0.1,3.65));
#615 = VECTOR('',#616,1.);
#616 = DIRECTION('',(-1.,0.,0.));
#617 = ORIENTED_EDGE('',*,*,#511,.F.);
#618 = ORIENTED_EDGE('',*,*,#481,.F.);
#619 = PLANE('',#620);
#620 = AXIS2_PLACEMENT_3D('',#621,#622,#623);
#621 = CARTESIAN_POINT('',(0.25,0.175,3.575));
#622 = DIRECTION('',(0.,-0.707106781187,-0.707106781187));
#623 = DIRECTION('',(-1.,-0.,0.));
#624 = ADVANCED_FACE('',(#625),#643,.F.);
#625 = FACE_BOUND('',#626,.F.);
#626 = EDGE_LOOP('',(#627,#628,#636,#642));
#627 = ORIENTED_EDGE('',*,*,#542,.T.);
#628 = ORIENTED_EDGE('',*,*,#629,.T.);
#629 = EDGE_CURVE('',#543,#630,#632,.T.);
#630 = VERTEX_POINT('',#631);
#631 = CARTESIAN_POINT('',(1.E-01,1.E-01,-3.65));
#632 = LINE('',#633,#634);
#633 = CARTESIAN_POINT('',(-0.25,0.1,-3.65));
#634 = VECTOR('',#635,1.);
#635 = DIRECTION('',(1.,0.,0.));
#636 = ORIENTED_EDGE('',*,*,#637,.T.);
#637 = EDGE_CURVE('',#630,#490,#638,.T.);
#638 = LINE('',#639,#640);
#639 = CARTESIAN_POINT('',(0.116666666667,0.116666666667,-3.633333333333
    ));
#640 = VECTOR('',#641,1.);
#641 = DIRECTION('',(0.57735026919,0.57735026919,0.57735026919));
#642 = ORIENTED_EDGE('',*,*,#497,.F.);
#643 = PLANE('',#644);
#644 = AXIS2_PLACEMENT_3D('',#645,#646,#647);
#645 = CARTESIAN_POINT('',(-0.25,0.175,-3.575));
#646 = DIRECTION('',(0.,-0.707106781187,0.707106781187));
#647 = DIRECTION('',(1.,0.,0.));
#648 = ADVANCED_FACE('',(#649),#665,.F.);
#649 = FACE_BOUND('',#650,.F.);
#650 = EDGE_LOOP('',(#651,#652,#658,#659));
#651 = ORIENTED_EDGE('',*,*,#489,.F.);
#652 = ORIENTED_EDGE('',*,*,#653,.T.);
#653 = EDGE_CURVE('',#490,#583,#654,.T.);
#654 = LINE('',#655,#656);
#655 = CARTESIAN_POINT('',(0.25,0.25,-3.5));
#656 = VECTOR('',#657,1.);
#657 = DIRECTION('',(0.,-1.,2.22044604925E-16));
#658 = ORIENTED_EDGE('',*,*,#582,.T.);
#659 = ORIENTED_EDGE('',*,*,#660,.F.);
#660 = EDGE_CURVE('',#482,#575,#661,.T.);
#661 = LINE('',#662,#663);
#662 = CARTESIAN_POINT('',(0.25,0.25,3.5));
#663 = VECTOR('',#664,1.);
#664 = DIRECTION('',(0.,-1.,2.22044604925E-16));
#665 = PLANE('',#666);
#666 = AXIS2_PLACEMENT_3D('',#667,#668,#669);
#667 = CARTESIAN_POINT('',(0.25,0.25,-3.65));
#668 = DIRECTION('',(-1.,0.,0.));
#669 = DIRECTION('',(0.,2.22044604925E-16,1.));
#670 = ADVANCED_FACE('',(#671),#689,.F.);
#671 = FACE_BOUND('',#672,.F.);
#672 = EDGE_LOOP('',(#673,#681,#682,#683));
#673 = ORIENTED_EDGE('',*,*,#674,.T.);
#674 = EDGE_CURVE('',#675,#521,#677,.T.);
#675 = VERTEX_POINT('',#676);
#676 = CARTESIAN_POINT('',(1.E-01,-1.E-01,3.65));
#677 = LINE('',#678,#679);
#678 = CARTESIAN_POINT('',(0.25,-0.1,3.65));
#679 = VECTOR('',#680,1.);
#680 = DIRECTION('',(-1.,0.,0.));
#681 = ORIENTED_EDGE('',*,*,#528,.F.);
#682 = ORIENTED_EDGE('',*,*,#612,.F.);
#683 = ORIENTED_EDGE('',*,*,#684,.T.);
#684 = EDGE_CURVE('',#605,#675,#685,.T.);
#685 = LINE('',#686,#687);
#686 = CARTESIAN_POINT('',(0.1,0.25,3.65));
#687 = VECTOR('',#688,1.);
#688 = DIRECTION('',(0.,-1.,2.22044604925E-16));
#689 = PLANE('',#690);
#690 = AXIS2_PLACEMENT_3D('',#691,#692,#693);
#691 = CARTESIAN_POINT('',(0.25,0.25,3.65));
#692 = DIRECTION('',(-0.,-2.22044604925E-16,-1.));
#693 = DIRECTION('',(-1.,0.,0.));
#694 = ADVANCED_FACE('',(#695),#706,.T.);
#695 = FACE_BOUND('',#696,.T.);
#696 = EDGE_LOOP('',(#697,#703,#704,#705));
#697 = ORIENTED_EDGE('',*,*,#698,.F.);
#698 = EDGE_CURVE('',#675,#575,#699,.T.);
#699 = LINE('',#700,#701);
#700 = CARTESIAN_POINT('',(0.116666666667,-0.116666666667,3.633333333333
    ));
#701 = VECTOR('',#702,1.);
#702 = DIRECTION('',(0.57735026919,-0.57735026919,-0.57735026919));
#703 = ORIENTED_EDGE('',*,*,#674,.T.);
#704 = ORIENTED_EDGE('',*,*,#520,.T.);
#705 = ORIENTED_EDGE('',*,*,#574,.F.);
#706 = PLANE('',#707);
#707 = AXIS2_PLACEMENT_3D('',#708,#709,#710);
#708 = CARTESIAN_POINT('',(0.25,-0.175,3.575));
#709 = DIRECTION('',(0.,-0.707106781187,0.707106781187));
#710 = DIRECTION('',(-1.,0.,0.));
#711 = ADVANCED_FACE('',(#712),#730,.F.);
#712 = FACE_BOUND('',#713,.F.);
#713 = EDGE_LOOP('',(#714,#722,#723,#724));
#714 = ORIENTED_EDGE('',*,*,#715,.F.);
#715 = EDGE_CURVE('',#630,#716,#718,.T.);
#716 = VERTEX_POINT('',#717);
#717 = CARTESIAN_POINT('',(1.E-01,-1.E-01,-3.65));
#718 = LINE('',#719,#720);
#719 = CARTESIAN_POINT('',(0.1,0.25,-3.65));
#720 = VECTOR('',#721,1.);
#721 = DIRECTION('',(0.,-1.,2.22044604925E-16));
#722 = ORIENTED_EDGE('',*,*,#629,.F.);
#723 = ORIENTED_EDGE('',*,*,#559,.T.);
#724 = ORIENTED_EDGE('',*,*,#725,.T.);
#725 = EDGE_CURVE('',#552,#716,#726,.T.);
#726 = LINE('',#727,#728);
#727 = CARTESIAN_POINT('',(-0.25,-0.1,-3.65));
#728 = VECTOR('',#729,1.);
#729 = DIRECTION('',(1.,0.,0.));
#730 = PLANE('',#731);
#731 = AXIS2_PLACEMENT_3D('',#732,#733,#734);
#732 = CARTESIAN_POINT('',(-0.25,0.25,-3.65));
#733 = DIRECTION('',(0.,2.22044604925E-16,1.));
#734 = DIRECTION('',(1.,0.,0.));
#735 = ADVANCED_FACE('',(#736),#747,.T.);
#736 = FACE_BOUND('',#737,.T.);
#737 = EDGE_LOOP('',(#738,#739,#740,#746));
#738 = ORIENTED_EDGE('',*,*,#551,.F.);
#739 = ORIENTED_EDGE('',*,*,#725,.T.);
#740 = ORIENTED_EDGE('',*,*,#741,.T.);
#741 = EDGE_CURVE('',#716,#583,#742,.T.);
#742 = LINE('',#743,#744);
#743 = CARTESIAN_POINT('',(3.333333333333E-02,-3.333333333333E-02,
    -3.716666666667));
#744 = VECTOR('',#745,1.);
#745 = DIRECTION('',(0.57735026919,-0.57735026919,0.57735026919));
#746 = ORIENTED_EDGE('',*,*,#590,.F.);
#747 = PLANE('',#748);
#748 = AXIS2_PLACEMENT_3D('',#749,#750,#751);
#749 = CARTESIAN_POINT('',(-0.25,-0.175,-3.575));
#750 = DIRECTION('',(0.,-0.707106781187,-0.707106781187));
#751 = DIRECTION('',(1.,0.,0.));
#752 = ADVANCED_FACE('',(#753),#759,.T.);
#753 = FACE_BOUND('',#754,.F.);
#754 = EDGE_LOOP('',(#755,#756,#757,#758));
#755 = ORIENTED_EDGE('',*,*,#604,.T.);
#756 = ORIENTED_EDGE('',*,*,#660,.T.);
#757 = ORIENTED_EDGE('',*,*,#698,.F.);
#758 = ORIENTED_EDGE('',*,*,#684,.F.);
#759 = PLANE('',#760);
#760 = AXIS2_PLACEMENT_3D('',#761,#762,#763);
#761 = CARTESIAN_POINT('',(0.175,0.25,3.575));
#762 = DIRECTION('',(0.707106781187,1.578953507821E-16,0.707106781187));
#763 = DIRECTION('',(-6.265707933583E-19,1.,-2.226711757184E-16));
#764 = ADVANCED_FACE('',(#765),#771,.T.);
#765 = FACE_BOUND('',#766,.F.);
#766 = EDGE_LOOP('',(#767,#768,#769,#770));
#767 = ORIENTED_EDGE('',*,*,#637,.F.);
#768 = ORIENTED_EDGE('',*,*,#715,.T.);
#769 = ORIENTED_EDGE('',*,*,#741,.T.);
#770 = ORIENTED_EDGE('',*,*,#653,.F.);
#771 = PLANE('',#772);
#772 = AXIS2_PLACEMENT_3D('',#773,#774,#775);
#773 = CARTESIAN_POINT('',(0.175,0.25,-3.575));
#774 = DIRECTION('',(0.707106781187,-1.578953507821E-16,-0.707106781187)
  );
#775 = DIRECTION('',(6.265707933583E-19,1.,-2.226711757184E-16));
#776 = ( GEOMETRIC_REPRESENTATION_CONTEXT(3) 
GLOBAL_UNCERTAINTY_ASSIGNED_CONTEXT((#780)) GLOBAL_UNIT_ASSIGNED_CONTEXT
((#777,#778,#779)) REPRESENTATION_CONTEXT('Context #1',
  '3D Context with UNIT and UNCERTAINTY') );
#777 = ( LENGTH_UNIT() NAMED_UNIT(*) SI_UNIT(.MILLI.,.METRE.) );
#778 = ( NAMED_UNIT(*) PLANE_ANGLE_UNIT() SI_UNIT($,.RADIAN.) );
#779 = ( NAMED_UNIT(*) SI_UNIT($,.STERADIAN.) SOLID_ANGLE_UNIT() );
#780 = UNCERTAINTY_MEASURE_WITH_UNIT(LENGTH_MEASURE(1.E-07),#777,
  'distance_accuracy_value','confusion accuracy');
#781 = CONTEXT_DEPENDENT_SHAPE_REPRESENTATION(#782,#784);
#782 = ( REPRESENTATION_RELATIONSHIP('','',#433,#10) 
REPRESENTATION_RELATIONSHIP_WITH_TRANSFORMATION(#783) 
SHAPE_REPRESENTATION_RELATIONSHIP() );
#783 = ITEM_DEFINED_TRANSFORMATION('','',#11,#19);
#784 = PRODUCT_DEFINITION_SHAPE('Placement','Placement of an item',#785
  );
#785 = NEXT_ASSEMBLY_USAGE_OCCURRENCE('45','Chamfer001','',#5,#428,$);
#786 = PRODUCT_RELATED_PRODUCT_CATEGORY('part',$,(#430));
#787 = MECHANICAL_DESIGN_GEOMETRIC_PRESENTATION_REPRESENTATION('',(#788)
  ,#776);
#788 = STYLED_ITEM('color',(#789),#434);
#789 = PRESENTATION_STYLE_ASSIGNMENT((#790,#796));
#790 = SURFACE_STYLE_USAGE(.BOTH.,#791);
#791 = SURFACE_SIDE_STYLE('',(#792));
#792 = SURFACE_STYLE_FILL_AREA(#793);
#793 = FILL_AREA_STYLE('',(#794));
#794 = FILL_AREA_STYLE_COLOUR('',#795);
#795 = COLOUR_RGB('',0.917599985683,0.917599985683,0.917599985683);
#796 = CURVE_STYLE('',#797,POSITIVE_LENGTH_MEASURE(0.1),#798);
#797 = DRAUGHTING_PRE_DEFINED_CURVE_FONT('continuous');
#798 = COLOUR_RGB('',9.803921802644E-02,9.803921802644E-02,
  9.803921802644E-02);
#799 = MECHANICAL_DESIGN_GEOMETRIC_PRESENTATION_REPRESENTATION('',(#800)
  ,#415);
#800 = STYLED_ITEM('color',(#801),#37);
#801 = PRESENTATION_STYLE_ASSIGNMENT((#802,#808));
#802 = SURFACE_STYLE_USAGE(.BOTH.,#803);
#803 = SURFACE_SIDE_STYLE('',(#804));
#804 = SURFACE_STYLE_FILL_AREA(#805);
#805 = FILL_AREA_STYLE('',(#806));
#806 = FILL_AREA_STYLE_COLOUR('',#807);
#807 = COLOUR_RGB('',0.116700000506,0.116700000506,0.116700000506);
#808 = CURVE_STYLE('',#809,POSITIVE_LENGTH_MEASURE(0.1),#798);
#809 = DRAUGHTING_PRE_DEFINED_CURVE_FONT('continuous');
ENDSEC;
END-ISO-10303-21;
