ISO-10303-21;
HEADER;
FILE_DESCRIPTION(('FreeCAD Model'),'2;1');
FILE_NAME('Open CASCADE Shape Model','2026-09-21T10:56:48',(''),(''),
  'Open CASCADE STEP processor 7.8','FreeCAD','Unknown');
FILE_SCHEMA(('AUTOMOTIVE_DESIGN { 1 0 10303 214 1 1 1 1 }'));
ENDSEC;
DATA;
#1 = APPLICATION_PROTOCOL_DEFINITION('international standard',
  'automotive_design',2000,#2);
#2 = APPLICATION_CONTEXT(
  'core data for automotive mechanical design processes');
#3 = SHAPE_DEFINITION_REPRESENTATION(#4,#10);
#4 = PRODUCT_DEFINITION_SHAPE('','',#5);
#5 = PRODUCT_DEFINITION('design','',#6,#9);
#6 = PRODUCT_DEFINITION_FORMATION('','',#7);
#7 = PRODUCT('Unnamed','Unnamed','',(#8));
#8 = PRODUCT_CONTEXT('',#2,'mechanical');
#9 = PRODUCT_DEFINITION_CONTEXT('part definition',#2,'design');
#10 = SHAPE_REPRESENTATION('',(#11,#15,#19,#23),#27);
#11 = AXIS2_PLACEMENT_3D('',#12,#13,#14);
#12 = CARTESIAN_POINT('',(0.,0.,0.));
#13 = DIRECTION('',(0.,0.,1.));
#14 = DIRECTION('',(1.,0.,-0.));
#15 = AXIS2_PLACEMENT_3D('',#16,#17,#18);
#16 = CARTESIAN_POINT('',(0.,0.,0.));
#17 = DIRECTION('',(0.,0.,1.));
#18 = DIRECTION('',(1.,0.,0.));
#19 = AXIS2_PLACEMENT_3D('',#20,#21,#22);
#20 = CARTESIAN_POINT('',(0.,0.,0.));
#21 = DIRECTION('',(0.,0.,1.));
#22 = DIRECTION('',(1.,0.,0.));
#23 = AXIS2_PLACEMENT_3D('',#24,#25,#26);
#24 = CARTESIAN_POINT('',(0.,0.,0.));
#25 = DIRECTION('',(0.,0.,1.));
#26 = DIRECTION('',(1.,0.,0.));
#27 = ( GEOMETRIC_REPRESENTATION_CONTEXT(3) 
GLOBAL_UNCERTAINTY_ASSIGNED_CONTEXT((#31)) GLOBAL_UNIT_ASSIGNED_CONTEXT(
(#28,#29,#30)) REPRESENTATION_CONTEXT('Context #1',
  '3D Context with UNIT and UNCERTAINTY') );
#28 = ( LENGTH_UNIT() NAMED_UNIT(*) SI_UNIT(.MILLI.,.METRE.) );
#29 = ( NAMED_UNIT(*) PLANE_ANGLE_UNIT() SI_UNIT($,.RADIAN.) );
#30 = ( NAMED_UNIT(*) SI_UNIT($,.STERADIAN.) SOLID_ANGLE_UNIT() );
#31 = UNCERTAINTY_MEASURE_WITH_UNIT(LENGTH_MEASURE(1.E-07),#28,
  'distance_accuracy_value','confusion accuracy');
#32 = PRODUCT_RELATED_PRODUCT_CATEGORY('part',$,(#7));
#33 = SHAPE_DEFINITION_REPRESENTATION(#34,#40);
#34 = PRODUCT_DEFINITION_SHAPE('','',#35);
#35 = PRODUCT_DEFINITION('design','',#36,#39);
#36 = PRODUCT_DEFINITION_FORMATION('','',#37);
#37 = PRODUCT('Chamfer001','Chamfer001','',(#38));
#38 = PRODUCT_CONTEXT('',#2,'mechanical');
#39 = PRODUCT_DEFINITION_CONTEXT('part definition',#2,'design');
#40 = ADVANCED_BREP_SHAPE_REPRESENTATION('',(#11,#41),#693);
#41 = MANIFOLD_SOLID_BREP('',#42);
#42 = CLOSED_SHELL('',(#43,#149,#180,#204,#228,#284,#340,#364,#388,#405,
    #436,#460,#484,#501,#520,#539,#556,#573,#585,#616,#640,#664,#681));
#43 = ADVANCED_FACE('',(#44,#110),#144,.T.);
#44 = FACE_BOUND('',#45,.T.);
#45 = EDGE_LOOP('',(#46,#56,#64,#72,#80,#88,#96,#104));
#46 = ORIENTED_EDGE('',*,*,#47,.T.);
#47 = EDGE_CURVE('',#48,#50,#52,.T.);
#48 = VERTEX_POINT('',#49);
#49 = CARTESIAN_POINT('',(-1.02,-1.27,4.07));
#50 = VERTEX_POINT('',#51);
#51 = CARTESIAN_POINT('',(1.02,-1.27,4.07));
#52 = LINE('',#53,#54);
#53 = CARTESIAN_POINT('',(-1.27,-1.27,4.07));
#54 = VECTOR('',#55,1.);
#55 = DIRECTION('',(1.,0.,0.));
#56 = ORIENTED_EDGE('',*,*,#57,.T.);
#57 = EDGE_CURVE('',#50,#58,#60,.T.);
#58 = VERTEX_POINT('',#59);
#59 = CARTESIAN_POINT('',(1.27,-1.02,4.07));
#60 = LINE('',#61,#62);
#61 = CARTESIAN_POINT('',(0.51,-1.78,4.07));
#62 = VECTOR('',#63,1.);
#63 = DIRECTION('',(0.707106781187,0.707106781187,-0.));
#64 = ORIENTED_EDGE('',*,*,#65,.T.);
#65 = EDGE_CURVE('',#58,#66,#68,.T.);
#66 = VERTEX_POINT('',#67);
#67 = CARTESIAN_POINT('',(1.27,1.02,4.07));
#68 = LINE('',#69,#70);
#69 = CARTESIAN_POINT('',(1.27,-1.27,4.07));
#70 = VECTOR('',#71,1.);
#71 = DIRECTION('',(0.,1.,0.));
#72 = ORIENTED_EDGE('',*,*,#73,.T.);
#73 = EDGE_CURVE('',#66,#74,#76,.T.);
#74 = VERTEX_POINT('',#75);
#75 = CARTESIAN_POINT('',(1.02,1.27,4.07));
#76 = LINE('',#77,#78);
#77 = CARTESIAN_POINT('',(1.145,1.145,4.07));
#78 = VECTOR('',#79,1.);
#79 = DIRECTION('',(-0.707106781187,0.707106781187,-0.));
#80 = ORIENTED_EDGE('',*,*,#81,.F.);
#81 = EDGE_CURVE('',#82,#74,#84,.T.);
#82 = VERTEX_POINT('',#83);
#83 = CARTESIAN_POINT('',(-1.02,1.27,4.07));
#84 = LINE('',#85,#86);
#85 = CARTESIAN_POINT('',(-1.27,1.27,4.07));
#86 = VECTOR('',#87,1.);
#87 = DIRECTION('',(1.,0.,0.));
#88 = ORIENTED_EDGE('',*,*,#89,.F.);
#89 = EDGE_CURVE('',#90,#82,#92,.T.);
#90 = VERTEX_POINT('',#91);
#91 = CARTESIAN_POINT('',(-1.27,1.02,4.07));
#92 = LINE('',#93,#94);
#93 = CARTESIAN_POINT('',(-1.78,0.51,4.07));
#94 = VECTOR('',#95,1.);
#95 = DIRECTION('',(0.707106781187,0.707106781187,-0.));
#96 = ORIENTED_EDGE('',*,*,#97,.F.);
#97 = EDGE_CURVE('',#98,#90,#100,.T.);
#98 = VERTEX_POINT('',#99);
#99 = CARTESIAN_POINT('',(-1.27,-1.02,4.07));
#100 = LINE('',#101,#102);
#101 = CARTESIAN_POINT('',(-1.27,-1.27,4.07));
#102 = VECTOR('',#103,1.);
#103 = DIRECTION('',(0.,1.,0.));
#104 = ORIENTED_EDGE('',*,*,#105,.F.);
#105 = EDGE_CURVE('',#48,#98,#106,.T.);
#106 = LINE('',#107,#108);
#107 = CARTESIAN_POINT('',(-1.145,-1.145,4.07));
#108 = VECTOR('',#109,1.);
#109 = DIRECTION('',(-0.707106781187,0.707106781187,0.));
#110 = FACE_BOUND('',#111,.T.);
#111 = EDGE_LOOP('',(#112,#122,#130,#138));
#112 = ORIENTED_EDGE('',*,*,#113,.F.);
#113 = EDGE_CURVE('',#114,#116,#118,.T.);
#114 = VERTEX_POINT('',#115);
#115 = CARTESIAN_POINT('',(0.75,0.75,4.07));
#116 = VERTEX_POINT('',#117);
#117 = CARTESIAN_POINT('',(-0.75,0.75,4.07));
#118 = LINE('',#119,#120);
#119 = CARTESIAN_POINT('',(0.35,0.75,4.07));
#120 = VECTOR('',#121,1.);
#121 = DIRECTION('',(-1.,0.,0.));
#122 = ORIENTED_EDGE('',*,*,#123,.F.);
#123 = EDGE_CURVE('',#124,#114,#126,.T.);
#124 = VERTEX_POINT('',#125);
#125 = CARTESIAN_POINT('',(0.75,-0.75,4.07));
#126 = LINE('',#127,#128);
#127 = CARTESIAN_POINT('',(0.75,-0.35,4.07));
#128 = VECTOR('',#129,1.);
#129 = DIRECTION('',(0.,1.,0.));
#130 = ORIENTED_EDGE('',*,*,#131,.F.);
#131 = EDGE_CURVE('',#132,#124,#134,.T.);
#132 = VERTEX_POINT('',#133);
#133 = CARTESIAN_POINT('',(-0.75,-0.75,4.07));
#134 = LINE('',#135,#136);
#135 = CARTESIAN_POINT('',(-0.35,-0.75,4.07));
#136 = VECTOR('',#137,1.);
#137 = DIRECTION('',(1.,0.,0.));
#138 = ORIENTED_EDGE('',*,*,#139,.F.);
#139 = EDGE_CURVE('',#116,#132,#140,.T.);
#140 = LINE('',#141,#142);
#141 = CARTESIAN_POINT('',(-0.75,0.35,4.07));
#142 = VECTOR('',#143,1.);
#143 = DIRECTION('',(0.,-1.,0.));
#144 = PLANE('',#145);
#145 = AXIS2_PLACEMENT_3D('',#146,#147,#148);
#146 = CARTESIAN_POINT('',(-1.27,-1.27,4.07));
#147 = DIRECTION('',(0.,0.,1.));
#148 = DIRECTION('',(0.,1.,0.));
#149 = ADVANCED_FACE('',(#150),#175,.T.);
#150 = FACE_BOUND('',#151,.T.);
#151 = EDGE_LOOP('',(#152,#162,#168,#169));
#152 = ORIENTED_EDGE('',*,*,#153,.T.);
#153 = EDGE_CURVE('',#154,#156,#158,.T.);
#154 = VERTEX_POINT('',#155);
#155 = CARTESIAN_POINT('',(-1.02,-1.27,-0.5));
#156 = VERTEX_POINT('',#157);
#157 = CARTESIAN_POINT('',(1.02,-1.27,-0.5));
#158 = LINE('',#159,#160);
#159 = CARTESIAN_POINT('',(-1.27,-1.27,-0.5));
#160 = VECTOR('',#161,1.);
#161 = DIRECTION('',(1.,0.,0.));
#162 = ORIENTED_EDGE('',*,*,#163,.T.);
#163 = EDGE_CURVE('',#156,#50,#164,.T.);
#164 = LINE('',#165,#166);
#165 = CARTESIAN_POINT('',(1.02,-1.27,-0.5));
#166 = VECTOR('',#167,1.);
#167 = DIRECTION('',(0.,0.,1.));
#168 = ORIENTED_EDGE('',*,*,#47,.F.);
#169 = ORIENTED_EDGE('',*,*,#170,.F.);
#170 = EDGE_CURVE('',#154,#48,#171,.T.);
#171 = LINE('',#172,#173);
#172 = CARTESIAN_POINT('',(-1.02,-1.27,-0.5));
#173 = VECTOR('',#174,1.);
#174 = DIRECTION('',(0.,0.,1.));
#175 = PLANE('',#176);
#176 = AXIS2_PLACEMENT_3D('',#177,#178,#179);
#177 = CARTESIAN_POINT('',(-1.27,-1.27,-0.5));
#178 = DIRECTION('',(0.,-1.,0.));
#179 = DIRECTION('',(0.,0.,1.));
#180 = ADVANCED_FACE('',(#181),#199,.F.);
#181 = FACE_BOUND('',#182,.T.);
#182 = EDGE_LOOP('',(#183,#191,#192,#193));
#183 = ORIENTED_EDGE('',*,*,#184,.F.);
#184 = EDGE_CURVE('',#154,#185,#187,.T.);
#185 = VERTEX_POINT('',#186);
#186 = CARTESIAN_POINT('',(-1.27,-1.02,-0.5));
#187 = LINE('',#188,#189);
#188 = CARTESIAN_POINT('',(-1.27,-1.02,-0.5));
#189 = VECTOR('',#190,1.);
#190 = DIRECTION('',(-0.707106781187,0.707106781187,-0.));
#191 = ORIENTED_EDGE('',*,*,#170,.T.);
#192 = ORIENTED_EDGE('',*,*,#105,.T.);
#193 = ORIENTED_EDGE('',*,*,#194,.F.);
#194 = EDGE_CURVE('',#185,#98,#195,.T.);
#195 = LINE('',#196,#197);
#196 = CARTESIAN_POINT('',(-1.27,-1.02,-0.5));
#197 = VECTOR('',#198,1.);
#198 = DIRECTION('',(0.,0.,1.));
#199 = PLANE('',#200);
#200 = AXIS2_PLACEMENT_3D('',#201,#202,#203);
#201 = CARTESIAN_POINT('',(-1.145,-1.145,-0.5));
#202 = DIRECTION('',(0.707106781187,0.707106781187,0.));
#203 = DIRECTION('',(-0.,0.,-1.));
#204 = ADVANCED_FACE('',(#205),#223,.T.);
#205 = FACE_BOUND('',#206,.F.);
#206 = EDGE_LOOP('',(#207,#215,#216,#217));
#207 = ORIENTED_EDGE('',*,*,#208,.F.);
#208 = EDGE_CURVE('',#156,#209,#211,.T.);
#209 = VERTEX_POINT('',#210);
#210 = CARTESIAN_POINT('',(1.27,-1.02,-0.5));
#211 = LINE('',#212,#213);
#212 = CARTESIAN_POINT('',(0.635,-1.655,-0.5));
#213 = VECTOR('',#214,1.);
#214 = DIRECTION('',(0.707106781187,0.707106781187,0.));
#215 = ORIENTED_EDGE('',*,*,#163,.T.);
#216 = ORIENTED_EDGE('',*,*,#57,.T.);
#217 = ORIENTED_EDGE('',*,*,#218,.F.);
#218 = EDGE_CURVE('',#209,#58,#219,.T.);
#219 = LINE('',#220,#221);
#220 = CARTESIAN_POINT('',(1.27,-1.02,-0.5));
#221 = VECTOR('',#222,1.);
#222 = DIRECTION('',(0.,0.,1.));
#223 = PLANE('',#224);
#224 = AXIS2_PLACEMENT_3D('',#225,#226,#227);
#225 = CARTESIAN_POINT('',(1.145,-1.145,-0.5));
#226 = DIRECTION('',(0.707106781187,-0.707106781187,0.));
#227 = DIRECTION('',(-0.,-0.,-1.));
#228 = ADVANCED_FACE('',(#229),#279,.F.);
#229 = FACE_BOUND('',#230,.F.);
#230 = EDGE_LOOP('',(#231,#232,#233,#241,#249,#257,#265,#273));
#231 = ORIENTED_EDGE('',*,*,#97,.F.);
#232 = ORIENTED_EDGE('',*,*,#194,.F.);
#233 = ORIENTED_EDGE('',*,*,#234,.F.);
#234 = EDGE_CURVE('',#235,#185,#237,.T.);
#235 = VERTEX_POINT('',#236);
#236 = CARTESIAN_POINT('',(-1.27,-0.77,-0.5));
#237 = LINE('',#238,#239);
#238 = CARTESIAN_POINT('',(-1.27,-0.77,-0.5));
#239 = VECTOR('',#240,1.);
#240 = DIRECTION('',(0.,-1.,0.));
#241 = ORIENTED_EDGE('',*,*,#242,.F.);
#242 = EDGE_CURVE('',#243,#235,#245,.T.);
#243 = VERTEX_POINT('',#244);
#244 = CARTESIAN_POINT('',(-1.27,-0.77,0.));
#245 = LINE('',#246,#247);
#246 = CARTESIAN_POINT('',(-1.27,-0.77,0.));
#247 = VECTOR('',#248,1.);
#248 = DIRECTION('',(0.,0.,-1.));
#249 = ORIENTED_EDGE('',*,*,#250,.F.);
#250 = EDGE_CURVE('',#251,#243,#253,.T.);
#251 = VERTEX_POINT('',#252);
#252 = CARTESIAN_POINT('',(-1.27,0.77,0.));
#253 = LINE('',#254,#255);
#254 = CARTESIAN_POINT('',(-1.27,0.77,0.));
#255 = VECTOR('',#256,1.);
#256 = DIRECTION('',(0.,-1.,0.));
#257 = ORIENTED_EDGE('',*,*,#258,.F.);
#258 = EDGE_CURVE('',#259,#251,#261,.T.);
#259 = VERTEX_POINT('',#260);
#260 = CARTESIAN_POINT('',(-1.27,0.77,-0.5));
#261 = LINE('',#262,#263);
#262 = CARTESIAN_POINT('',(-1.27,0.77,-0.5));
#263 = VECTOR('',#264,1.);
#264 = DIRECTION('',(0.,0.,1.));
#265 = ORIENTED_EDGE('',*,*,#266,.F.);
#266 = EDGE_CURVE('',#267,#259,#269,.T.);
#267 = VERTEX_POINT('',#268);
#268 = CARTESIAN_POINT('',(-1.27,1.02,-0.5));
#269 = LINE('',#270,#271);
#270 = CARTESIAN_POINT('',(-1.27,1.27,-0.5));
#271 = VECTOR('',#272,1.);
#272 = DIRECTION('',(0.,-1.,0.));
#273 = ORIENTED_EDGE('',*,*,#274,.F.);
#274 = EDGE_CURVE('',#90,#267,#275,.T.);
#275 = LINE('',#276,#277);
#276 = CARTESIAN_POINT('',(-1.27,1.02,4.07));
#277 = VECTOR('',#278,1.);
#278 = DIRECTION('',(0.,0.,-1.));
#279 = PLANE('',#280);
#280 = AXIS2_PLACEMENT_3D('',#281,#282,#283);
#281 = CARTESIAN_POINT('',(-1.27,0.,1.701885676741));
#282 = DIRECTION('',(1.,0.,0.));
#283 = DIRECTION('',(0.,0.,1.));
#284 = ADVANCED_FACE('',(#285),#335,.T.);
#285 = FACE_BOUND('',#286,.T.);
#286 = EDGE_LOOP('',(#287,#288,#289,#297,#305,#313,#321,#329));
#287 = ORIENTED_EDGE('',*,*,#65,.F.);
#288 = ORIENTED_EDGE('',*,*,#218,.F.);
#289 = ORIENTED_EDGE('',*,*,#290,.F.);
#290 = EDGE_CURVE('',#291,#209,#293,.T.);
#291 = VERTEX_POINT('',#292);
#292 = CARTESIAN_POINT('',(1.27,-0.77,-0.5));
#293 = LINE('',#294,#295);
#294 = CARTESIAN_POINT('',(1.27,-0.77,-0.5));
#295 = VECTOR('',#296,1.);
#296 = DIRECTION('',(0.,-1.,0.));
#297 = ORIENTED_EDGE('',*,*,#298,.F.);
#298 = EDGE_CURVE('',#299,#291,#301,.T.);
#299 = VERTEX_POINT('',#300);
#300 = CARTESIAN_POINT('',(1.27,-0.77,0.));
#301 = LINE('',#302,#303);
#302 = CARTESIAN_POINT('',(1.27,-0.77,0.));
#303 = VECTOR('',#304,1.);
#304 = DIRECTION('',(0.,0.,-1.));
#305 = ORIENTED_EDGE('',*,*,#306,.F.);
#306 = EDGE_CURVE('',#307,#299,#309,.T.);
#307 = VERTEX_POINT('',#308);
#308 = CARTESIAN_POINT('',(1.27,0.77,0.));
#309 = LINE('',#310,#311);
#310 = CARTESIAN_POINT('',(1.27,0.77,0.));
#311 = VECTOR('',#312,1.);
#312 = DIRECTION('',(0.,-1.,0.));
#313 = ORIENTED_EDGE('',*,*,#314,.F.);
#314 = EDGE_CURVE('',#315,#307,#317,.T.);
#315 = VERTEX_POINT('',#316);
#316 = CARTESIAN_POINT('',(1.27,0.77,-0.5));
#317 = LINE('',#318,#319);
#318 = CARTESIAN_POINT('',(1.27,0.77,-0.5));
#319 = VECTOR('',#320,1.);
#320 = DIRECTION('',(0.,0.,1.));
#321 = ORIENTED_EDGE('',*,*,#322,.F.);
#322 = EDGE_CURVE('',#323,#315,#325,.T.);
#323 = VERTEX_POINT('',#324);
#324 = CARTESIAN_POINT('',(1.27,1.02,-0.5));
#325 = LINE('',#326,#327);
#326 = CARTESIAN_POINT('',(1.27,1.27,-0.5));
#327 = VECTOR('',#328,1.);
#328 = DIRECTION('',(0.,-1.,0.));
#329 = ORIENTED_EDGE('',*,*,#330,.F.);
#330 = EDGE_CURVE('',#66,#323,#331,.T.);
#331 = LINE('',#332,#333);
#332 = CARTESIAN_POINT('',(1.27,1.02,4.07));
#333 = VECTOR('',#334,1.);
#334 = DIRECTION('',(0.,0.,-1.));
#335 = PLANE('',#336);
#336 = AXIS2_PLACEMENT_3D('',#337,#338,#339);
#337 = CARTESIAN_POINT('',(1.27,0.,1.701885676741));
#338 = DIRECTION('',(1.,0.,0.));
#339 = DIRECTION('',(0.,0.,1.));
#340 = ADVANCED_FACE('',(#341),#359,.F.);
#341 = FACE_BOUND('',#342,.F.);
#342 = EDGE_LOOP('',(#343,#344,#345,#353));
#343 = ORIENTED_EDGE('',*,*,#89,.F.);
#344 = ORIENTED_EDGE('',*,*,#274,.T.);
#345 = ORIENTED_EDGE('',*,*,#346,.T.);
#346 = EDGE_CURVE('',#267,#347,#349,.T.);
#347 = VERTEX_POINT('',#348);
#348 = CARTESIAN_POINT('',(-1.02,1.27,-0.5));
#349 = LINE('',#350,#351);
#350 = CARTESIAN_POINT('',(-1.145,1.145,-0.5));
#351 = VECTOR('',#352,1.);
#352 = DIRECTION('',(0.707106781187,0.707106781187,0.));
#353 = ORIENTED_EDGE('',*,*,#354,.F.);
#354 = EDGE_CURVE('',#82,#347,#355,.T.);
#355 = LINE('',#356,#357);
#356 = CARTESIAN_POINT('',(-1.02,1.27,4.07));
#357 = VECTOR('',#358,1.);
#358 = DIRECTION('',(0.,0.,-1.));
#359 = PLANE('',#360);
#360 = AXIS2_PLACEMENT_3D('',#361,#362,#363);
#361 = CARTESIAN_POINT('',(-1.145,1.145,4.07));
#362 = DIRECTION('',(0.707106781187,-0.707106781187,0.));
#363 = DIRECTION('',(0.,0.,-1.));
#364 = ADVANCED_FACE('',(#365),#383,.T.);
#365 = FACE_BOUND('',#366,.T.);
#366 = EDGE_LOOP('',(#367,#368,#369,#377));
#367 = ORIENTED_EDGE('',*,*,#73,.F.);
#368 = ORIENTED_EDGE('',*,*,#330,.T.);
#369 = ORIENTED_EDGE('',*,*,#370,.T.);
#370 = EDGE_CURVE('',#323,#371,#373,.T.);
#371 = VERTEX_POINT('',#372);
#372 = CARTESIAN_POINT('',(1.02,1.27,-0.5));
#373 = LINE('',#374,#375);
#374 = CARTESIAN_POINT('',(0.51,1.78,-0.5));
#375 = VECTOR('',#376,1.);
#376 = DIRECTION('',(-0.707106781187,0.707106781187,0.));
#377 = ORIENTED_EDGE('',*,*,#378,.F.);
#378 = EDGE_CURVE('',#74,#371,#379,.T.);
#379 = LINE('',#380,#381);
#380 = CARTESIAN_POINT('',(1.02,1.27,4.07));
#381 = VECTOR('',#382,1.);
#382 = DIRECTION('',(0.,0.,-1.));
#383 = PLANE('',#384);
#384 = AXIS2_PLACEMENT_3D('',#385,#386,#387);
#385 = CARTESIAN_POINT('',(1.145,1.145,4.07));
#386 = DIRECTION('',(0.707106781187,0.707106781187,0.));
#387 = DIRECTION('',(0.,0.,-1.));
#388 = ADVANCED_FACE('',(#389),#400,.T.);
#389 = FACE_BOUND('',#390,.T.);
#390 = EDGE_LOOP('',(#391,#392,#393,#399));
#391 = ORIENTED_EDGE('',*,*,#81,.T.);
#392 = ORIENTED_EDGE('',*,*,#378,.T.);
#393 = ORIENTED_EDGE('',*,*,#394,.F.);
#394 = EDGE_CURVE('',#347,#371,#395,.T.);
#395 = LINE('',#396,#397);
#396 = CARTESIAN_POINT('',(-1.27,1.27,-0.5));
#397 = VECTOR('',#398,1.);
#398 = DIRECTION('',(1.,0.,0.));
#399 = ORIENTED_EDGE('',*,*,#354,.F.);
#400 = PLANE('',#401);
#401 = AXIS2_PLACEMENT_3D('',#402,#403,#404);
#402 = CARTESIAN_POINT('',(-1.27,1.27,4.07));
#403 = DIRECTION('',(0.,1.,0.));
#404 = DIRECTION('',(0.,0.,-1.));
#405 = ADVANCED_FACE('',(#406),#431,.F.);
#406 = FACE_BOUND('',#407,.T.);
#407 = EDGE_LOOP('',(#408,#416,#417,#425));
#408 = ORIENTED_EDGE('',*,*,#409,.F.);
#409 = EDGE_CURVE('',#114,#410,#412,.T.);
#410 = VERTEX_POINT('',#411);
#411 = CARTESIAN_POINT('',(0.35,0.35,0.87));
#412 = LINE('',#413,#414);
#413 = CARTESIAN_POINT('',(0.541666666667,0.541666666667,2.403333333333)
  );
#414 = VECTOR('',#415,1.);
#415 = DIRECTION('',(-0.123091490979,-0.123091490979,-0.984731927835));
#416 = ORIENTED_EDGE('',*,*,#113,.T.);
#417 = ORIENTED_EDGE('',*,*,#418,.T.);
#418 = EDGE_CURVE('',#116,#419,#421,.T.);
#419 = VERTEX_POINT('',#420);
#420 = CARTESIAN_POINT('',(-0.35,0.35,0.87));
#421 = LINE('',#422,#423);
#422 = CARTESIAN_POINT('',(-0.541666666667,0.541666666667,2.403333333333
    ));
#423 = VECTOR('',#424,1.);
#424 = DIRECTION('',(0.123091490979,-0.123091490979,-0.984731927835));
#425 = ORIENTED_EDGE('',*,*,#426,.F.);
#426 = EDGE_CURVE('',#410,#419,#427,.T.);
#427 = LINE('',#428,#429);
#428 = CARTESIAN_POINT('',(0.35,0.35,0.87));
#429 = VECTOR('',#430,1.);
#430 = DIRECTION('',(-1.,0.,0.));
#431 = PLANE('',#432);
#432 = AXIS2_PLACEMENT_3D('',#433,#434,#435);
#433 = CARTESIAN_POINT('',(0.35,0.55,2.47));
#434 = DIRECTION('',(7.290793267203E-18,0.992277876714,-0.124034734589)
  );
#435 = DIRECTION('',(1.,-7.234492862738E-18,9.043116078423E-19));
#436 = ADVANCED_FACE('',(#437),#455,.F.);
#437 = FACE_BOUND('',#438,.T.);
#438 = EDGE_LOOP('',(#439,#447,#448,#449));
#439 = ORIENTED_EDGE('',*,*,#440,.F.);
#440 = EDGE_CURVE('',#124,#441,#443,.T.);
#441 = VERTEX_POINT('',#442);
#442 = CARTESIAN_POINT('',(0.35,-0.35,0.87));
#443 = LINE('',#444,#445);
#444 = CARTESIAN_POINT('',(0.541666666667,-0.541666666667,2.403333333333
    ));
#445 = VECTOR('',#446,1.);
#446 = DIRECTION('',(-0.123091490979,0.123091490979,-0.984731927835));
#447 = ORIENTED_EDGE('',*,*,#123,.T.);
#448 = ORIENTED_EDGE('',*,*,#409,.T.);
#449 = ORIENTED_EDGE('',*,*,#450,.F.);
#450 = EDGE_CURVE('',#441,#410,#451,.T.);
#451 = LINE('',#452,#453);
#452 = CARTESIAN_POINT('',(0.35,-0.35,0.87));
#453 = VECTOR('',#454,1.);
#454 = DIRECTION('',(0.,1.,0.));
#455 = PLANE('',#456);
#456 = AXIS2_PLACEMENT_3D('',#457,#458,#459);
#457 = CARTESIAN_POINT('',(0.55,-0.35,2.47));
#458 = DIRECTION('',(0.992277876714,-7.290793267203E-18,-0.124034734589)
  );
#459 = DIRECTION('',(-7.234492862738E-18,-1.,9.043116078423E-19));
#460 = ADVANCED_FACE('',(#461),#479,.F.);
#461 = FACE_BOUND('',#462,.T.);
#462 = EDGE_LOOP('',(#463,#464,#465,#473));
#463 = ORIENTED_EDGE('',*,*,#418,.F.);
#464 = ORIENTED_EDGE('',*,*,#139,.T.);
#465 = ORIENTED_EDGE('',*,*,#466,.T.);
#466 = EDGE_CURVE('',#132,#467,#469,.T.);
#467 = VERTEX_POINT('',#468);
#468 = CARTESIAN_POINT('',(-0.35,-0.35,0.87));
#469 = LINE('',#470,#471);
#470 = CARTESIAN_POINT('',(-0.541666666667,-0.541666666667,
    2.403333333333));
#471 = VECTOR('',#472,1.);
#472 = DIRECTION('',(0.123091490979,0.123091490979,-0.984731927835));
#473 = ORIENTED_EDGE('',*,*,#474,.F.);
#474 = EDGE_CURVE('',#419,#467,#475,.T.);
#475 = LINE('',#476,#477);
#476 = CARTESIAN_POINT('',(-0.35,0.35,0.87));
#477 = VECTOR('',#478,1.);
#478 = DIRECTION('',(0.,-1.,0.));
#479 = PLANE('',#480);
#480 = AXIS2_PLACEMENT_3D('',#481,#482,#483);
#481 = CARTESIAN_POINT('',(-0.55,0.35,2.47));
#482 = DIRECTION('',(-0.992277876714,0.,-0.124034734589));
#483 = DIRECTION('',(0.,1.,0.));
#484 = ADVANCED_FACE('',(#485),#496,.F.);
#485 = FACE_BOUND('',#486,.T.);
#486 = EDGE_LOOP('',(#487,#488,#489,#490));
#487 = ORIENTED_EDGE('',*,*,#466,.F.);
#488 = ORIENTED_EDGE('',*,*,#131,.T.);
#489 = ORIENTED_EDGE('',*,*,#440,.T.);
#490 = ORIENTED_EDGE('',*,*,#491,.F.);
#491 = EDGE_CURVE('',#467,#441,#492,.T.);
#492 = LINE('',#493,#494);
#493 = CARTESIAN_POINT('',(-0.35,-0.35,0.87));
#494 = VECTOR('',#495,1.);
#495 = DIRECTION('',(1.,0.,0.));
#496 = PLANE('',#497);
#497 = AXIS2_PLACEMENT_3D('',#498,#499,#500);
#498 = CARTESIAN_POINT('',(-0.35,-0.55,2.47));
#499 = DIRECTION('',(0.,-0.992277876714,-0.124034734589));
#500 = DIRECTION('',(-1.,-0.,-0.));
#501 = ADVANCED_FACE('',(#502),#515,.T.);
#502 = FACE_BOUND('',#503,.T.);
#503 = EDGE_LOOP('',(#504,#505,#506,#507,#513,#514));
#504 = ORIENTED_EDGE('',*,*,#153,.F.);
#505 = ORIENTED_EDGE('',*,*,#184,.T.);
#506 = ORIENTED_EDGE('',*,*,#234,.F.);
#507 = ORIENTED_EDGE('',*,*,#508,.T.);
#508 = EDGE_CURVE('',#235,#291,#509,.T.);
#509 = LINE('',#510,#511);
#510 = CARTESIAN_POINT('',(-1.27,-0.77,-0.5));
#511 = VECTOR('',#512,1.);
#512 = DIRECTION('',(1.,0.,0.));
#513 = ORIENTED_EDGE('',*,*,#290,.T.);
#514 = ORIENTED_EDGE('',*,*,#208,.F.);
#515 = PLANE('',#516);
#516 = AXIS2_PLACEMENT_3D('',#517,#518,#519);
#517 = CARTESIAN_POINT('',(-1.27,-0.77,-0.5));
#518 = DIRECTION('',(0.,0.,-1.));
#519 = DIRECTION('',(0.,-1.,0.));
#520 = ADVANCED_FACE('',(#521),#534,.T.);
#521 = FACE_BOUND('',#522,.T.);
#522 = EDGE_LOOP('',(#523,#524,#525,#526,#532,#533));
#523 = ORIENTED_EDGE('',*,*,#394,.T.);
#524 = ORIENTED_EDGE('',*,*,#370,.F.);
#525 = ORIENTED_EDGE('',*,*,#322,.T.);
#526 = ORIENTED_EDGE('',*,*,#527,.F.);
#527 = EDGE_CURVE('',#259,#315,#528,.T.);
#528 = LINE('',#529,#530);
#529 = CARTESIAN_POINT('',(-1.27,0.77,-0.5));
#530 = VECTOR('',#531,1.);
#531 = DIRECTION('',(1.,0.,0.));
#532 = ORIENTED_EDGE('',*,*,#266,.F.);
#533 = ORIENTED_EDGE('',*,*,#346,.T.);
#534 = PLANE('',#535);
#535 = AXIS2_PLACEMENT_3D('',#536,#537,#538);
#536 = CARTESIAN_POINT('',(-1.27,1.27,-0.5));
#537 = DIRECTION('',(0.,0.,-1.));
#538 = DIRECTION('',(0.,-1.,0.));
#539 = ADVANCED_FACE('',(#540),#551,.T.);
#540 = FACE_BOUND('',#541,.T.);
#541 = EDGE_LOOP('',(#542,#548,#549,#550));
#542 = ORIENTED_EDGE('',*,*,#543,.T.);
#543 = EDGE_CURVE('',#243,#299,#544,.T.);
#544 = LINE('',#545,#546);
#545 = CARTESIAN_POINT('',(-1.27,-0.77,0.));
#546 = VECTOR('',#547,1.);
#547 = DIRECTION('',(1.,0.,0.));
#548 = ORIENTED_EDGE('',*,*,#298,.T.);
#549 = ORIENTED_EDGE('',*,*,#508,.F.);
#550 = ORIENTED_EDGE('',*,*,#242,.F.);
#551 = PLANE('',#552);
#552 = AXIS2_PLACEMENT_3D('',#553,#554,#555);
#553 = CARTESIAN_POINT('',(-1.27,-0.77,0.));
#554 = DIRECTION('',(0.,1.,0.));
#555 = DIRECTION('',(0.,0.,-1.));
#556 = ADVANCED_FACE('',(#557),#568,.T.);
#557 = FACE_BOUND('',#558,.T.);
#558 = EDGE_LOOP('',(#559,#560,#561,#567));
#559 = ORIENTED_EDGE('',*,*,#527,.T.);
#560 = ORIENTED_EDGE('',*,*,#314,.T.);
#561 = ORIENTED_EDGE('',*,*,#562,.F.);
#562 = EDGE_CURVE('',#251,#307,#563,.T.);
#563 = LINE('',#564,#565);
#564 = CARTESIAN_POINT('',(-1.27,0.77,0.));
#565 = VECTOR('',#566,1.);
#566 = DIRECTION('',(1.,0.,0.));
#567 = ORIENTED_EDGE('',*,*,#258,.F.);
#568 = PLANE('',#569);
#569 = AXIS2_PLACEMENT_3D('',#570,#571,#572);
#570 = CARTESIAN_POINT('',(-1.27,0.77,-0.5));
#571 = DIRECTION('',(0.,-1.,0.));
#572 = DIRECTION('',(0.,0.,1.));
#573 = ADVANCED_FACE('',(#574),#580,.T.);
#574 = FACE_BOUND('',#575,.T.);
#575 = EDGE_LOOP('',(#576,#577,#578,#579));
#576 = ORIENTED_EDGE('',*,*,#562,.T.);
#577 = ORIENTED_EDGE('',*,*,#306,.T.);
#578 = ORIENTED_EDGE('',*,*,#543,.F.);
#579 = ORIENTED_EDGE('',*,*,#250,.F.);
#580 = PLANE('',#581);
#581 = AXIS2_PLACEMENT_3D('',#582,#583,#584);
#582 = CARTESIAN_POINT('',(-1.27,0.77,0.));
#583 = DIRECTION('',(0.,0.,-1.));
#584 = DIRECTION('',(0.,-1.,0.));
#585 = ADVANCED_FACE('',(#586),#611,.F.);
#586 = FACE_BOUND('',#587,.F.);
#587 = EDGE_LOOP('',(#588,#596,#604,#610));
#588 = ORIENTED_EDGE('',*,*,#589,.T.);
#589 = EDGE_CURVE('',#410,#590,#592,.T.);
#590 = VERTEX_POINT('',#591);
#591 = CARTESIAN_POINT('',(0.35,0.35,0.47));
#592 = LINE('',#593,#594);
#593 = CARTESIAN_POINT('',(0.35,0.35,4.07));
#594 = VECTOR('',#595,1.);
#595 = DIRECTION('',(-0.,-0.,-1.));
#596 = ORIENTED_EDGE('',*,*,#597,.T.);
#597 = EDGE_CURVE('',#590,#598,#600,.T.);
#598 = VERTEX_POINT('',#599);
#599 = CARTESIAN_POINT('',(-0.35,0.35,0.47));
#600 = LINE('',#601,#602);
#601 = CARTESIAN_POINT('',(0.35,0.35,0.47));
#602 = VECTOR('',#603,1.);
#603 = DIRECTION('',(-1.,0.,0.));
#604 = ORIENTED_EDGE('',*,*,#605,.F.);
#605 = EDGE_CURVE('',#419,#598,#606,.T.);
#606 = LINE('',#607,#608);
#607 = CARTESIAN_POINT('',(-0.35,0.35,4.07));
#608 = VECTOR('',#609,1.);
#609 = DIRECTION('',(-0.,-0.,-1.));
#610 = ORIENTED_EDGE('',*,*,#426,.F.);
#611 = PLANE('',#612);
#612 = AXIS2_PLACEMENT_3D('',#613,#614,#615);
#613 = CARTESIAN_POINT('',(0.35,0.35,4.07));
#614 = DIRECTION('',(0.,1.,0.));
#615 = DIRECTION('',(-1.,0.,0.));
#616 = ADVANCED_FACE('',(#617),#635,.F.);
#617 = FACE_BOUND('',#618,.F.);
#618 = EDGE_LOOP('',(#619,#627,#633,#634));
#619 = ORIENTED_EDGE('',*,*,#620,.T.);
#620 = EDGE_CURVE('',#441,#621,#623,.T.);
#621 = VERTEX_POINT('',#622);
#622 = CARTESIAN_POINT('',(0.35,-0.35,0.47));
#623 = LINE('',#624,#625);
#624 = CARTESIAN_POINT('',(0.35,-0.35,4.07));
#625 = VECTOR('',#626,1.);
#626 = DIRECTION('',(-0.,-0.,-1.));
#627 = ORIENTED_EDGE('',*,*,#628,.T.);
#628 = EDGE_CURVE('',#621,#590,#629,.T.);
#629 = LINE('',#630,#631);
#630 = CARTESIAN_POINT('',(0.35,-0.35,0.47));
#631 = VECTOR('',#632,1.);
#632 = DIRECTION('',(0.,1.,0.));
#633 = ORIENTED_EDGE('',*,*,#589,.F.);
#634 = ORIENTED_EDGE('',*,*,#450,.F.);
#635 = PLANE('',#636);
#636 = AXIS2_PLACEMENT_3D('',#637,#638,#639);
#637 = CARTESIAN_POINT('',(0.35,-0.35,4.07));
#638 = DIRECTION('',(1.,0.,0.));
#639 = DIRECTION('',(0.,1.,0.));
#640 = ADVANCED_FACE('',(#641),#659,.F.);
#641 = FACE_BOUND('',#642,.F.);
#642 = EDGE_LOOP('',(#643,#644,#652,#658));
#643 = ORIENTED_EDGE('',*,*,#605,.T.);
#644 = ORIENTED_EDGE('',*,*,#645,.T.);
#645 = EDGE_CURVE('',#598,#646,#648,.T.);
#646 = VERTEX_POINT('',#647);
#647 = CARTESIAN_POINT('',(-0.35,-0.35,0.47));
#648 = LINE('',#649,#650);
#649 = CARTESIAN_POINT('',(-0.35,0.35,0.47));
#650 = VECTOR('',#651,1.);
#651 = DIRECTION('',(0.,-1.,0.));
#652 = ORIENTED_EDGE('',*,*,#653,.F.);
#653 = EDGE_CURVE('',#467,#646,#654,.T.);
#654 = LINE('',#655,#656);
#655 = CARTESIAN_POINT('',(-0.35,-0.35,4.07));
#656 = VECTOR('',#657,1.);
#657 = DIRECTION('',(-0.,-0.,-1.));
#658 = ORIENTED_EDGE('',*,*,#474,.F.);
#659 = PLANE('',#660);
#660 = AXIS2_PLACEMENT_3D('',#661,#662,#663);
#661 = CARTESIAN_POINT('',(-0.35,0.35,4.07));
#662 = DIRECTION('',(-1.,0.,0.));
#663 = DIRECTION('',(0.,-1.,0.));
#664 = ADVANCED_FACE('',(#665),#676,.F.);
#665 = FACE_BOUND('',#666,.F.);
#666 = EDGE_LOOP('',(#667,#668,#674,#675));
#667 = ORIENTED_EDGE('',*,*,#653,.T.);
#668 = ORIENTED_EDGE('',*,*,#669,.T.);
#669 = EDGE_CURVE('',#646,#621,#670,.T.);
#670 = LINE('',#671,#672);
#671 = CARTESIAN_POINT('',(-0.35,-0.35,0.47));
#672 = VECTOR('',#673,1.);
#673 = DIRECTION('',(1.,0.,0.));
#674 = ORIENTED_EDGE('',*,*,#620,.F.);
#675 = ORIENTED_EDGE('',*,*,#491,.F.);
#676 = PLANE('',#677);
#677 = AXIS2_PLACEMENT_3D('',#678,#679,#680);
#678 = CARTESIAN_POINT('',(-0.35,-0.35,4.07));
#679 = DIRECTION('',(0.,-1.,0.));
#680 = DIRECTION('',(1.,0.,0.));
#681 = ADVANCED_FACE('',(#682),#688,.T.);
#682 = FACE_BOUND('',#683,.T.);
#683 = EDGE_LOOP('',(#684,#685,#686,#687));
#684 = ORIENTED_EDGE('',*,*,#645,.T.);
#685 = ORIENTED_EDGE('',*,*,#669,.T.);
#686 = ORIENTED_EDGE('',*,*,#628,.T.);
#687 = ORIENTED_EDGE('',*,*,#597,.T.);
#688 = PLANE('',#689);
#689 = AXIS2_PLACEMENT_3D('',#690,#691,#692);
#690 = CARTESIAN_POINT('',(9.91270557701E-18,9.91270557701E-18,0.47));
#691 = DIRECTION('',(0.,0.,1.));
#692 = DIRECTION('',(1.,0.,0.));
#693 = ( GEOMETRIC_REPRESENTATION_CONTEXT(3) 
GLOBAL_UNCERTAINTY_ASSIGNED_CONTEXT((#697)) GLOBAL_UNIT_ASSIGNED_CONTEXT
((#694,#695,#696)) REPRESENTATION_CONTEXT('Context #1',
  '3D Context with UNIT and UNCERTAINTY') );
#694 = ( LENGTH_UNIT() NAMED_UNIT(*) SI_UNIT(.MILLI.,.METRE.) );
#695 = ( NAMED_UNIT(*) PLANE_ANGLE_UNIT() SI_UNIT($,.RADIAN.) );
#696 = ( NAMED_UNIT(*) SI_UNIT($,.STERADIAN.) SOLID_ANGLE_UNIT() );
#697 = UNCERTAINTY_MEASURE_WITH_UNIT(LENGTH_MEASURE(1.E-07),#694,
  'distance_accuracy_value','confusion accuracy');
#698 = CONTEXT_DEPENDENT_SHAPE_REPRESENTATION(#699,#701);
#699 = ( REPRESENTATION_RELATIONSHIP('','',#40,#10) 
REPRESENTATION_RELATIONSHIP_WITH_TRANSFORMATION(#700) 
SHAPE_REPRESENTATION_RELATIONSHIP() );
#700 = ITEM_DEFINED_TRANSFORMATION('','',#11,#15);
#701 = PRODUCT_DEFINITION_SHAPE('Placement','Placement of an item',#702
  );
#702 = NEXT_ASSEMBLY_USAGE_OCCURRENCE('4','Chamfer001','',#5,#35,$);
#703 = PRODUCT_RELATED_PRODUCT_CATEGORY('part',$,(#37));
#704 = SHAPE_DEFINITION_REPRESENTATION(#705,#711);
#705 = PRODUCT_DEFINITION_SHAPE('','',#706);
#706 = PRODUCT_DEFINITION('design','',#707,#710);
#707 = PRODUCT_DEFINITION_FORMATION('','',#708);
#708 = PRODUCT('Chamfer002','Chamfer002','',(#709));
#709 = PRODUCT_CONTEXT('',#2,'mechanical');
#710 = PRODUCT_DEFINITION_CONTEXT('part definition',#2,'design');
#711 = ADVANCED_BREP_SHAPE_REPRESENTATION('',(#11,#712),#958);
#712 = MANIFOLD_SOLID_BREP('',#713);
#713 = CLOSED_SHELL('',(#714,#754,#785,#816,#840,#864,#888,#905,#929,
    #946));
#714 = ADVANCED_FACE('',(#715),#749,.F.);
#715 = FACE_BOUND('',#716,.F.);
#716 = EDGE_LOOP('',(#717,#727,#735,#743));
#717 = ORIENTED_EDGE('',*,*,#718,.F.);
#718 = EDGE_CURVE('',#719,#721,#723,.T.);
#719 = VERTEX_POINT('',#720);
#720 = CARTESIAN_POINT('',(-0.316187,0.205,-4.551914400963E-17));
#721 = VERTEX_POINT('',#722);
#722 = CARTESIAN_POINT('',(-0.316187,0.205,-2.77));
#723 = LINE('',#724,#725);
#724 = CARTESIAN_POINT('',(-0.316187,0.205,-4.551914400963E-17));
#725 = VECTOR('',#726,1.);
#726 = DIRECTION('',(0.,-2.22044604925E-16,-1.));
#727 = ORIENTED_EDGE('',*,*,#728,.T.);
#728 = EDGE_CURVE('',#719,#729,#731,.T.);
#729 = VERTEX_POINT('',#730);
#730 = CARTESIAN_POINT('',(-0.316187,-0.205,4.551914400963E-17));
#731 = LINE('',#732,#733);
#732 = CARTESIAN_POINT('',(-0.316187,0.205,-4.551914400963E-17));
#733 = VECTOR('',#734,1.);
#734 = DIRECTION('',(0.,-1.,2.22044604925E-16));
#735 = ORIENTED_EDGE('',*,*,#736,.T.);
#736 = EDGE_CURVE('',#729,#737,#739,.T.);
#737 = VERTEX_POINT('',#738);
#738 = CARTESIAN_POINT('',(-0.316187,-0.205,-2.77));
#739 = LINE('',#740,#741);
#740 = CARTESIAN_POINT('',(-0.316187,-0.205,4.551914400963E-17));
#741 = VECTOR('',#742,1.);
#742 = DIRECTION('',(0.,-2.22044604925E-16,-1.));
#743 = ORIENTED_EDGE('',*,*,#744,.F.);
#744 = EDGE_CURVE('',#721,#737,#745,.T.);
#745 = LINE('',#746,#747);
#746 = CARTESIAN_POINT('',(-0.316187,0.205,-2.77));
#747 = VECTOR('',#748,1.);
#748 = DIRECTION('',(0.,-1.,2.22044604925E-16));
#749 = PLANE('',#750);
#750 = AXIS2_PLACEMENT_3D('',#751,#752,#753);
#751 = CARTESIAN_POINT('',(-0.316187,0.205,-4.551914400963E-17));
#752 = DIRECTION('',(1.,0.,0.));
#753 = DIRECTION('',(0.,-2.22044604925E-16,-1.));
#754 = ADVANCED_FACE('',(#755),#780,.T.);
#755 = FACE_BOUND('',#756,.T.);
#756 = EDGE_LOOP('',(#757,#758,#766,#774));
#757 = ORIENTED_EDGE('',*,*,#718,.F.);
#758 = ORIENTED_EDGE('',*,*,#759,.F.);
#759 = EDGE_CURVE('',#760,#719,#762,.T.);
#760 = VERTEX_POINT('',#761);
#761 = CARTESIAN_POINT('',(0.32,0.205,-4.551914400963E-17));
#762 = LINE('',#763,#764);
#763 = CARTESIAN_POINT('',(0.32,0.205,-4.551914400963E-17));
#764 = VECTOR('',#765,1.);
#765 = DIRECTION('',(-1.,0.,0.));
#766 = ORIENTED_EDGE('',*,*,#767,.F.);
#767 = EDGE_CURVE('',#768,#760,#770,.T.);
#768 = VERTEX_POINT('',#769);
#769 = CARTESIAN_POINT('',(0.32,0.205,-2.77));
#770 = LINE('',#771,#772);
#771 = CARTESIAN_POINT('',(0.32,0.205,-2.92));
#772 = VECTOR('',#773,1.);
#773 = DIRECTION('',(0.,2.22044604925E-16,1.));
#774 = ORIENTED_EDGE('',*,*,#775,.F.);
#775 = EDGE_CURVE('',#721,#768,#776,.T.);
#776 = LINE('',#777,#778);
#777 = CARTESIAN_POINT('',(-0.316187,0.205,-2.77));
#778 = VECTOR('',#779,1.);
#779 = DIRECTION('',(1.,0.,0.));
#780 = PLANE('',#781);
#781 = AXIS2_PLACEMENT_3D('',#782,#783,#784);
#782 = CARTESIAN_POINT('',(1.9065E-03,0.205,-1.46));
#783 = DIRECTION('',(0.,1.,0.));
#784 = DIRECTION('',(0.,0.,1.));
#785 = ADVANCED_FACE('',(#786),#811,.T.);
#786 = FACE_BOUND('',#787,.F.);
#787 = EDGE_LOOP('',(#788,#796,#797,#805));
#788 = ORIENTED_EDGE('',*,*,#789,.F.);
#789 = EDGE_CURVE('',#721,#790,#792,.T.);
#790 = VERTEX_POINT('',#791);
#791 = CARTESIAN_POINT('',(-0.166187,5.5E-02,-2.92));
#792 = LINE('',#793,#794);
#793 = CARTESIAN_POINT('',(-0.266187,0.155,-2.82));
#794 = VECTOR('',#795,1.);
#795 = DIRECTION('',(0.57735026919,-0.57735026919,-0.57735026919));
#796 = ORIENTED_EDGE('',*,*,#744,.T.);
#797 = ORIENTED_EDGE('',*,*,#798,.F.);
#798 = EDGE_CURVE('',#799,#737,#801,.T.);
#799 = VERTEX_POINT('',#800);
#800 = CARTESIAN_POINT('',(-0.166187,-5.5E-02,-2.92));
#801 = LINE('',#802,#803);
#802 = CARTESIAN_POINT('',(-0.197853666667,-8.666666666667E-02,
    -2.888333333333));
#803 = VECTOR('',#804,1.);
#804 = DIRECTION('',(-0.57735026919,-0.57735026919,0.57735026919));
#805 = ORIENTED_EDGE('',*,*,#806,.F.);
#806 = EDGE_CURVE('',#790,#799,#807,.T.);
#807 = LINE('',#808,#809);
#808 = CARTESIAN_POINT('',(-0.166187,0.205,-2.92));
#809 = VECTOR('',#810,1.);
#810 = DIRECTION('',(0.,-1.,2.22044604925E-16));
#811 = PLANE('',#812);
#812 = AXIS2_PLACEMENT_3D('',#813,#814,#815);
#813 = CARTESIAN_POINT('',(-0.241187,0.205,-2.845));
#814 = DIRECTION('',(-0.707106781187,-1.561602370373E-16,-0.707106781187
    ));
#815 = DIRECTION('',(6.003399017612E-19,1.,-2.214442650233E-16));
#816 = ADVANCED_FACE('',(#817),#835,.F.);
#817 = FACE_BOUND('',#818,.F.);
#818 = EDGE_LOOP('',(#819,#827,#833,#834));
#819 = ORIENTED_EDGE('',*,*,#820,.T.);
#820 = EDGE_CURVE('',#760,#821,#823,.T.);
#821 = VERTEX_POINT('',#822);
#822 = CARTESIAN_POINT('',(0.32,-0.205,4.551914400963E-17));
#823 = LINE('',#824,#825);
#824 = CARTESIAN_POINT('',(0.32,0.205,-4.551914400963E-17));
#825 = VECTOR('',#826,1.);
#826 = DIRECTION('',(0.,-1.,2.22044604925E-16));
#827 = ORIENTED_EDGE('',*,*,#828,.T.);
#828 = EDGE_CURVE('',#821,#729,#829,.T.);
#829 = LINE('',#830,#831);
#830 = CARTESIAN_POINT('',(0.32,-0.205,4.551914400963E-17));
#831 = VECTOR('',#832,1.);
#832 = DIRECTION('',(-1.,0.,0.));
#833 = ORIENTED_EDGE('',*,*,#728,.F.);
#834 = ORIENTED_EDGE('',*,*,#759,.F.);
#835 = PLANE('',#836);
#836 = AXIS2_PLACEMENT_3D('',#837,#838,#839);
#837 = CARTESIAN_POINT('',(0.32,0.205,-4.551914400963E-17));
#838 = DIRECTION('',(-0.,-2.22044604925E-16,-1.));
#839 = DIRECTION('',(-1.,0.,0.));
#840 = ADVANCED_FACE('',(#841),#859,.F.);
#841 = FACE_BOUND('',#842,.F.);
#842 = EDGE_LOOP('',(#843,#844,#845,#853));
#843 = ORIENTED_EDGE('',*,*,#736,.F.);
#844 = ORIENTED_EDGE('',*,*,#828,.F.);
#845 = ORIENTED_EDGE('',*,*,#846,.F.);
#846 = EDGE_CURVE('',#847,#821,#849,.T.);
#847 = VERTEX_POINT('',#848);
#848 = CARTESIAN_POINT('',(0.32,-0.205,-2.77));
#849 = LINE('',#850,#851);
#850 = CARTESIAN_POINT('',(0.32,-0.205,-2.92));
#851 = VECTOR('',#852,1.);
#852 = DIRECTION('',(0.,2.22044604925E-16,1.));
#853 = ORIENTED_EDGE('',*,*,#854,.F.);
#854 = EDGE_CURVE('',#737,#847,#855,.T.);
#855 = LINE('',#856,#857);
#856 = CARTESIAN_POINT('',(-0.316187,-0.205,-2.77));
#857 = VECTOR('',#858,1.);
#858 = DIRECTION('',(1.,0.,0.));
#859 = PLANE('',#860);
#860 = AXIS2_PLACEMENT_3D('',#861,#862,#863);
#861 = CARTESIAN_POINT('',(1.9065E-03,-0.205,-1.46));
#862 = DIRECTION('',(0.,1.,0.));
#863 = DIRECTION('',(0.,0.,1.));
#864 = ADVANCED_FACE('',(#865),#883,.F.);
#865 = FACE_BOUND('',#866,.F.);
#866 = EDGE_LOOP('',(#867,#868,#876,#882));
#867 = ORIENTED_EDGE('',*,*,#789,.T.);
#868 = ORIENTED_EDGE('',*,*,#869,.T.);
#869 = EDGE_CURVE('',#790,#870,#872,.T.);
#870 = VERTEX_POINT('',#871);
#871 = CARTESIAN_POINT('',(0.17,5.5E-02,-2.92));
#872 = LINE('',#873,#874);
#873 = CARTESIAN_POINT('',(-0.316187,5.5E-02,-2.92));
#874 = VECTOR('',#875,1.);
#875 = DIRECTION('',(1.,0.,0.));
#876 = ORIENTED_EDGE('',*,*,#877,.T.);
#877 = EDGE_CURVE('',#870,#768,#878,.T.);
#878 = LINE('',#879,#880);
#879 = CARTESIAN_POINT('',(0.163968833333,4.896883333333E-02,
    -2.926031166667));
#880 = VECTOR('',#881,1.);
#881 = DIRECTION('',(0.57735026919,0.57735026919,0.57735026919));
#882 = ORIENTED_EDGE('',*,*,#775,.F.);
#883 = PLANE('',#884);
#884 = AXIS2_PLACEMENT_3D('',#885,#886,#887);
#885 = CARTESIAN_POINT('',(-0.316187,0.13,-2.845));
#886 = DIRECTION('',(0.,-0.707106781187,0.707106781187));
#887 = DIRECTION('',(1.,0.,0.));
#888 = ADVANCED_FACE('',(#889),#900,.F.);
#889 = FACE_BOUND('',#890,.F.);
#890 = EDGE_LOOP('',(#891,#892,#898,#899));
#891 = ORIENTED_EDGE('',*,*,#767,.F.);
#892 = ORIENTED_EDGE('',*,*,#893,.T.);
#893 = EDGE_CURVE('',#768,#847,#894,.T.);
#894 = LINE('',#895,#896);
#895 = CARTESIAN_POINT('',(0.32,0.205,-2.77));
#896 = VECTOR('',#897,1.);
#897 = DIRECTION('',(0.,-1.,2.22044604925E-16));
#898 = ORIENTED_EDGE('',*,*,#846,.T.);
#899 = ORIENTED_EDGE('',*,*,#820,.F.);
#900 = PLANE('',#901);
#901 = AXIS2_PLACEMENT_3D('',#902,#903,#904);
#902 = CARTESIAN_POINT('',(0.32,0.205,-2.92));
#903 = DIRECTION('',(-1.,0.,0.));
#904 = DIRECTION('',(0.,2.22044604925E-16,1.));
#905 = ADVANCED_FACE('',(#906),#924,.F.);
#906 = FACE_BOUND('',#907,.F.);
#907 = EDGE_LOOP('',(#908,#916,#917,#918));
#908 = ORIENTED_EDGE('',*,*,#909,.F.);
#909 = EDGE_CURVE('',#870,#910,#912,.T.);
#910 = VERTEX_POINT('',#911);
#911 = CARTESIAN_POINT('',(0.17,-5.5E-02,-2.92));
#912 = LINE('',#913,#914);
#913 = CARTESIAN_POINT('',(0.17,0.205,-2.92));
#914 = VECTOR('',#915,1.);
#915 = DIRECTION('',(0.,-1.,2.22044604925E-16));
#916 = ORIENTED_EDGE('',*,*,#869,.F.);
#917 = ORIENTED_EDGE('',*,*,#806,.T.);
#918 = ORIENTED_EDGE('',*,*,#919,.T.);
#919 = EDGE_CURVE('',#799,#910,#920,.T.);
#920 = LINE('',#921,#922);
#921 = CARTESIAN_POINT('',(-0.316187,-5.5E-02,-2.92));
#922 = VECTOR('',#923,1.);
#923 = DIRECTION('',(1.,0.,0.));
#924 = PLANE('',#925);
#925 = AXIS2_PLACEMENT_3D('',#926,#927,#928);
#926 = CARTESIAN_POINT('',(-0.316187,0.205,-2.92));
#927 = DIRECTION('',(0.,2.22044604925E-16,1.));
#928 = DIRECTION('',(1.,0.,0.));
#929 = ADVANCED_FACE('',(#930),#941,.T.);
#930 = FACE_BOUND('',#931,.T.);
#931 = EDGE_LOOP('',(#932,#933,#934,#940));
#932 = ORIENTED_EDGE('',*,*,#798,.F.);
#933 = ORIENTED_EDGE('',*,*,#919,.T.);
#934 = ORIENTED_EDGE('',*,*,#935,.T.);
#935 = EDGE_CURVE('',#910,#847,#936,.T.);
#936 = LINE('',#937,#938);
#937 = CARTESIAN_POINT('',(9.56355E-02,1.93645E-02,-2.9943645));
#938 = VECTOR('',#939,1.);
#939 = DIRECTION('',(0.57735026919,-0.57735026919,0.57735026919));
#940 = ORIENTED_EDGE('',*,*,#854,.F.);
#941 = PLANE('',#942);
#942 = AXIS2_PLACEMENT_3D('',#943,#944,#945);
#943 = CARTESIAN_POINT('',(-0.316187,-0.13,-2.845));
#944 = DIRECTION('',(0.,-0.707106781187,-0.707106781187));
#945 = DIRECTION('',(1.,0.,0.));
#946 = ADVANCED_FACE('',(#947),#953,.T.);
#947 = FACE_BOUND('',#948,.F.);
#948 = EDGE_LOOP('',(#949,#950,#951,#952));
#949 = ORIENTED_EDGE('',*,*,#877,.F.);
#950 = ORIENTED_EDGE('',*,*,#909,.T.);
#951 = ORIENTED_EDGE('',*,*,#935,.T.);
#952 = ORIENTED_EDGE('',*,*,#893,.F.);
#953 = PLANE('',#954);
#954 = AXIS2_PLACEMENT_3D('',#955,#956,#957);
#955 = CARTESIAN_POINT('',(0.245,0.205,-2.845));
#956 = DIRECTION('',(0.707106781187,-1.578953507821E-16,-0.707106781187)
  );
#957 = DIRECTION('',(6.265707933583E-19,1.,-2.226711757184E-16));
#958 = ( GEOMETRIC_REPRESENTATION_CONTEXT(3) 
GLOBAL_UNCERTAINTY_ASSIGNED_CONTEXT((#962)) GLOBAL_UNIT_ASSIGNED_CONTEXT
((#959,#960,#961)) REPRESENTATION_CONTEXT('Context #1',
  '3D Context with UNIT and UNCERTAINTY') );
#959 = ( LENGTH_UNIT() NAMED_UNIT(*) SI_UNIT(.MILLI.,.METRE.) );
#960 = ( NAMED_UNIT(*) PLANE_ANGLE_UNIT() SI_UNIT($,.RADIAN.) );
#961 = ( NAMED_UNIT(*) SI_UNIT($,.STERADIAN.) SOLID_ANGLE_UNIT() );
#962 = UNCERTAINTY_MEASURE_WITH_UNIT(LENGTH_MEASURE(1.E-07),#959,
  'distance_accuracy_value','confusion accuracy');
#963 = CONTEXT_DEPENDENT_SHAPE_REPRESENTATION(#964,#966);
#964 = ( REPRESENTATION_RELATIONSHIP('','',#711,#10) 
REPRESENTATION_RELATIONSHIP_WITH_TRANSFORMATION(#965) 
SHAPE_REPRESENTATION_RELATIONSHIP() );
#965 = ITEM_DEFINED_TRANSFORMATION('','',#11,#19);
#966 = PRODUCT_DEFINITION_SHAPE('Placement','Placement of an item',#967
  );
#967 = NEXT_ASSEMBLY_USAGE_OCCURRENCE('5','Chamfer002','',#5,#706,$);
#968 = PRODUCT_RELATED_PRODUCT_CATEGORY('part',$,(#708));
#969 = SHAPE_DEFINITION_REPRESENTATION(#970,#976);
#970 = PRODUCT_DEFINITION_SHAPE('','',#971);
#971 = PRODUCT_DEFINITION('design','',#972,#975);
#972 = PRODUCT_DEFINITION_FORMATION('','',#973);
#973 = PRODUCT('BODY','BODY','',(#974));
#974 = PRODUCT_CONTEXT('',#2,'mechanical');
#975 = PRODUCT_DEFINITION_CONTEXT('part definition',#2,'design');
#976 = ADVANCED_BREP_SHAPE_REPRESENTATION('',(#11,#977),#1629);
#977 = MANIFOLD_SOLID_BREP('',#978);
#978 = CLOSED_SHELL('',(#979,#1085,#1116,#1140,#1164,#1220,#1276,#1300,
    #1324,#1341,#1372,#1396,#1420,#1437,#1456,#1475,#1492,#1509,#1521,
    #1552,#1576,#1600,#1617));
#979 = ADVANCED_FACE('',(#980,#1046),#1080,.T.);
#980 = FACE_BOUND('',#981,.T.);
#981 = EDGE_LOOP('',(#982,#992,#1000,#1008,#1016,#1024,#1032,#1040));
#982 = ORIENTED_EDGE('',*,*,#983,.T.);
#983 = EDGE_CURVE('',#984,#986,#988,.T.);
#984 = VERTEX_POINT('',#985);
#985 = CARTESIAN_POINT('',(-1.02,-1.27,4.07));
#986 = VERTEX_POINT('',#987);
#987 = CARTESIAN_POINT('',(1.02,-1.27,4.07));
#988 = LINE('',#989,#990);
#989 = CARTESIAN_POINT('',(-1.27,-1.27,4.07));
#990 = VECTOR('',#991,1.);
#991 = DIRECTION('',(1.,0.,0.));
#992 = ORIENTED_EDGE('',*,*,#993,.T.);
#993 = EDGE_CURVE('',#986,#994,#996,.T.);
#994 = VERTEX_POINT('',#995);
#995 = CARTESIAN_POINT('',(1.27,-1.02,4.07));
#996 = LINE('',#997,#998);
#997 = CARTESIAN_POINT('',(0.51,-1.78,4.07));
#998 = VECTOR('',#999,1.);
#999 = DIRECTION('',(0.707106781187,0.707106781187,0.));
#1000 = ORIENTED_EDGE('',*,*,#1001,.T.);
#1001 = EDGE_CURVE('',#994,#1002,#1004,.T.);
#1002 = VERTEX_POINT('',#1003);
#1003 = CARTESIAN_POINT('',(1.27,1.02,4.07));
#1004 = LINE('',#1005,#1006);
#1005 = CARTESIAN_POINT('',(1.27,-1.27,4.07));
#1006 = VECTOR('',#1007,1.);
#1007 = DIRECTION('',(0.,1.,0.));
#1008 = ORIENTED_EDGE('',*,*,#1009,.T.);
#1009 = EDGE_CURVE('',#1002,#1010,#1012,.T.);
#1010 = VERTEX_POINT('',#1011);
#1011 = CARTESIAN_POINT('',(1.02,1.27,4.07));
#1012 = LINE('',#1013,#1014);
#1013 = CARTESIAN_POINT('',(1.145,1.145,4.07));
#1014 = VECTOR('',#1015,1.);
#1015 = DIRECTION('',(-0.707106781187,0.707106781187,0.));
#1016 = ORIENTED_EDGE('',*,*,#1017,.F.);
#1017 = EDGE_CURVE('',#1018,#1010,#1020,.T.);
#1018 = VERTEX_POINT('',#1019);
#1019 = CARTESIAN_POINT('',(-1.02,1.27,4.07));
#1020 = LINE('',#1021,#1022);
#1021 = CARTESIAN_POINT('',(-1.27,1.27,4.07));
#1022 = VECTOR('',#1023,1.);
#1023 = DIRECTION('',(1.,0.,0.));
#1024 = ORIENTED_EDGE('',*,*,#1025,.F.);
#1025 = EDGE_CURVE('',#1026,#1018,#1028,.T.);
#1026 = VERTEX_POINT('',#1027);
#1027 = CARTESIAN_POINT('',(-1.27,1.02,4.07));
#1028 = LINE('',#1029,#1030);
#1029 = CARTESIAN_POINT('',(-1.78,0.51,4.07));
#1030 = VECTOR('',#1031,1.);
#1031 = DIRECTION('',(0.707106781187,0.707106781187,0.));
#1032 = ORIENTED_EDGE('',*,*,#1033,.F.);
#1033 = EDGE_CURVE('',#1034,#1026,#1036,.T.);
#1034 = VERTEX_POINT('',#1035);
#1035 = CARTESIAN_POINT('',(-1.27,-1.02,4.07));
#1036 = LINE('',#1037,#1038);
#1037 = CARTESIAN_POINT('',(-1.27,-1.27,4.07));
#1038 = VECTOR('',#1039,1.);
#1039 = DIRECTION('',(0.,1.,0.));
#1040 = ORIENTED_EDGE('',*,*,#1041,.F.);
#1041 = EDGE_CURVE('',#984,#1034,#1042,.T.);
#1042 = LINE('',#1043,#1044);
#1043 = CARTESIAN_POINT('',(-1.145,-1.145,4.07));
#1044 = VECTOR('',#1045,1.);
#1045 = DIRECTION('',(-0.707106781187,0.707106781187,0.));
#1046 = FACE_BOUND('',#1047,.T.);
#1047 = EDGE_LOOP('',(#1048,#1058,#1066,#1074));
#1048 = ORIENTED_EDGE('',*,*,#1049,.F.);
#1049 = EDGE_CURVE('',#1050,#1052,#1054,.T.);
#1050 = VERTEX_POINT('',#1051);
#1051 = CARTESIAN_POINT('',(0.75,0.75,4.07));
#1052 = VERTEX_POINT('',#1053);
#1053 = CARTESIAN_POINT('',(-0.75,0.75,4.07));
#1054 = LINE('',#1055,#1056);
#1055 = CARTESIAN_POINT('',(0.35,0.75,4.07));
#1056 = VECTOR('',#1057,1.);
#1057 = DIRECTION('',(-1.,0.,0.));
#1058 = ORIENTED_EDGE('',*,*,#1059,.F.);
#1059 = EDGE_CURVE('',#1060,#1050,#1062,.T.);
#1060 = VERTEX_POINT('',#1061);
#1061 = CARTESIAN_POINT('',(0.75,-0.75,4.07));
#1062 = LINE('',#1063,#1064);
#1063 = CARTESIAN_POINT('',(0.75,-0.35,4.07));
#1064 = VECTOR('',#1065,1.);
#1065 = DIRECTION('',(0.,1.,0.));
#1066 = ORIENTED_EDGE('',*,*,#1067,.F.);
#1067 = EDGE_CURVE('',#1068,#1060,#1070,.T.);
#1068 = VERTEX_POINT('',#1069);
#1069 = CARTESIAN_POINT('',(-0.75,-0.75,4.07));
#1070 = LINE('',#1071,#1072);
#1071 = CARTESIAN_POINT('',(-0.35,-0.75,4.07));
#1072 = VECTOR('',#1073,1.);
#1073 = DIRECTION('',(1.,0.,0.));
#1074 = ORIENTED_EDGE('',*,*,#1075,.F.);
#1075 = EDGE_CURVE('',#1052,#1068,#1076,.T.);
#1076 = LINE('',#1077,#1078);
#1077 = CARTESIAN_POINT('',(-0.75,0.35,4.07));
#1078 = VECTOR('',#1079,1.);
#1079 = DIRECTION('',(0.,-1.,0.));
#1080 = PLANE('',#1081);
#1081 = AXIS2_PLACEMENT_3D('',#1082,#1083,#1084);
#1082 = CARTESIAN_POINT('',(-1.27,-1.27,4.07));
#1083 = DIRECTION('',(0.,0.,1.));
#1084 = DIRECTION('',(0.,1.,0.));
#1085 = ADVANCED_FACE('',(#1086),#1111,.T.);
#1086 = FACE_BOUND('',#1087,.T.);
#1087 = EDGE_LOOP('',(#1088,#1098,#1104,#1105));
#1088 = ORIENTED_EDGE('',*,*,#1089,.T.);
#1089 = EDGE_CURVE('',#1090,#1092,#1094,.T.);
#1090 = VERTEX_POINT('',#1091);
#1091 = CARTESIAN_POINT('',(-1.02,-1.27,-0.5));
#1092 = VERTEX_POINT('',#1093);
#1093 = CARTESIAN_POINT('',(1.02,-1.27,-0.5));
#1094 = LINE('',#1095,#1096);
#1095 = CARTESIAN_POINT('',(-1.27,-1.27,-0.5));
#1096 = VECTOR('',#1097,1.);
#1097 = DIRECTION('',(1.,0.,0.));
#1098 = ORIENTED_EDGE('',*,*,#1099,.T.);
#1099 = EDGE_CURVE('',#1092,#986,#1100,.T.);
#1100 = LINE('',#1101,#1102);
#1101 = CARTESIAN_POINT('',(1.02,-1.27,-0.5));
#1102 = VECTOR('',#1103,1.);
#1103 = DIRECTION('',(0.,0.,1.));
#1104 = ORIENTED_EDGE('',*,*,#983,.F.);
#1105 = ORIENTED_EDGE('',*,*,#1106,.F.);
#1106 = EDGE_CURVE('',#1090,#984,#1107,.T.);
#1107 = LINE('',#1108,#1109);
#1108 = CARTESIAN_POINT('',(-1.02,-1.27,-0.5));
#1109 = VECTOR('',#1110,1.);
#1110 = DIRECTION('',(0.,0.,1.));
#1111 = PLANE('',#1112);
#1112 = AXIS2_PLACEMENT_3D('',#1113,#1114,#1115);
#1113 = CARTESIAN_POINT('',(-1.27,-1.27,-0.5));
#1114 = DIRECTION('',(0.,-1.,0.));
#1115 = DIRECTION('',(0.,0.,1.));
#1116 = ADVANCED_FACE('',(#1117),#1135,.F.);
#1117 = FACE_BOUND('',#1118,.T.);
#1118 = EDGE_LOOP('',(#1119,#1127,#1128,#1129));
#1119 = ORIENTED_EDGE('',*,*,#1120,.F.);
#1120 = EDGE_CURVE('',#1090,#1121,#1123,.T.);
#1121 = VERTEX_POINT('',#1122);
#1122 = CARTESIAN_POINT('',(-1.27,-1.02,-0.5));
#1123 = LINE('',#1124,#1125);
#1124 = CARTESIAN_POINT('',(-1.27,-1.02,-0.5));
#1125 = VECTOR('',#1126,1.);
#1126 = DIRECTION('',(-0.707106781187,0.707106781187,0.));
#1127 = ORIENTED_EDGE('',*,*,#1106,.T.);
#1128 = ORIENTED_EDGE('',*,*,#1041,.T.);
#1129 = ORIENTED_EDGE('',*,*,#1130,.F.);
#1130 = EDGE_CURVE('',#1121,#1034,#1131,.T.);
#1131 = LINE('',#1132,#1133);
#1132 = CARTESIAN_POINT('',(-1.27,-1.02,-0.5));
#1133 = VECTOR('',#1134,1.);
#1134 = DIRECTION('',(0.,0.,1.));
#1135 = PLANE('',#1136);
#1136 = AXIS2_PLACEMENT_3D('',#1137,#1138,#1139);
#1137 = CARTESIAN_POINT('',(-1.145,-1.145,-0.5));
#1138 = DIRECTION('',(0.707106781187,0.707106781187,0.));
#1139 = DIRECTION('',(-0.,-0.,-1.));
#1140 = ADVANCED_FACE('',(#1141),#1159,.T.);
#1141 = FACE_BOUND('',#1142,.F.);
#1142 = EDGE_LOOP('',(#1143,#1151,#1152,#1153));
#1143 = ORIENTED_EDGE('',*,*,#1144,.F.);
#1144 = EDGE_CURVE('',#1092,#1145,#1147,.T.);
#1145 = VERTEX_POINT('',#1146);
#1146 = CARTESIAN_POINT('',(1.27,-1.02,-0.5));
#1147 = LINE('',#1148,#1149);
#1148 = CARTESIAN_POINT('',(0.635,-1.655,-0.5));
#1149 = VECTOR('',#1150,1.);
#1150 = DIRECTION('',(0.707106781187,0.707106781187,0.));
#1151 = ORIENTED_EDGE('',*,*,#1099,.T.);
#1152 = ORIENTED_EDGE('',*,*,#993,.T.);
#1153 = ORIENTED_EDGE('',*,*,#1154,.F.);
#1154 = EDGE_CURVE('',#1145,#994,#1155,.T.);
#1155 = LINE('',#1156,#1157);
#1156 = CARTESIAN_POINT('',(1.27,-1.02,-0.5));
#1157 = VECTOR('',#1158,1.);
#1158 = DIRECTION('',(0.,0.,1.));
#1159 = PLANE('',#1160);
#1160 = AXIS2_PLACEMENT_3D('',#1161,#1162,#1163);
#1161 = CARTESIAN_POINT('',(1.145,-1.145,-0.5));
#1162 = DIRECTION('',(0.707106781187,-0.707106781187,0.));
#1163 = DIRECTION('',(-0.,-0.,-1.));
#1164 = ADVANCED_FACE('',(#1165),#1215,.F.);
#1165 = FACE_BOUND('',#1166,.F.);
#1166 = EDGE_LOOP('',(#1167,#1168,#1169,#1177,#1185,#1193,#1201,#1209));
#1167 = ORIENTED_EDGE('',*,*,#1033,.F.);
#1168 = ORIENTED_EDGE('',*,*,#1130,.F.);
#1169 = ORIENTED_EDGE('',*,*,#1170,.F.);
#1170 = EDGE_CURVE('',#1171,#1121,#1173,.T.);
#1171 = VERTEX_POINT('',#1172);
#1172 = CARTESIAN_POINT('',(-1.27,-0.77,-0.5));
#1173 = LINE('',#1174,#1175);
#1174 = CARTESIAN_POINT('',(-1.27,-0.77,-0.5));
#1175 = VECTOR('',#1176,1.);
#1176 = DIRECTION('',(0.,-1.,0.));
#1177 = ORIENTED_EDGE('',*,*,#1178,.F.);
#1178 = EDGE_CURVE('',#1179,#1171,#1181,.T.);
#1179 = VERTEX_POINT('',#1180);
#1180 = CARTESIAN_POINT('',(-1.27,-0.77,0.));
#1181 = LINE('',#1182,#1183);
#1182 = CARTESIAN_POINT('',(-1.27,-0.77,0.));
#1183 = VECTOR('',#1184,1.);
#1184 = DIRECTION('',(0.,0.,-1.));
#1185 = ORIENTED_EDGE('',*,*,#1186,.F.);
#1186 = EDGE_CURVE('',#1187,#1179,#1189,.T.);
#1187 = VERTEX_POINT('',#1188);
#1188 = CARTESIAN_POINT('',(-1.27,0.77,0.));
#1189 = LINE('',#1190,#1191);
#1190 = CARTESIAN_POINT('',(-1.27,0.77,0.));
#1191 = VECTOR('',#1192,1.);
#1192 = DIRECTION('',(0.,-1.,0.));
#1193 = ORIENTED_EDGE('',*,*,#1194,.F.);
#1194 = EDGE_CURVE('',#1195,#1187,#1197,.T.);
#1195 = VERTEX_POINT('',#1196);
#1196 = CARTESIAN_POINT('',(-1.27,0.77,-0.5));
#1197 = LINE('',#1198,#1199);
#1198 = CARTESIAN_POINT('',(-1.27,0.77,-0.5));
#1199 = VECTOR('',#1200,1.);
#1200 = DIRECTION('',(0.,0.,1.));
#1201 = ORIENTED_EDGE('',*,*,#1202,.F.);
#1202 = EDGE_CURVE('',#1203,#1195,#1205,.T.);
#1203 = VERTEX_POINT('',#1204);
#1204 = CARTESIAN_POINT('',(-1.27,1.02,-0.5));
#1205 = LINE('',#1206,#1207);
#1206 = CARTESIAN_POINT('',(-1.27,1.27,-0.5));
#1207 = VECTOR('',#1208,1.);
#1208 = DIRECTION('',(0.,-1.,0.));
#1209 = ORIENTED_EDGE('',*,*,#1210,.F.);
#1210 = EDGE_CURVE('',#1026,#1203,#1211,.T.);
#1211 = LINE('',#1212,#1213);
#1212 = CARTESIAN_POINT('',(-1.27,1.02,4.07));
#1213 = VECTOR('',#1214,1.);
#1214 = DIRECTION('',(0.,0.,-1.));
#1215 = PLANE('',#1216);
#1216 = AXIS2_PLACEMENT_3D('',#1217,#1218,#1219);
#1217 = CARTESIAN_POINT('',(-1.27,0.,1.701885676741));
#1218 = DIRECTION('',(1.,0.,0.));
#1219 = DIRECTION('',(0.,0.,1.));
#1220 = ADVANCED_FACE('',(#1221),#1271,.T.);
#1221 = FACE_BOUND('',#1222,.T.);
#1222 = EDGE_LOOP('',(#1223,#1224,#1225,#1233,#1241,#1249,#1257,#1265));
#1223 = ORIENTED_EDGE('',*,*,#1001,.F.);
#1224 = ORIENTED_EDGE('',*,*,#1154,.F.);
#1225 = ORIENTED_EDGE('',*,*,#1226,.F.);
#1226 = EDGE_CURVE('',#1227,#1145,#1229,.T.);
#1227 = VERTEX_POINT('',#1228);
#1228 = CARTESIAN_POINT('',(1.27,-0.77,-0.5));
#1229 = LINE('',#1230,#1231);
#1230 = CARTESIAN_POINT('',(1.27,-0.77,-0.5));
#1231 = VECTOR('',#1232,1.);
#1232 = DIRECTION('',(0.,-1.,0.));
#1233 = ORIENTED_EDGE('',*,*,#1234,.F.);
#1234 = EDGE_CURVE('',#1235,#1227,#1237,.T.);
#1235 = VERTEX_POINT('',#1236);
#1236 = CARTESIAN_POINT('',(1.27,-0.77,0.));
#1237 = LINE('',#1238,#1239);
#1238 = CARTESIAN_POINT('',(1.27,-0.77,0.));
#1239 = VECTOR('',#1240,1.);
#1240 = DIRECTION('',(0.,0.,-1.));
#1241 = ORIENTED_EDGE('',*,*,#1242,.F.);
#1242 = EDGE_CURVE('',#1243,#1235,#1245,.T.);
#1243 = VERTEX_POINT('',#1244);
#1244 = CARTESIAN_POINT('',(1.27,0.77,0.));
#1245 = LINE('',#1246,#1247);
#1246 = CARTESIAN_POINT('',(1.27,0.77,0.));
#1247 = VECTOR('',#1248,1.);
#1248 = DIRECTION('',(0.,-1.,0.));
#1249 = ORIENTED_EDGE('',*,*,#1250,.F.);
#1250 = EDGE_CURVE('',#1251,#1243,#1253,.T.);
#1251 = VERTEX_POINT('',#1252);
#1252 = CARTESIAN_POINT('',(1.27,0.77,-0.5));
#1253 = LINE('',#1254,#1255);
#1254 = CARTESIAN_POINT('',(1.27,0.77,-0.5));
#1255 = VECTOR('',#1256,1.);
#1256 = DIRECTION('',(0.,0.,1.));
#1257 = ORIENTED_EDGE('',*,*,#1258,.F.);
#1258 = EDGE_CURVE('',#1259,#1251,#1261,.T.);
#1259 = VERTEX_POINT('',#1260);
#1260 = CARTESIAN_POINT('',(1.27,1.02,-0.5));
#1261 = LINE('',#1262,#1263);
#1262 = CARTESIAN_POINT('',(1.27,1.27,-0.5));
#1263 = VECTOR('',#1264,1.);
#1264 = DIRECTION('',(0.,-1.,0.));
#1265 = ORIENTED_EDGE('',*,*,#1266,.F.);
#1266 = EDGE_CURVE('',#1002,#1259,#1267,.T.);
#1267 = LINE('',#1268,#1269);
#1268 = CARTESIAN_POINT('',(1.27,1.02,4.07));
#1269 = VECTOR('',#1270,1.);
#1270 = DIRECTION('',(0.,0.,-1.));
#1271 = PLANE('',#1272);
#1272 = AXIS2_PLACEMENT_3D('',#1273,#1274,#1275);
#1273 = CARTESIAN_POINT('',(1.27,0.,1.701885676741));
#1274 = DIRECTION('',(1.,0.,0.));
#1275 = DIRECTION('',(0.,0.,1.));
#1276 = ADVANCED_FACE('',(#1277),#1295,.F.);
#1277 = FACE_BOUND('',#1278,.F.);
#1278 = EDGE_LOOP('',(#1279,#1280,#1281,#1289));
#1279 = ORIENTED_EDGE('',*,*,#1025,.F.);
#1280 = ORIENTED_EDGE('',*,*,#1210,.T.);
#1281 = ORIENTED_EDGE('',*,*,#1282,.T.);
#1282 = EDGE_CURVE('',#1203,#1283,#1285,.T.);
#1283 = VERTEX_POINT('',#1284);
#1284 = CARTESIAN_POINT('',(-1.02,1.27,-0.5));
#1285 = LINE('',#1286,#1287);
#1286 = CARTESIAN_POINT('',(-1.145,1.145,-0.5));
#1287 = VECTOR('',#1288,1.);
#1288 = DIRECTION('',(0.707106781187,0.707106781187,0.));
#1289 = ORIENTED_EDGE('',*,*,#1290,.F.);
#1290 = EDGE_CURVE('',#1018,#1283,#1291,.T.);
#1291 = LINE('',#1292,#1293);
#1292 = CARTESIAN_POINT('',(-1.02,1.27,4.07));
#1293 = VECTOR('',#1294,1.);
#1294 = DIRECTION('',(0.,0.,-1.));
#1295 = PLANE('',#1296);
#1296 = AXIS2_PLACEMENT_3D('',#1297,#1298,#1299);
#1297 = CARTESIAN_POINT('',(-1.145,1.145,4.07));
#1298 = DIRECTION('',(0.707106781187,-0.707106781187,0.));
#1299 = DIRECTION('',(0.,0.,-1.));
#1300 = ADVANCED_FACE('',(#1301),#1319,.T.);
#1301 = FACE_BOUND('',#1302,.T.);
#1302 = EDGE_LOOP('',(#1303,#1304,#1305,#1313));
#1303 = ORIENTED_EDGE('',*,*,#1009,.F.);
#1304 = ORIENTED_EDGE('',*,*,#1266,.T.);
#1305 = ORIENTED_EDGE('',*,*,#1306,.T.);
#1306 = EDGE_CURVE('',#1259,#1307,#1309,.T.);
#1307 = VERTEX_POINT('',#1308);
#1308 = CARTESIAN_POINT('',(1.02,1.27,-0.5));
#1309 = LINE('',#1310,#1311);
#1310 = CARTESIAN_POINT('',(0.51,1.78,-0.5));
#1311 = VECTOR('',#1312,1.);
#1312 = DIRECTION('',(-0.707106781187,0.707106781187,0.));
#1313 = ORIENTED_EDGE('',*,*,#1314,.F.);
#1314 = EDGE_CURVE('',#1010,#1307,#1315,.T.);
#1315 = LINE('',#1316,#1317);
#1316 = CARTESIAN_POINT('',(1.02,1.27,4.07));
#1317 = VECTOR('',#1318,1.);
#1318 = DIRECTION('',(0.,0.,-1.));
#1319 = PLANE('',#1320);
#1320 = AXIS2_PLACEMENT_3D('',#1321,#1322,#1323);
#1321 = CARTESIAN_POINT('',(1.145,1.145,4.07));
#1322 = DIRECTION('',(0.707106781187,0.707106781187,0.));
#1323 = DIRECTION('',(0.,0.,-1.));
#1324 = ADVANCED_FACE('',(#1325),#1336,.T.);
#1325 = FACE_BOUND('',#1326,.T.);
#1326 = EDGE_LOOP('',(#1327,#1328,#1329,#1335));
#1327 = ORIENTED_EDGE('',*,*,#1017,.T.);
#1328 = ORIENTED_EDGE('',*,*,#1314,.T.);
#1329 = ORIENTED_EDGE('',*,*,#1330,.F.);
#1330 = EDGE_CURVE('',#1283,#1307,#1331,.T.);
#1331 = LINE('',#1332,#1333);
#1332 = CARTESIAN_POINT('',(-1.27,1.27,-0.5));
#1333 = VECTOR('',#1334,1.);
#1334 = DIRECTION('',(1.,0.,0.));
#1335 = ORIENTED_EDGE('',*,*,#1290,.F.);
#1336 = PLANE('',#1337);
#1337 = AXIS2_PLACEMENT_3D('',#1338,#1339,#1340);
#1338 = CARTESIAN_POINT('',(-1.27,1.27,4.07));
#1339 = DIRECTION('',(0.,1.,0.));
#1340 = DIRECTION('',(0.,0.,-1.));
#1341 = ADVANCED_FACE('',(#1342),#1367,.F.);
#1342 = FACE_BOUND('',#1343,.T.);
#1343 = EDGE_LOOP('',(#1344,#1352,#1353,#1361));
#1344 = ORIENTED_EDGE('',*,*,#1345,.F.);
#1345 = EDGE_CURVE('',#1050,#1346,#1348,.T.);
#1346 = VERTEX_POINT('',#1347);
#1347 = CARTESIAN_POINT('',(0.35,0.35,0.87));
#1348 = LINE('',#1349,#1350);
#1349 = CARTESIAN_POINT('',(0.541666666667,0.541666666667,2.403333333333
    ));
#1350 = VECTOR('',#1351,1.);
#1351 = DIRECTION('',(-0.123091490979,-0.123091490979,-0.984731927835));
#1352 = ORIENTED_EDGE('',*,*,#1049,.T.);
#1353 = ORIENTED_EDGE('',*,*,#1354,.T.);
#1354 = EDGE_CURVE('',#1052,#1355,#1357,.T.);
#1355 = VERTEX_POINT('',#1356);
#1356 = CARTESIAN_POINT('',(-0.35,0.35,0.87));
#1357 = LINE('',#1358,#1359);
#1358 = CARTESIAN_POINT('',(-0.541666666667,0.541666666667,
    2.403333333333));
#1359 = VECTOR('',#1360,1.);
#1360 = DIRECTION('',(0.123091490979,-0.123091490979,-0.984731927835));
#1361 = ORIENTED_EDGE('',*,*,#1362,.F.);
#1362 = EDGE_CURVE('',#1346,#1355,#1363,.T.);
#1363 = LINE('',#1364,#1365);
#1364 = CARTESIAN_POINT('',(0.35,0.35,0.87));
#1365 = VECTOR('',#1366,1.);
#1366 = DIRECTION('',(-1.,0.,0.));
#1367 = PLANE('',#1368);
#1368 = AXIS2_PLACEMENT_3D('',#1369,#1370,#1371);
#1369 = CARTESIAN_POINT('',(0.35,0.55,2.47));
#1370 = DIRECTION('',(7.290793267203E-18,0.992277876714,-0.124034734589)
  );
#1371 = DIRECTION('',(1.,-7.234492862738E-18,9.043116078423E-19));
#1372 = ADVANCED_FACE('',(#1373),#1391,.F.);
#1373 = FACE_BOUND('',#1374,.T.);
#1374 = EDGE_LOOP('',(#1375,#1383,#1384,#1385));
#1375 = ORIENTED_EDGE('',*,*,#1376,.F.);
#1376 = EDGE_CURVE('',#1060,#1377,#1379,.T.);
#1377 = VERTEX_POINT('',#1378);
#1378 = CARTESIAN_POINT('',(0.35,-0.35,0.87));
#1379 = LINE('',#1380,#1381);
#1380 = CARTESIAN_POINT('',(0.541666666667,-0.541666666667,
    2.403333333333));
#1381 = VECTOR('',#1382,1.);
#1382 = DIRECTION('',(-0.123091490979,0.123091490979,-0.984731927835));
#1383 = ORIENTED_EDGE('',*,*,#1059,.T.);
#1384 = ORIENTED_EDGE('',*,*,#1345,.T.);
#1385 = ORIENTED_EDGE('',*,*,#1386,.F.);
#1386 = EDGE_CURVE('',#1377,#1346,#1387,.T.);
#1387 = LINE('',#1388,#1389);
#1388 = CARTESIAN_POINT('',(0.35,-0.35,0.87));
#1389 = VECTOR('',#1390,1.);
#1390 = DIRECTION('',(0.,1.,0.));
#1391 = PLANE('',#1392);
#1392 = AXIS2_PLACEMENT_3D('',#1393,#1394,#1395);
#1393 = CARTESIAN_POINT('',(0.55,-0.35,2.47));
#1394 = DIRECTION('',(0.992277876714,-7.290793267203E-18,-0.124034734589
    ));
#1395 = DIRECTION('',(-7.234492862738E-18,-1.,9.043116078423E-19));
#1396 = ADVANCED_FACE('',(#1397),#1415,.F.);
#1397 = FACE_BOUND('',#1398,.T.);
#1398 = EDGE_LOOP('',(#1399,#1400,#1401,#1409));
#1399 = ORIENTED_EDGE('',*,*,#1354,.F.);
#1400 = ORIENTED_EDGE('',*,*,#1075,.T.);
#1401 = ORIENTED_EDGE('',*,*,#1402,.T.);
#1402 = EDGE_CURVE('',#1068,#1403,#1405,.T.);
#1403 = VERTEX_POINT('',#1404);
#1404 = CARTESIAN_POINT('',(-0.35,-0.35,0.87));
#1405 = LINE('',#1406,#1407);
#1406 = CARTESIAN_POINT('',(-0.541666666667,-0.541666666667,
    2.403333333333));
#1407 = VECTOR('',#1408,1.);
#1408 = DIRECTION('',(0.123091490979,0.123091490979,-0.984731927835));
#1409 = ORIENTED_EDGE('',*,*,#1410,.F.);
#1410 = EDGE_CURVE('',#1355,#1403,#1411,.T.);
#1411 = LINE('',#1412,#1413);
#1412 = CARTESIAN_POINT('',(-0.35,0.35,0.87));
#1413 = VECTOR('',#1414,1.);
#1414 = DIRECTION('',(0.,-1.,0.));
#1415 = PLANE('',#1416);
#1416 = AXIS2_PLACEMENT_3D('',#1417,#1418,#1419);
#1417 = CARTESIAN_POINT('',(-0.55,0.35,2.47));
#1418 = DIRECTION('',(-0.992277876714,0.,-0.124034734589));
#1419 = DIRECTION('',(0.,1.,0.));
#1420 = ADVANCED_FACE('',(#1421),#1432,.F.);
#1421 = FACE_BOUND('',#1422,.T.);
#1422 = EDGE_LOOP('',(#1423,#1424,#1425,#1426));
#1423 = ORIENTED_EDGE('',*,*,#1402,.F.);
#1424 = ORIENTED_EDGE('',*,*,#1067,.T.);
#1425 = ORIENTED_EDGE('',*,*,#1376,.T.);
#1426 = ORIENTED_EDGE('',*,*,#1427,.F.);
#1427 = EDGE_CURVE('',#1403,#1377,#1428,.T.);
#1428 = LINE('',#1429,#1430);
#1429 = CARTESIAN_POINT('',(-0.35,-0.35,0.87));
#1430 = VECTOR('',#1431,1.);
#1431 = DIRECTION('',(1.,0.,0.));
#1432 = PLANE('',#1433);
#1433 = AXIS2_PLACEMENT_3D('',#1434,#1435,#1436);
#1434 = CARTESIAN_POINT('',(-0.35,-0.55,2.47));
#1435 = DIRECTION('',(0.,-0.992277876714,-0.124034734589));
#1436 = DIRECTION('',(-1.,-0.,-0.));
#1437 = ADVANCED_FACE('',(#1438),#1451,.T.);
#1438 = FACE_BOUND('',#1439,.T.);
#1439 = EDGE_LOOP('',(#1440,#1441,#1442,#1443,#1449,#1450));
#1440 = ORIENTED_EDGE('',*,*,#1089,.F.);
#1441 = ORIENTED_EDGE('',*,*,#1120,.T.);
#1442 = ORIENTED_EDGE('',*,*,#1170,.F.);
#1443 = ORIENTED_EDGE('',*,*,#1444,.T.);
#1444 = EDGE_CURVE('',#1171,#1227,#1445,.T.);
#1445 = LINE('',#1446,#1447);
#1446 = CARTESIAN_POINT('',(-1.27,-0.77,-0.5));
#1447 = VECTOR('',#1448,1.);
#1448 = DIRECTION('',(1.,0.,0.));
#1449 = ORIENTED_EDGE('',*,*,#1226,.T.);
#1450 = ORIENTED_EDGE('',*,*,#1144,.F.);
#1451 = PLANE('',#1452);
#1452 = AXIS2_PLACEMENT_3D('',#1453,#1454,#1455);
#1453 = CARTESIAN_POINT('',(-1.27,-0.77,-0.5));
#1454 = DIRECTION('',(0.,0.,-1.));
#1455 = DIRECTION('',(0.,-1.,0.));
#1456 = ADVANCED_FACE('',(#1457),#1470,.T.);
#1457 = FACE_BOUND('',#1458,.T.);
#1458 = EDGE_LOOP('',(#1459,#1460,#1461,#1462,#1468,#1469));
#1459 = ORIENTED_EDGE('',*,*,#1330,.T.);
#1460 = ORIENTED_EDGE('',*,*,#1306,.F.);
#1461 = ORIENTED_EDGE('',*,*,#1258,.T.);
#1462 = ORIENTED_EDGE('',*,*,#1463,.F.);
#1463 = EDGE_CURVE('',#1195,#1251,#1464,.T.);
#1464 = LINE('',#1465,#1466);
#1465 = CARTESIAN_POINT('',(-1.27,0.77,-0.5));
#1466 = VECTOR('',#1467,1.);
#1467 = DIRECTION('',(1.,0.,0.));
#1468 = ORIENTED_EDGE('',*,*,#1202,.F.);
#1469 = ORIENTED_EDGE('',*,*,#1282,.T.);
#1470 = PLANE('',#1471);
#1471 = AXIS2_PLACEMENT_3D('',#1472,#1473,#1474);
#1472 = CARTESIAN_POINT('',(-1.27,1.27,-0.5));
#1473 = DIRECTION('',(0.,0.,-1.));
#1474 = DIRECTION('',(0.,-1.,0.));
#1475 = ADVANCED_FACE('',(#1476),#1487,.T.);
#1476 = FACE_BOUND('',#1477,.T.);
#1477 = EDGE_LOOP('',(#1478,#1484,#1485,#1486));
#1478 = ORIENTED_EDGE('',*,*,#1479,.T.);
#1479 = EDGE_CURVE('',#1179,#1235,#1480,.T.);
#1480 = LINE('',#1481,#1482);
#1481 = CARTESIAN_POINT('',(-1.27,-0.77,0.));
#1482 = VECTOR('',#1483,1.);
#1483 = DIRECTION('',(1.,0.,0.));
#1484 = ORIENTED_EDGE('',*,*,#1234,.T.);
#1485 = ORIENTED_EDGE('',*,*,#1444,.F.);
#1486 = ORIENTED_EDGE('',*,*,#1178,.F.);
#1487 = PLANE('',#1488);
#1488 = AXIS2_PLACEMENT_3D('',#1489,#1490,#1491);
#1489 = CARTESIAN_POINT('',(-1.27,-0.77,0.));
#1490 = DIRECTION('',(0.,1.,0.));
#1491 = DIRECTION('',(0.,0.,-1.));
#1492 = ADVANCED_FACE('',(#1493),#1504,.T.);
#1493 = FACE_BOUND('',#1494,.T.);
#1494 = EDGE_LOOP('',(#1495,#1496,#1497,#1503));
#1495 = ORIENTED_EDGE('',*,*,#1463,.T.);
#1496 = ORIENTED_EDGE('',*,*,#1250,.T.);
#1497 = ORIENTED_EDGE('',*,*,#1498,.F.);
#1498 = EDGE_CURVE('',#1187,#1243,#1499,.T.);
#1499 = LINE('',#1500,#1501);
#1500 = CARTESIAN_POINT('',(-1.27,0.77,0.));
#1501 = VECTOR('',#1502,1.);
#1502 = DIRECTION('',(1.,0.,0.));
#1503 = ORIENTED_EDGE('',*,*,#1194,.F.);
#1504 = PLANE('',#1505);
#1505 = AXIS2_PLACEMENT_3D('',#1506,#1507,#1508);
#1506 = CARTESIAN_POINT('',(-1.27,0.77,-0.5));
#1507 = DIRECTION('',(0.,-1.,0.));
#1508 = DIRECTION('',(0.,0.,1.));
#1509 = ADVANCED_FACE('',(#1510),#1516,.T.);
#1510 = FACE_BOUND('',#1511,.T.);
#1511 = EDGE_LOOP('',(#1512,#1513,#1514,#1515));
#1512 = ORIENTED_EDGE('',*,*,#1498,.T.);
#1513 = ORIENTED_EDGE('',*,*,#1242,.T.);
#1514 = ORIENTED_EDGE('',*,*,#1479,.F.);
#1515 = ORIENTED_EDGE('',*,*,#1186,.F.);
#1516 = PLANE('',#1517);
#1517 = AXIS2_PLACEMENT_3D('',#1518,#1519,#1520);
#1518 = CARTESIAN_POINT('',(-1.27,0.77,0.));
#1519 = DIRECTION('',(0.,0.,-1.));
#1520 = DIRECTION('',(0.,-1.,0.));
#1521 = ADVANCED_FACE('',(#1522),#1547,.F.);
#1522 = FACE_BOUND('',#1523,.F.);
#1523 = EDGE_LOOP('',(#1524,#1532,#1540,#1546));
#1524 = ORIENTED_EDGE('',*,*,#1525,.T.);
#1525 = EDGE_CURVE('',#1346,#1526,#1528,.T.);
#1526 = VERTEX_POINT('',#1527);
#1527 = CARTESIAN_POINT('',(0.35,0.35,0.47));
#1528 = LINE('',#1529,#1530);
#1529 = CARTESIAN_POINT('',(0.35,0.35,4.07));
#1530 = VECTOR('',#1531,1.);
#1531 = DIRECTION('',(-0.,-0.,-1.));
#1532 = ORIENTED_EDGE('',*,*,#1533,.T.);
#1533 = EDGE_CURVE('',#1526,#1534,#1536,.T.);
#1534 = VERTEX_POINT('',#1535);
#1535 = CARTESIAN_POINT('',(-0.35,0.35,0.47));
#1536 = LINE('',#1537,#1538);
#1537 = CARTESIAN_POINT('',(0.35,0.35,0.47));
#1538 = VECTOR('',#1539,1.);
#1539 = DIRECTION('',(-1.,0.,0.));
#1540 = ORIENTED_EDGE('',*,*,#1541,.F.);
#1541 = EDGE_CURVE('',#1355,#1534,#1542,.T.);
#1542 = LINE('',#1543,#1544);
#1543 = CARTESIAN_POINT('',(-0.35,0.35,4.07));
#1544 = VECTOR('',#1545,1.);
#1545 = DIRECTION('',(-0.,-0.,-1.));
#1546 = ORIENTED_EDGE('',*,*,#1362,.F.);
#1547 = PLANE('',#1548);
#1548 = AXIS2_PLACEMENT_3D('',#1549,#1550,#1551);
#1549 = CARTESIAN_POINT('',(0.35,0.35,4.07));
#1550 = DIRECTION('',(0.,1.,0.));
#1551 = DIRECTION('',(-1.,0.,0.));
#1552 = ADVANCED_FACE('',(#1553),#1571,.F.);
#1553 = FACE_BOUND('',#1554,.F.);
#1554 = EDGE_LOOP('',(#1555,#1563,#1569,#1570));
#1555 = ORIENTED_EDGE('',*,*,#1556,.T.);
#1556 = EDGE_CURVE('',#1377,#1557,#1559,.T.);
#1557 = VERTEX_POINT('',#1558);
#1558 = CARTESIAN_POINT('',(0.35,-0.35,0.47));
#1559 = LINE('',#1560,#1561);
#1560 = CARTESIAN_POINT('',(0.35,-0.35,4.07));
#1561 = VECTOR('',#1562,1.);
#1562 = DIRECTION('',(-0.,-0.,-1.));
#1563 = ORIENTED_EDGE('',*,*,#1564,.T.);
#1564 = EDGE_CURVE('',#1557,#1526,#1565,.T.);
#1565 = LINE('',#1566,#1567);
#1566 = CARTESIAN_POINT('',(0.35,-0.35,0.47));
#1567 = VECTOR('',#1568,1.);
#1568 = DIRECTION('',(0.,1.,0.));
#1569 = ORIENTED_EDGE('',*,*,#1525,.F.);
#1570 = ORIENTED_EDGE('',*,*,#1386,.F.);
#1571 = PLANE('',#1572);
#1572 = AXIS2_PLACEMENT_3D('',#1573,#1574,#1575);
#1573 = CARTESIAN_POINT('',(0.35,-0.35,4.07));
#1574 = DIRECTION('',(1.,0.,0.));
#1575 = DIRECTION('',(0.,1.,0.));
#1576 = ADVANCED_FACE('',(#1577),#1595,.F.);
#1577 = FACE_BOUND('',#1578,.F.);
#1578 = EDGE_LOOP('',(#1579,#1580,#1588,#1594));
#1579 = ORIENTED_EDGE('',*,*,#1541,.T.);
#1580 = ORIENTED_EDGE('',*,*,#1581,.T.);
#1581 = EDGE_CURVE('',#1534,#1582,#1584,.T.);
#1582 = VERTEX_POINT('',#1583);
#1583 = CARTESIAN_POINT('',(-0.35,-0.35,0.47));
#1584 = LINE('',#1585,#1586);
#1585 = CARTESIAN_POINT('',(-0.35,0.35,0.47));
#1586 = VECTOR('',#1587,1.);
#1587 = DIRECTION('',(0.,-1.,0.));
#1588 = ORIENTED_EDGE('',*,*,#1589,.F.);
#1589 = EDGE_CURVE('',#1403,#1582,#1590,.T.);
#1590 = LINE('',#1591,#1592);
#1591 = CARTESIAN_POINT('',(-0.35,-0.35,4.07));
#1592 = VECTOR('',#1593,1.);
#1593 = DIRECTION('',(-0.,-0.,-1.));
#1594 = ORIENTED_EDGE('',*,*,#1410,.F.);
#1595 = PLANE('',#1596);
#1596 = AXIS2_PLACEMENT_3D('',#1597,#1598,#1599);
#1597 = CARTESIAN_POINT('',(-0.35,0.35,4.07));
#1598 = DIRECTION('',(-1.,0.,0.));
#1599 = DIRECTION('',(0.,-1.,0.));
#1600 = ADVANCED_FACE('',(#1601),#1612,.F.);
#1601 = FACE_BOUND('',#1602,.F.);
#1602 = EDGE_LOOP('',(#1603,#1604,#1610,#1611));
#1603 = ORIENTED_EDGE('',*,*,#1589,.T.);
#1604 = ORIENTED_EDGE('',*,*,#1605,.T.);
#1605 = EDGE_CURVE('',#1582,#1557,#1606,.T.);
#1606 = LINE('',#1607,#1608);
#1607 = CARTESIAN_POINT('',(-0.35,-0.35,0.47));
#1608 = VECTOR('',#1609,1.);
#1609 = DIRECTION('',(1.,0.,0.));
#1610 = ORIENTED_EDGE('',*,*,#1556,.F.);
#1611 = ORIENTED_EDGE('',*,*,#1427,.F.);
#1612 = PLANE('',#1613);
#1613 = AXIS2_PLACEMENT_3D('',#1614,#1615,#1616);
#1614 = CARTESIAN_POINT('',(-0.35,-0.35,4.07));
#1615 = DIRECTION('',(0.,-1.,0.));
#1616 = DIRECTION('',(1.,0.,0.));
#1617 = ADVANCED_FACE('',(#1618),#1624,.T.);
#1618 = FACE_BOUND('',#1619,.T.);
#1619 = EDGE_LOOP('',(#1620,#1621,#1622,#1623));
#1620 = ORIENTED_EDGE('',*,*,#1581,.T.);
#1621 = ORIENTED_EDGE('',*,*,#1605,.T.);
#1622 = ORIENTED_EDGE('',*,*,#1564,.T.);
#1623 = ORIENTED_EDGE('',*,*,#1533,.T.);
#1624 = PLANE('',#1625);
#1625 = AXIS2_PLACEMENT_3D('',#1626,#1627,#1628);
#1626 = CARTESIAN_POINT('',(9.91270557701E-18,9.91270557701E-18,0.47));
#1627 = DIRECTION('',(0.,0.,1.));
#1628 = DIRECTION('',(1.,0.,0.));
#1629 = ( GEOMETRIC_REPRESENTATION_CONTEXT(3) 
GLOBAL_UNCERTAINTY_ASSIGNED_CONTEXT((#1633)) 
GLOBAL_UNIT_ASSIGNED_CONTEXT((#1630,#1631,#1632)) REPRESENTATION_CONTEXT
('Context #1','3D Context with UNIT and UNCERTAINTY') );
#1630 = ( LENGTH_UNIT() NAMED_UNIT(*) SI_UNIT(.MILLI.,.METRE.) );
#1631 = ( NAMED_UNIT(*) PLANE_ANGLE_UNIT() SI_UNIT($,.RADIAN.) );
#1632 = ( NAMED_UNIT(*) SI_UNIT($,.STERADIAN.) SOLID_ANGLE_UNIT() );
#1633 = UNCERTAINTY_MEASURE_WITH_UNIT(LENGTH_MEASURE(1.E-07),#1630,
  'distance_accuracy_value','confusion accuracy');
#1634 = CONTEXT_DEPENDENT_SHAPE_REPRESENTATION(#1635,#1637);
#1635 = ( REPRESENTATION_RELATIONSHIP('','',#976,#10) 
REPRESENTATION_RELATIONSHIP_WITH_TRANSFORMATION(#1636) 
SHAPE_REPRESENTATION_RELATIONSHIP() );
#1636 = ITEM_DEFINED_TRANSFORMATION('','',#11,#23);
#1637 = PRODUCT_DEFINITION_SHAPE('Placement','Placement of an item',
  #1638);
#1638 = NEXT_ASSEMBLY_USAGE_OCCURRENCE('6','BODY','',#5,#971,$);
#1639 = PRODUCT_RELATED_PRODUCT_CATEGORY('part',$,(#973));
#1640 = MECHANICAL_DESIGN_GEOMETRIC_PRESENTATION_REPRESENTATION('',(
    #1641),#1629);
#1641 = STYLED_ITEM('color',(#1642),#977);
#1642 = PRESENTATION_STYLE_ASSIGNMENT((#1643,#1649));
#1643 = SURFACE_STYLE_USAGE(.BOTH.,#1644);
#1644 = SURFACE_SIDE_STYLE('',(#1645));
#1645 = SURFACE_STYLE_FILL_AREA(#1646);
#1646 = FILL_AREA_STYLE('',(#1647));
#1647 = FILL_AREA_STYLE_COLOUR('',#1648);
#1648 = COLOUR_RGB('',0.116700000506,0.116700000506,0.116700000506);
#1649 = CURVE_STYLE('',#1650,POSITIVE_LENGTH_MEASURE(0.1),#1651);
#1650 = DRAUGHTING_PRE_DEFINED_CURVE_FONT('continuous');
#1651 = COLOUR_RGB('',9.803921802644E-02,9.803921802644E-02,
  9.803921802644E-02);
#1652 = MECHANICAL_DESIGN_GEOMETRIC_PRESENTATION_REPRESENTATION('',(
    #1653),#958);
#1653 = STYLED_ITEM('color',(#1654),#712);
#1654 = PRESENTATION_STYLE_ASSIGNMENT((#1655,#1661));
#1655 = SURFACE_STYLE_USAGE(.BOTH.,#1656);
#1656 = SURFACE_SIDE_STYLE('',(#1657));
#1657 = SURFACE_STYLE_FILL_AREA(#1658);
#1658 = FILL_AREA_STYLE('',(#1659));
#1659 = FILL_AREA_STYLE_COLOUR('',#1660);
#1660 = COLOUR_RGB('',0.917599985683,0.917599985683,0.917599985683);
#1661 = CURVE_STYLE('',#1662,POSITIVE_LENGTH_MEASURE(0.1),#1651);
#1662 = DRAUGHTING_PRE_DEFINED_CURVE_FONT('continuous');
#1663 = MECHANICAL_DESIGN_GEOMETRIC_PRESENTATION_REPRESENTATION('',(
    #1664),#693);
#1664 = STYLED_ITEM('color',(#1665),#41);
#1665 = PRESENTATION_STYLE_ASSIGNMENT((#1666,#1671));
#1666 = SURFACE_STYLE_USAGE(.BOTH.,#1667);
#1667 = SURFACE_SIDE_STYLE('',(#1668));
#1668 = SURFACE_STYLE_FILL_AREA(#1669);
#1669 = FILL_AREA_STYLE('',(#1670));
#1670 = FILL_AREA_STYLE_COLOUR('',#1648);
#1671 = CURVE_STYLE('',#1672,POSITIVE_LENGTH_MEASURE(0.1),#1651);
#1672 = DRAUGHTING_PRE_DEFINED_CURVE_FONT('continuous');
ENDSEC;
END-ISO-10303-21;
