ISO-10303-21;
HEADER;
FILE_DESCRIPTION(('FreeCAD Model'),'2;1');
FILE_NAME('Open CASCADE Shape Model','2026-07-22T13:39:19',(''),(''),
  'Open CASCADE STEP processor 7.8','FreeCAD','Unknown');
FILE_SCHEMA(('AUTOMOTIVE_DESIGN { 1 0 10303 214 1 1 1 1 }'));
ENDSEC;
DATA;
#1 = APPLICATION_PROTOCOL_DEFINITION('international standard',
  'automotive_design',2000,#2);
#2 = APPLICATION_CONTEXT(
  'core data for automotive mechanical design processes');
#3 = SHAPE_DEFINITION_REPRESENTATION(#4,#10);
#4 = PRODUCT_DEFINITION_SHAPE('','',#5);
#5 = PRODUCT_DEFINITION('design','',#6,#9);
#6 = PRODUCT_DEFINITION_FORMATION('','',#7);
#7 = PRODUCT('Unnamed','Unnamed','',(#8));
#8 = PRODUCT_CONTEXT('',#2,'mechanical');
#9 = PRODUCT_DEFINITION_CONTEXT('part definition',#2,'design');
#10 = SHAPE_REPRESENTATION('',(#11,#15,#19,#23,#27,#31),#35);
#11 = AXIS2_PLACEMENT_3D('',#12,#13,#14);
#12 = CARTESIAN_POINT('',(0.,0.,0.));
#13 = DIRECTION('',(0.,0.,1.));
#14 = DIRECTION('',(1.,0.,-0.));
#15 = AXIS2_PLACEMENT_3D('',#16,#17,#18);
#16 = CARTESIAN_POINT('',(0.,0.,0.));
#17 = DIRECTION('',(0.,0.,1.));
#18 = DIRECTION('',(1.,0.,0.));
#19 = AXIS2_PLACEMENT_3D('',#20,#21,#22);
#20 = CARTESIAN_POINT('',(0.,0.,0.));
#21 = DIRECTION('',(0.,0.,1.));
#22 = DIRECTION('',(1.,0.,0.));
#23 = AXIS2_PLACEMENT_3D('',#24,#25,#26);
#24 = CARTESIAN_POINT('',(0.,0.,0.));
#25 = DIRECTION('',(0.,0.,1.));
#26 = DIRECTION('',(1.,0.,0.));
#27 = AXIS2_PLACEMENT_3D('',#28,#29,#30);
#28 = CARTESIAN_POINT('',(0.,0.75,-1.665334536938E-16));
#29 = DIRECTION('',(0.,0.,1.));
#30 = DIRECTION('',(1.,0.,0.));
#31 = AXIS2_PLACEMENT_3D('',#32,#33,#34);
#32 = CARTESIAN_POINT('',(0.,0.75,-1.665334536938E-16));
#33 = DIRECTION('',(0.,0.,1.));
#34 = DIRECTION('',(1.,0.,0.));
#35 = ( GEOMETRIC_REPRESENTATION_CONTEXT(3) 
GLOBAL_UNCERTAINTY_ASSIGNED_CONTEXT((#39)) GLOBAL_UNIT_ASSIGNED_CONTEXT(
(#36,#37,#38)) REPRESENTATION_CONTEXT('Context #1',
  '3D Context with UNIT and UNCERTAINTY') );
#36 = ( LENGTH_UNIT() NAMED_UNIT(*) SI_UNIT(.MILLI.,.METRE.) );
#37 = ( NAMED_UNIT(*) PLANE_ANGLE_UNIT() SI_UNIT($,.RADIAN.) );
#38 = ( NAMED_UNIT(*) SI_UNIT($,.STERADIAN.) SOLID_ANGLE_UNIT() );
#39 = UNCERTAINTY_MEASURE_WITH_UNIT(LENGTH_MEASURE(1.E-07),#36,
  'distance_accuracy_value','confusion accuracy');
#40 = PRODUCT_RELATED_PRODUCT_CATEGORY('part',$,(#7));
#41 = SHAPE_DEFINITION_REPRESENTATION(#42,#48);
#42 = PRODUCT_DEFINITION_SHAPE('','',#43);
#43 = PRODUCT_DEFINITION('design','',#44,#47);
#44 = PRODUCT_DEFINITION_FORMATION('','',#45);
#45 = PRODUCT('BODY','BODY','',(#46));
#46 = PRODUCT_CONTEXT('',#2,'mechanical');
#47 = PRODUCT_DEFINITION_CONTEXT('part definition',#2,'design');
#48 = ADVANCED_BREP_SHAPE_REPRESENTATION('',(#11,#49),#361);
#49 = MANIFOLD_SOLID_BREP('',#50);
#50 = CLOSED_SHELL('',(#51,#91,#122,#146,#170,#201,#218,#258,#298,#315,
    #332,#349));
#51 = ADVANCED_FACE('',(#52),#86,.T.);
#52 = FACE_BOUND('',#53,.T.);
#53 = EDGE_LOOP('',(#54,#64,#72,#80));
#54 = ORIENTED_EDGE('',*,*,#55,.F.);
#55 = EDGE_CURVE('',#56,#58,#60,.T.);
#56 = VERTEX_POINT('',#57);
#57 = CARTESIAN_POINT('',(2.09399967348,-0.75,1.15));
#58 = VERTEX_POINT('',#59);
#59 = CARTESIAN_POINT('',(-2.09399967348,-0.75,1.15));
#60 = LINE('',#61,#62);
#61 = CARTESIAN_POINT('',(2.25,-0.75,1.15));
#62 = VECTOR('',#63,1.);
#63 = DIRECTION('',(-1.,0.,0.));
#64 = ORIENTED_EDGE('',*,*,#65,.F.);
#65 = EDGE_CURVE('',#66,#56,#68,.T.);
#66 = VERTEX_POINT('',#67);
#67 = CARTESIAN_POINT('',(2.25,0.36,1.25));
#68 = LINE('',#69,#70);
#69 = CARTESIAN_POINT('',(2.158275552996,-0.292653353017,1.191202400629)
  );
#70 = VECTOR('',#71,1.);
#71 = DIRECTION('',(-0.138622544463,-0.986350655713,-8.886041943357E-02)
  );
#72 = ORIENTED_EDGE('',*,*,#73,.T.);
#73 = EDGE_CURVE('',#66,#74,#76,.T.);
#74 = VERTEX_POINT('',#75);
#75 = CARTESIAN_POINT('',(-2.25,0.36,1.25));
#76 = LINE('',#77,#78);
#77 = CARTESIAN_POINT('',(2.25,0.36,1.25));
#78 = VECTOR('',#79,1.);
#79 = DIRECTION('',(-1.,0.,0.));
#80 = ORIENTED_EDGE('',*,*,#81,.T.);
#81 = EDGE_CURVE('',#74,#58,#82,.T.);
#82 = LINE('',#83,#84);
#83 = CARTESIAN_POINT('',(-2.129204846931,-0.499502174758,1.172567371643
    ));
#84 = VECTOR('',#85,1.);
#85 = DIRECTION('',(0.138622544463,-0.986350655713,-8.886041943357E-02)
  );
#86 = PLANE('',#87);
#87 = AXIS2_PLACEMENT_3D('',#88,#89,#90);
#88 = CARTESIAN_POINT('',(2.25,-0.195,1.2));
#89 = DIRECTION('',(0.,-8.972670489621E-02,0.995966424348));
#90 = DIRECTION('',(-1.,0.,0.));
#91 = ADVANCED_FACE('',(#92),#117,.F.);
#92 = FACE_BOUND('',#93,.F.);
#93 = EDGE_LOOP('',(#94,#104,#110,#111));
#94 = ORIENTED_EDGE('',*,*,#95,.F.);
#95 = EDGE_CURVE('',#96,#98,#100,.T.);
#96 = VERTEX_POINT('',#97);
#97 = CARTESIAN_POINT('',(-2.09399967348,-0.75,-1.15));
#98 = VERTEX_POINT('',#99);
#99 = CARTESIAN_POINT('',(2.09399967348,-0.75,-1.15));
#100 = LINE('',#101,#102);
#101 = CARTESIAN_POINT('',(-2.25,-0.75,-1.15));
#102 = VECTOR('',#103,1.);
#103 = DIRECTION('',(1.,0.,0.));
#104 = ORIENTED_EDGE('',*,*,#105,.F.);
#105 = EDGE_CURVE('',#58,#96,#106,.T.);
#106 = LINE('',#107,#108);
#107 = CARTESIAN_POINT('',(-2.09399967348,-0.75,1.15));
#108 = VECTOR('',#109,1.);
#109 = DIRECTION('',(0.,-2.22044604925E-16,-1.));
#110 = ORIENTED_EDGE('',*,*,#55,.F.);
#111 = ORIENTED_EDGE('',*,*,#112,.F.);
#112 = EDGE_CURVE('',#98,#56,#113,.T.);
#113 = LINE('',#114,#115);
#114 = CARTESIAN_POINT('',(2.09399967348,-0.75,-1.15));
#115 = VECTOR('',#116,1.);
#116 = DIRECTION('',(0.,2.22044604925E-16,1.));
#117 = PLANE('',#118);
#118 = AXIS2_PLACEMENT_3D('',#119,#120,#121);
#119 = CARTESIAN_POINT('',(0.,-0.75,1.665334536938E-16));
#120 = DIRECTION('',(0.,1.,0.));
#121 = DIRECTION('',(0.,0.,1.));
#122 = ADVANCED_FACE('',(#123),#141,.T.);
#123 = FACE_BOUND('',#124,.T.);
#124 = EDGE_LOOP('',(#125,#133,#139,#140));
#125 = ORIENTED_EDGE('',*,*,#126,.F.);
#126 = EDGE_CURVE('',#127,#98,#129,.T.);
#127 = VERTEX_POINT('',#128);
#128 = CARTESIAN_POINT('',(2.25,0.36,-1.25));
#129 = LINE('',#130,#131);
#130 = CARTESIAN_POINT('',(2.129204846931,-0.499502174758,
    -1.172567371643));
#131 = VECTOR('',#132,1.);
#132 = DIRECTION('',(-0.138622544463,-0.986350655713,8.886041943357E-02)
  );
#133 = ORIENTED_EDGE('',*,*,#134,.T.);
#134 = EDGE_CURVE('',#127,#66,#135,.T.);
#135 = LINE('',#136,#137);
#136 = CARTESIAN_POINT('',(2.25,0.36,-1.15));
#137 = VECTOR('',#138,1.);
#138 = DIRECTION('',(0.,2.22044604925E-16,1.));
#139 = ORIENTED_EDGE('',*,*,#65,.T.);
#140 = ORIENTED_EDGE('',*,*,#112,.F.);
#141 = PLANE('',#142);
#142 = AXIS2_PLACEMENT_3D('',#143,#144,#145);
#143 = CARTESIAN_POINT('',(2.17199983674,-0.195,-1.15));
#144 = DIRECTION('',(0.990268068742,-0.13917310096,-1.745587304241E-18)
  );
#145 = DIRECTION('',(3.233049325607E-17,2.175008504165E-16,1.));
#146 = ADVANCED_FACE('',(#147),#165,.T.);
#147 = FACE_BOUND('',#148,.T.);
#148 = EDGE_LOOP('',(#149,#150,#158,#164));
#149 = ORIENTED_EDGE('',*,*,#81,.F.);
#150 = ORIENTED_EDGE('',*,*,#151,.T.);
#151 = EDGE_CURVE('',#74,#152,#154,.T.);
#152 = VERTEX_POINT('',#153);
#153 = CARTESIAN_POINT('',(-2.25,0.36,-1.25));
#154 = LINE('',#155,#156);
#155 = CARTESIAN_POINT('',(-2.25,0.36,1.15));
#156 = VECTOR('',#157,1.);
#157 = DIRECTION('',(0.,-2.22044604925E-16,-1.));
#158 = ORIENTED_EDGE('',*,*,#159,.T.);
#159 = EDGE_CURVE('',#152,#96,#160,.T.);
#160 = LINE('',#161,#162);
#161 = CARTESIAN_POINT('',(-2.158275552996,-0.292653353017,
    -1.191202400629));
#162 = VECTOR('',#163,1.);
#163 = DIRECTION('',(0.138622544463,-0.986350655713,8.886041943357E-02)
  );
#164 = ORIENTED_EDGE('',*,*,#105,.F.);
#165 = PLANE('',#166);
#166 = AXIS2_PLACEMENT_3D('',#167,#168,#169);
#167 = CARTESIAN_POINT('',(-2.17199983674,-0.195,1.15));
#168 = DIRECTION('',(-0.990268068742,-0.13917310096,1.745587304241E-18)
  );
#169 = DIRECTION('',(2.887329451889E-17,-2.179867280127E-16,-1.));
#170 = ADVANCED_FACE('',(#171),#196,.F.);
#171 = FACE_BOUND('',#172,.F.);
#172 = EDGE_LOOP('',(#173,#181,#182,#190));
#173 = ORIENTED_EDGE('',*,*,#174,.T.);
#174 = EDGE_CURVE('',#175,#66,#177,.T.);
#175 = VERTEX_POINT('',#176);
#176 = CARTESIAN_POINT('',(2.25,0.37,1.25));
#177 = LINE('',#178,#179);
#178 = CARTESIAN_POINT('',(2.25,0.75,1.25));
#179 = VECTOR('',#180,1.);
#180 = DIRECTION('',(0.,-1.,2.22044604925E-16));
#181 = ORIENTED_EDGE('',*,*,#73,.T.);
#182 = ORIENTED_EDGE('',*,*,#183,.F.);
#183 = EDGE_CURVE('',#184,#74,#186,.T.);
#184 = VERTEX_POINT('',#185);
#185 = CARTESIAN_POINT('',(-2.25,0.37,1.25));
#186 = LINE('',#187,#188);
#187 = CARTESIAN_POINT('',(-2.25,0.75,1.25));
#188 = VECTOR('',#189,1.);
#189 = DIRECTION('',(0.,-1.,2.22044604925E-16));
#190 = ORIENTED_EDGE('',*,*,#191,.F.);
#191 = EDGE_CURVE('',#175,#184,#192,.T.);
#192 = LINE('',#193,#194);
#193 = CARTESIAN_POINT('',(2.25,0.37,1.25));
#194 = VECTOR('',#195,1.);
#195 = DIRECTION('',(-1.,0.,0.));
#196 = PLANE('',#197);
#197 = AXIS2_PLACEMENT_3D('',#198,#199,#200);
#198 = CARTESIAN_POINT('',(2.25,0.75,1.25));
#199 = DIRECTION('',(-0.,-2.22044604925E-16,-1.));
#200 = DIRECTION('',(-1.,0.,0.));
#201 = ADVANCED_FACE('',(#202),#213,.T.);
#202 = FACE_BOUND('',#203,.F.);
#203 = EDGE_LOOP('',(#204,#205,#206,#212));
#204 = ORIENTED_EDGE('',*,*,#95,.T.);
#205 = ORIENTED_EDGE('',*,*,#126,.F.);
#206 = ORIENTED_EDGE('',*,*,#207,.F.);
#207 = EDGE_CURVE('',#152,#127,#208,.T.);
#208 = LINE('',#209,#210);
#209 = CARTESIAN_POINT('',(-2.25,0.36,-1.25));
#210 = VECTOR('',#211,1.);
#211 = DIRECTION('',(1.,0.,0.));
#212 = ORIENTED_EDGE('',*,*,#159,.T.);
#213 = PLANE('',#214);
#214 = AXIS2_PLACEMENT_3D('',#215,#216,#217);
#215 = CARTESIAN_POINT('',(-2.25,-0.195,-1.2));
#216 = DIRECTION('',(1.745463727883E-18,-8.972670489621E-02,
    -0.995966424348));
#217 = DIRECTION('',(-1.,-1.566147088188E-19,-1.738423267888E-18));
#218 = ADVANCED_FACE('',(#219),#253,.F.);
#219 = FACE_BOUND('',#220,.F.);
#220 = EDGE_LOOP('',(#221,#222,#223,#231,#239,#247));
#221 = ORIENTED_EDGE('',*,*,#134,.T.);
#222 = ORIENTED_EDGE('',*,*,#174,.F.);
#223 = ORIENTED_EDGE('',*,*,#224,.T.);
#224 = EDGE_CURVE('',#175,#225,#227,.T.);
#225 = VERTEX_POINT('',#226);
#226 = CARTESIAN_POINT('',(2.25,0.75,1.15));
#227 = LINE('',#228,#229);
#228 = CARTESIAN_POINT('',(2.25,0.950336787565,1.097279792746));
#229 = VECTOR('',#230,1.);
#230 = DIRECTION('',(0.,0.967074537263,-0.25449329928));
#231 = ORIENTED_EDGE('',*,*,#232,.F.);
#232 = EDGE_CURVE('',#233,#225,#235,.T.);
#233 = VERTEX_POINT('',#234);
#234 = CARTESIAN_POINT('',(2.25,0.75,-1.15));
#235 = LINE('',#236,#237);
#236 = CARTESIAN_POINT('',(2.25,0.75,-1.25));
#237 = VECTOR('',#238,1.);
#238 = DIRECTION('',(0.,2.22044604925E-16,1.));
#239 = ORIENTED_EDGE('',*,*,#240,.F.);
#240 = EDGE_CURVE('',#241,#233,#243,.T.);
#241 = VERTEX_POINT('',#242);
#242 = CARTESIAN_POINT('',(2.25,0.37,-1.25));
#243 = LINE('',#244,#245);
#244 = CARTESIAN_POINT('',(2.25,0.642694300518,-1.178238341969));
#245 = VECTOR('',#246,1.);
#246 = DIRECTION('',(0.,0.967074537263,0.25449329928));
#247 = ORIENTED_EDGE('',*,*,#248,.T.);
#248 = EDGE_CURVE('',#241,#127,#249,.T.);
#249 = LINE('',#250,#251);
#250 = CARTESIAN_POINT('',(2.25,0.75,-1.25));
#251 = VECTOR('',#252,1.);
#252 = DIRECTION('',(0.,-1.,2.22044604925E-16));
#253 = PLANE('',#254);
#254 = AXIS2_PLACEMENT_3D('',#255,#256,#257);
#255 = CARTESIAN_POINT('',(2.25,0.75,-1.25));
#256 = DIRECTION('',(-1.,0.,0.));
#257 = DIRECTION('',(0.,2.22044604925E-16,1.));
#258 = ADVANCED_FACE('',(#259),#293,.F.);
#259 = FACE_BOUND('',#260,.F.);
#260 = EDGE_LOOP('',(#261,#262,#270,#278,#286,#292));
#261 = ORIENTED_EDGE('',*,*,#151,.T.);
#262 = ORIENTED_EDGE('',*,*,#263,.F.);
#263 = EDGE_CURVE('',#264,#152,#266,.T.);
#264 = VERTEX_POINT('',#265);
#265 = CARTESIAN_POINT('',(-2.25,0.37,-1.25));
#266 = LINE('',#267,#268);
#267 = CARTESIAN_POINT('',(-2.25,0.75,-1.25));
#268 = VECTOR('',#269,1.);
#269 = DIRECTION('',(0.,-1.,2.22044604925E-16));
#270 = ORIENTED_EDGE('',*,*,#271,.T.);
#271 = EDGE_CURVE('',#264,#272,#274,.T.);
#272 = VERTEX_POINT('',#273);
#273 = CARTESIAN_POINT('',(-2.25,0.75,-1.15));
#274 = LINE('',#275,#276);
#275 = CARTESIAN_POINT('',(-2.25,0.950336787565,-1.097279792746));
#276 = VECTOR('',#277,1.);
#277 = DIRECTION('',(0.,0.967074537263,0.25449329928));
#278 = ORIENTED_EDGE('',*,*,#279,.F.);
#279 = EDGE_CURVE('',#280,#272,#282,.T.);
#280 = VERTEX_POINT('',#281);
#281 = CARTESIAN_POINT('',(-2.25,0.75,1.15));
#282 = LINE('',#283,#284);
#283 = CARTESIAN_POINT('',(-2.25,0.75,1.25));
#284 = VECTOR('',#285,1.);
#285 = DIRECTION('',(0.,-2.22044604925E-16,-1.));
#286 = ORIENTED_EDGE('',*,*,#287,.F.);
#287 = EDGE_CURVE('',#184,#280,#288,.T.);
#288 = LINE('',#289,#290);
#289 = CARTESIAN_POINT('',(-2.25,0.642694300518,1.178238341969));
#290 = VECTOR('',#291,1.);
#291 = DIRECTION('',(0.,0.967074537263,-0.25449329928));
#292 = ORIENTED_EDGE('',*,*,#183,.T.);
#293 = PLANE('',#294);
#294 = AXIS2_PLACEMENT_3D('',#295,#296,#297);
#295 = CARTESIAN_POINT('',(-2.25,0.75,1.25));
#296 = DIRECTION('',(1.,0.,0.));
#297 = DIRECTION('',(0.,-2.22044604925E-16,-1.));
#298 = ADVANCED_FACE('',(#299),#310,.F.);
#299 = FACE_BOUND('',#300,.F.);
#300 = EDGE_LOOP('',(#301,#302,#303,#304));
#301 = ORIENTED_EDGE('',*,*,#224,.F.);
#302 = ORIENTED_EDGE('',*,*,#191,.T.);
#303 = ORIENTED_EDGE('',*,*,#287,.T.);
#304 = ORIENTED_EDGE('',*,*,#305,.F.);
#305 = EDGE_CURVE('',#225,#280,#306,.T.);
#306 = LINE('',#307,#308);
#307 = CARTESIAN_POINT('',(2.25,0.75,1.15));
#308 = VECTOR('',#309,1.);
#309 = DIRECTION('',(-1.,0.,0.));
#310 = PLANE('',#311);
#311 = AXIS2_PLACEMENT_3D('',#312,#313,#314);
#312 = CARTESIAN_POINT('',(2.25,0.56,1.2));
#313 = DIRECTION('',(0.,-0.25449329928,-0.967074537263));
#314 = DIRECTION('',(-1.,0.,0.));
#315 = ADVANCED_FACE('',(#316),#327,.F.);
#316 = FACE_BOUND('',#317,.F.);
#317 = EDGE_LOOP('',(#318,#319,#320,#321));
#318 = ORIENTED_EDGE('',*,*,#263,.T.);
#319 = ORIENTED_EDGE('',*,*,#207,.T.);
#320 = ORIENTED_EDGE('',*,*,#248,.F.);
#321 = ORIENTED_EDGE('',*,*,#322,.F.);
#322 = EDGE_CURVE('',#264,#241,#323,.T.);
#323 = LINE('',#324,#325);
#324 = CARTESIAN_POINT('',(-2.25,0.37,-1.25));
#325 = VECTOR('',#326,1.);
#326 = DIRECTION('',(1.,0.,0.));
#327 = PLANE('',#328);
#328 = AXIS2_PLACEMENT_3D('',#329,#330,#331);
#329 = CARTESIAN_POINT('',(-2.25,0.75,-1.25));
#330 = DIRECTION('',(0.,2.22044604925E-16,1.));
#331 = DIRECTION('',(1.,0.,0.));
#332 = ADVANCED_FACE('',(#333),#344,.F.);
#333 = FACE_BOUND('',#334,.F.);
#334 = EDGE_LOOP('',(#335,#336,#337,#338));
#335 = ORIENTED_EDGE('',*,*,#271,.F.);
#336 = ORIENTED_EDGE('',*,*,#322,.T.);
#337 = ORIENTED_EDGE('',*,*,#240,.T.);
#338 = ORIENTED_EDGE('',*,*,#339,.F.);
#339 = EDGE_CURVE('',#272,#233,#340,.T.);
#340 = LINE('',#341,#342);
#341 = CARTESIAN_POINT('',(-2.25,0.75,-1.15));
#342 = VECTOR('',#343,1.);
#343 = DIRECTION('',(1.,0.,0.));
#344 = PLANE('',#345);
#345 = AXIS2_PLACEMENT_3D('',#346,#347,#348);
#346 = CARTESIAN_POINT('',(-2.25,0.56,-1.2));
#347 = DIRECTION('',(0.,-0.25449329928,0.967074537263));
#348 = DIRECTION('',(1.,0.,0.));
#349 = ADVANCED_FACE('',(#350),#356,.T.);
#350 = FACE_BOUND('',#351,.T.);
#351 = EDGE_LOOP('',(#352,#353,#354,#355));
#352 = ORIENTED_EDGE('',*,*,#279,.F.);
#353 = ORIENTED_EDGE('',*,*,#305,.F.);
#354 = ORIENTED_EDGE('',*,*,#232,.F.);
#355 = ORIENTED_EDGE('',*,*,#339,.F.);
#356 = PLANE('',#357);
#357 = AXIS2_PLACEMENT_3D('',#358,#359,#360);
#358 = CARTESIAN_POINT('',(0.,0.75,-1.665334536938E-16));
#359 = DIRECTION('',(0.,1.,0.));
#360 = DIRECTION('',(0.,0.,1.));
#361 = ( GEOMETRIC_REPRESENTATION_CONTEXT(3) 
GLOBAL_UNCERTAINTY_ASSIGNED_CONTEXT((#365)) GLOBAL_UNIT_ASSIGNED_CONTEXT
((#362,#363,#364)) REPRESENTATION_CONTEXT('Context #1',
  '3D Context with UNIT and UNCERTAINTY') );
#362 = ( LENGTH_UNIT() NAMED_UNIT(*) SI_UNIT(.MILLI.,.METRE.) );
#363 = ( NAMED_UNIT(*) PLANE_ANGLE_UNIT() SI_UNIT($,.RADIAN.) );
#364 = ( NAMED_UNIT(*) SI_UNIT($,.STERADIAN.) SOLID_ANGLE_UNIT() );
#365 = UNCERTAINTY_MEASURE_WITH_UNIT(LENGTH_MEASURE(1.E-07),#362,
  'distance_accuracy_value','confusion accuracy');
#366 = CONTEXT_DEPENDENT_SHAPE_REPRESENTATION(#367,#369);
#367 = ( REPRESENTATION_RELATIONSHIP('','',#48,#10) 
REPRESENTATION_RELATIONSHIP_WITH_TRANSFORMATION(#368) 
SHAPE_REPRESENTATION_RELATIONSHIP() );
#368 = ITEM_DEFINED_TRANSFORMATION('','',#11,#15);
#369 = PRODUCT_DEFINITION_SHAPE('Placement','Placement of an item',#370
  );
#370 = NEXT_ASSEMBLY_USAGE_OCCURRENCE('7','BODY','',#5,#43,$);
#371 = PRODUCT_RELATED_PRODUCT_CATEGORY('part',$,(#45));
#372 = SHAPE_DEFINITION_REPRESENTATION(#373,#379);
#373 = PRODUCT_DEFINITION_SHAPE('','',#374);
#374 = PRODUCT_DEFINITION('design','',#375,#378);
#375 = PRODUCT_DEFINITION_FORMATION('','',#376);
#376 = PRODUCT('Chamfer004','Chamfer004','',(#377));
#377 = PRODUCT_CONTEXT('',#2,'mechanical');
#378 = PRODUCT_DEFINITION_CONTEXT('part definition',#2,'design');
#379 = ADVANCED_BREP_SHAPE_REPRESENTATION('',(#11,#380),#692);
#380 = MANIFOLD_SOLID_BREP('',#381);
#381 = CLOSED_SHELL('',(#382,#422,#453,#477,#501,#532,#549,#589,#629,
    #646,#663,#680));
#382 = ADVANCED_FACE('',(#383),#417,.T.);
#383 = FACE_BOUND('',#384,.T.);
#384 = EDGE_LOOP('',(#385,#395,#403,#411));
#385 = ORIENTED_EDGE('',*,*,#386,.F.);
#386 = EDGE_CURVE('',#387,#389,#391,.T.);
#387 = VERTEX_POINT('',#388);
#388 = CARTESIAN_POINT('',(2.09399967348,-0.75,1.15));
#389 = VERTEX_POINT('',#390);
#390 = CARTESIAN_POINT('',(-2.09399967348,-0.75,1.15));
#391 = LINE('',#392,#393);
#392 = CARTESIAN_POINT('',(2.25,-0.75,1.15));
#393 = VECTOR('',#394,1.);
#394 = DIRECTION('',(-1.,0.,0.));
#395 = ORIENTED_EDGE('',*,*,#396,.F.);
#396 = EDGE_CURVE('',#397,#387,#399,.T.);
#397 = VERTEX_POINT('',#398);
#398 = CARTESIAN_POINT('',(2.25,0.36,1.25));
#399 = LINE('',#400,#401);
#400 = CARTESIAN_POINT('',(2.158275552996,-0.292653353017,1.191202400629
    ));
#401 = VECTOR('',#402,1.);
#402 = DIRECTION('',(-0.138622544463,-0.986350655713,-8.886041943357E-02
    ));
#403 = ORIENTED_EDGE('',*,*,#404,.T.);
#404 = EDGE_CURVE('',#397,#405,#407,.T.);
#405 = VERTEX_POINT('',#406);
#406 = CARTESIAN_POINT('',(-2.25,0.36,1.25));
#407 = LINE('',#408,#409);
#408 = CARTESIAN_POINT('',(2.25,0.36,1.25));
#409 = VECTOR('',#410,1.);
#410 = DIRECTION('',(-1.,0.,0.));
#411 = ORIENTED_EDGE('',*,*,#412,.T.);
#412 = EDGE_CURVE('',#405,#389,#413,.T.);
#413 = LINE('',#414,#415);
#414 = CARTESIAN_POINT('',(-2.129204846931,-0.499502174758,
    1.172567371643));
#415 = VECTOR('',#416,1.);
#416 = DIRECTION('',(0.138622544463,-0.986350655713,-8.886041943357E-02)
  );
#417 = PLANE('',#418);
#418 = AXIS2_PLACEMENT_3D('',#419,#420,#421);
#419 = CARTESIAN_POINT('',(2.25,-0.195,1.2));
#420 = DIRECTION('',(0.,-8.972670489621E-02,0.995966424348));
#421 = DIRECTION('',(-1.,0.,0.));
#422 = ADVANCED_FACE('',(#423),#448,.F.);
#423 = FACE_BOUND('',#424,.F.);
#424 = EDGE_LOOP('',(#425,#435,#441,#442));
#425 = ORIENTED_EDGE('',*,*,#426,.F.);
#426 = EDGE_CURVE('',#427,#429,#431,.T.);
#427 = VERTEX_POINT('',#428);
#428 = CARTESIAN_POINT('',(-2.09399967348,-0.75,-1.15));
#429 = VERTEX_POINT('',#430);
#430 = CARTESIAN_POINT('',(2.09399967348,-0.75,-1.15));
#431 = LINE('',#432,#433);
#432 = CARTESIAN_POINT('',(-2.25,-0.75,-1.15));
#433 = VECTOR('',#434,1.);
#434 = DIRECTION('',(1.,0.,0.));
#435 = ORIENTED_EDGE('',*,*,#436,.F.);
#436 = EDGE_CURVE('',#389,#427,#437,.T.);
#437 = LINE('',#438,#439);
#438 = CARTESIAN_POINT('',(-2.09399967348,-0.75,1.15));
#439 = VECTOR('',#440,1.);
#440 = DIRECTION('',(0.,-2.22044604925E-16,-1.));
#441 = ORIENTED_EDGE('',*,*,#386,.F.);
#442 = ORIENTED_EDGE('',*,*,#443,.F.);
#443 = EDGE_CURVE('',#429,#387,#444,.T.);
#444 = LINE('',#445,#446);
#445 = CARTESIAN_POINT('',(2.09399967348,-0.75,-1.15));
#446 = VECTOR('',#447,1.);
#447 = DIRECTION('',(0.,2.22044604925E-16,1.));
#448 = PLANE('',#449);
#449 = AXIS2_PLACEMENT_3D('',#450,#451,#452);
#450 = CARTESIAN_POINT('',(0.,-0.75,1.665334536938E-16));
#451 = DIRECTION('',(0.,1.,0.));
#452 = DIRECTION('',(0.,0.,1.));
#453 = ADVANCED_FACE('',(#454),#472,.T.);
#454 = FACE_BOUND('',#455,.T.);
#455 = EDGE_LOOP('',(#456,#464,#470,#471));
#456 = ORIENTED_EDGE('',*,*,#457,.F.);
#457 = EDGE_CURVE('',#458,#429,#460,.T.);
#458 = VERTEX_POINT('',#459);
#459 = CARTESIAN_POINT('',(2.25,0.36,-1.25));
#460 = LINE('',#461,#462);
#461 = CARTESIAN_POINT('',(2.129204846931,-0.499502174758,
    -1.172567371643));
#462 = VECTOR('',#463,1.);
#463 = DIRECTION('',(-0.138622544463,-0.986350655713,8.886041943357E-02)
  );
#464 = ORIENTED_EDGE('',*,*,#465,.T.);
#465 = EDGE_CURVE('',#458,#397,#466,.T.);
#466 = LINE('',#467,#468);
#467 = CARTESIAN_POINT('',(2.25,0.36,-1.15));
#468 = VECTOR('',#469,1.);
#469 = DIRECTION('',(0.,2.22044604925E-16,1.));
#470 = ORIENTED_EDGE('',*,*,#396,.T.);
#471 = ORIENTED_EDGE('',*,*,#443,.F.);
#472 = PLANE('',#473);
#473 = AXIS2_PLACEMENT_3D('',#474,#475,#476);
#474 = CARTESIAN_POINT('',(2.17199983674,-0.195,-1.15));
#475 = DIRECTION('',(0.990268068742,-0.13917310096,-1.745587304241E-18)
  );
#476 = DIRECTION('',(3.233049325607E-17,2.175008504165E-16,1.));
#477 = ADVANCED_FACE('',(#478),#496,.T.);
#478 = FACE_BOUND('',#479,.T.);
#479 = EDGE_LOOP('',(#480,#481,#489,#495));
#480 = ORIENTED_EDGE('',*,*,#412,.F.);
#481 = ORIENTED_EDGE('',*,*,#482,.T.);
#482 = EDGE_CURVE('',#405,#483,#485,.T.);
#483 = VERTEX_POINT('',#484);
#484 = CARTESIAN_POINT('',(-2.25,0.36,-1.25));
#485 = LINE('',#486,#487);
#486 = CARTESIAN_POINT('',(-2.25,0.36,1.15));
#487 = VECTOR('',#488,1.);
#488 = DIRECTION('',(0.,-2.22044604925E-16,-1.));
#489 = ORIENTED_EDGE('',*,*,#490,.T.);
#490 = EDGE_CURVE('',#483,#427,#491,.T.);
#491 = LINE('',#492,#493);
#492 = CARTESIAN_POINT('',(-2.158275552996,-0.292653353017,
    -1.191202400629));
#493 = VECTOR('',#494,1.);
#494 = DIRECTION('',(0.138622544463,-0.986350655713,8.886041943357E-02)
  );
#495 = ORIENTED_EDGE('',*,*,#436,.F.);
#496 = PLANE('',#497);
#497 = AXIS2_PLACEMENT_3D('',#498,#499,#500);
#498 = CARTESIAN_POINT('',(-2.17199983674,-0.195,1.15));
#499 = DIRECTION('',(-0.990268068742,-0.13917310096,1.745587304241E-18)
  );
#500 = DIRECTION('',(2.887329451889E-17,-2.179867280127E-16,-1.));
#501 = ADVANCED_FACE('',(#502),#527,.F.);
#502 = FACE_BOUND('',#503,.F.);
#503 = EDGE_LOOP('',(#504,#512,#513,#521));
#504 = ORIENTED_EDGE('',*,*,#505,.T.);
#505 = EDGE_CURVE('',#506,#397,#508,.T.);
#506 = VERTEX_POINT('',#507);
#507 = CARTESIAN_POINT('',(2.25,0.37,1.25));
#508 = LINE('',#509,#510);
#509 = CARTESIAN_POINT('',(2.25,0.75,1.25));
#510 = VECTOR('',#511,1.);
#511 = DIRECTION('',(0.,-1.,2.22044604925E-16));
#512 = ORIENTED_EDGE('',*,*,#404,.T.);
#513 = ORIENTED_EDGE('',*,*,#514,.F.);
#514 = EDGE_CURVE('',#515,#405,#517,.T.);
#515 = VERTEX_POINT('',#516);
#516 = CARTESIAN_POINT('',(-2.25,0.37,1.25));
#517 = LINE('',#518,#519);
#518 = CARTESIAN_POINT('',(-2.25,0.75,1.25));
#519 = VECTOR('',#520,1.);
#520 = DIRECTION('',(0.,-1.,2.22044604925E-16));
#521 = ORIENTED_EDGE('',*,*,#522,.F.);
#522 = EDGE_CURVE('',#506,#515,#523,.T.);
#523 = LINE('',#524,#525);
#524 = CARTESIAN_POINT('',(2.25,0.37,1.25));
#525 = VECTOR('',#526,1.);
#526 = DIRECTION('',(-1.,0.,0.));
#527 = PLANE('',#528);
#528 = AXIS2_PLACEMENT_3D('',#529,#530,#531);
#529 = CARTESIAN_POINT('',(2.25,0.75,1.25));
#530 = DIRECTION('',(-0.,-2.22044604925E-16,-1.));
#531 = DIRECTION('',(-1.,0.,0.));
#532 = ADVANCED_FACE('',(#533),#544,.T.);
#533 = FACE_BOUND('',#534,.F.);
#534 = EDGE_LOOP('',(#535,#536,#537,#543));
#535 = ORIENTED_EDGE('',*,*,#426,.T.);
#536 = ORIENTED_EDGE('',*,*,#457,.F.);
#537 = ORIENTED_EDGE('',*,*,#538,.F.);
#538 = EDGE_CURVE('',#483,#458,#539,.T.);
#539 = LINE('',#540,#541);
#540 = CARTESIAN_POINT('',(-2.25,0.36,-1.25));
#541 = VECTOR('',#542,1.);
#542 = DIRECTION('',(1.,0.,0.));
#543 = ORIENTED_EDGE('',*,*,#490,.T.);
#544 = PLANE('',#545);
#545 = AXIS2_PLACEMENT_3D('',#546,#547,#548);
#546 = CARTESIAN_POINT('',(-2.25,-0.195,-1.2));
#547 = DIRECTION('',(1.745463727883E-18,-8.972670489621E-02,
    -0.995966424348));
#548 = DIRECTION('',(-1.,-1.566147088188E-19,-1.738423267888E-18));
#549 = ADVANCED_FACE('',(#550),#584,.F.);
#550 = FACE_BOUND('',#551,.F.);
#551 = EDGE_LOOP('',(#552,#553,#554,#562,#570,#578));
#552 = ORIENTED_EDGE('',*,*,#465,.T.);
#553 = ORIENTED_EDGE('',*,*,#505,.F.);
#554 = ORIENTED_EDGE('',*,*,#555,.T.);
#555 = EDGE_CURVE('',#506,#556,#558,.T.);
#556 = VERTEX_POINT('',#557);
#557 = CARTESIAN_POINT('',(2.25,0.75,1.15));
#558 = LINE('',#559,#560);
#559 = CARTESIAN_POINT('',(2.25,0.950336787565,1.097279792746));
#560 = VECTOR('',#561,1.);
#561 = DIRECTION('',(0.,0.967074537263,-0.25449329928));
#562 = ORIENTED_EDGE('',*,*,#563,.F.);
#563 = EDGE_CURVE('',#564,#556,#566,.T.);
#564 = VERTEX_POINT('',#565);
#565 = CARTESIAN_POINT('',(2.25,0.75,-1.15));
#566 = LINE('',#567,#568);
#567 = CARTESIAN_POINT('',(2.25,0.75,-1.25));
#568 = VECTOR('',#569,1.);
#569 = DIRECTION('',(0.,2.22044604925E-16,1.));
#570 = ORIENTED_EDGE('',*,*,#571,.F.);
#571 = EDGE_CURVE('',#572,#564,#574,.T.);
#572 = VERTEX_POINT('',#573);
#573 = CARTESIAN_POINT('',(2.25,0.37,-1.25));
#574 = LINE('',#575,#576);
#575 = CARTESIAN_POINT('',(2.25,0.642694300518,-1.178238341969));
#576 = VECTOR('',#577,1.);
#577 = DIRECTION('',(0.,0.967074537263,0.25449329928));
#578 = ORIENTED_EDGE('',*,*,#579,.T.);
#579 = EDGE_CURVE('',#572,#458,#580,.T.);
#580 = LINE('',#581,#582);
#581 = CARTESIAN_POINT('',(2.25,0.75,-1.25));
#582 = VECTOR('',#583,1.);
#583 = DIRECTION('',(0.,-1.,2.22044604925E-16));
#584 = PLANE('',#585);
#585 = AXIS2_PLACEMENT_3D('',#586,#587,#588);
#586 = CARTESIAN_POINT('',(2.25,0.75,-1.25));
#587 = DIRECTION('',(-1.,0.,0.));
#588 = DIRECTION('',(0.,2.22044604925E-16,1.));
#589 = ADVANCED_FACE('',(#590),#624,.F.);
#590 = FACE_BOUND('',#591,.F.);
#591 = EDGE_LOOP('',(#592,#593,#601,#609,#617,#623));
#592 = ORIENTED_EDGE('',*,*,#482,.T.);
#593 = ORIENTED_EDGE('',*,*,#594,.F.);
#594 = EDGE_CURVE('',#595,#483,#597,.T.);
#595 = VERTEX_POINT('',#596);
#596 = CARTESIAN_POINT('',(-2.25,0.37,-1.25));
#597 = LINE('',#598,#599);
#598 = CARTESIAN_POINT('',(-2.25,0.75,-1.25));
#599 = VECTOR('',#600,1.);
#600 = DIRECTION('',(0.,-1.,2.22044604925E-16));
#601 = ORIENTED_EDGE('',*,*,#602,.T.);
#602 = EDGE_CURVE('',#595,#603,#605,.T.);
#603 = VERTEX_POINT('',#604);
#604 = CARTESIAN_POINT('',(-2.25,0.75,-1.15));
#605 = LINE('',#606,#607);
#606 = CARTESIAN_POINT('',(-2.25,0.950336787565,-1.097279792746));
#607 = VECTOR('',#608,1.);
#608 = DIRECTION('',(0.,0.967074537263,0.25449329928));
#609 = ORIENTED_EDGE('',*,*,#610,.F.);
#610 = EDGE_CURVE('',#611,#603,#613,.T.);
#611 = VERTEX_POINT('',#612);
#612 = CARTESIAN_POINT('',(-2.25,0.75,1.15));
#613 = LINE('',#614,#615);
#614 = CARTESIAN_POINT('',(-2.25,0.75,1.25));
#615 = VECTOR('',#616,1.);
#616 = DIRECTION('',(0.,-2.22044604925E-16,-1.));
#617 = ORIENTED_EDGE('',*,*,#618,.F.);
#618 = EDGE_CURVE('',#515,#611,#619,.T.);
#619 = LINE('',#620,#621);
#620 = CARTESIAN_POINT('',(-2.25,0.642694300518,1.178238341969));
#621 = VECTOR('',#622,1.);
#622 = DIRECTION('',(0.,0.967074537263,-0.25449329928));
#623 = ORIENTED_EDGE('',*,*,#514,.T.);
#624 = PLANE('',#625);
#625 = AXIS2_PLACEMENT_3D('',#626,#627,#628);
#626 = CARTESIAN_POINT('',(-2.25,0.75,1.25));
#627 = DIRECTION('',(1.,0.,0.));
#628 = DIRECTION('',(0.,-2.22044604925E-16,-1.));
#629 = ADVANCED_FACE('',(#630),#641,.F.);
#630 = FACE_BOUND('',#631,.F.);
#631 = EDGE_LOOP('',(#632,#633,#634,#635));
#632 = ORIENTED_EDGE('',*,*,#555,.F.);
#633 = ORIENTED_EDGE('',*,*,#522,.T.);
#634 = ORIENTED_EDGE('',*,*,#618,.T.);
#635 = ORIENTED_EDGE('',*,*,#636,.F.);
#636 = EDGE_CURVE('',#556,#611,#637,.T.);
#637 = LINE('',#638,#639);
#638 = CARTESIAN_POINT('',(2.25,0.75,1.15));
#639 = VECTOR('',#640,1.);
#640 = DIRECTION('',(-1.,0.,0.));
#641 = PLANE('',#642);
#642 = AXIS2_PLACEMENT_3D('',#643,#644,#645);
#643 = CARTESIAN_POINT('',(2.25,0.56,1.2));
#644 = DIRECTION('',(0.,-0.25449329928,-0.967074537263));
#645 = DIRECTION('',(-1.,0.,0.));
#646 = ADVANCED_FACE('',(#647),#658,.F.);
#647 = FACE_BOUND('',#648,.F.);
#648 = EDGE_LOOP('',(#649,#650,#651,#652));
#649 = ORIENTED_EDGE('',*,*,#594,.T.);
#650 = ORIENTED_EDGE('',*,*,#538,.T.);
#651 = ORIENTED_EDGE('',*,*,#579,.F.);
#652 = ORIENTED_EDGE('',*,*,#653,.F.);
#653 = EDGE_CURVE('',#595,#572,#654,.T.);
#654 = LINE('',#655,#656);
#655 = CARTESIAN_POINT('',(-2.25,0.37,-1.25));
#656 = VECTOR('',#657,1.);
#657 = DIRECTION('',(1.,0.,0.));
#658 = PLANE('',#659);
#659 = AXIS2_PLACEMENT_3D('',#660,#661,#662);
#660 = CARTESIAN_POINT('',(-2.25,0.75,-1.25));
#661 = DIRECTION('',(0.,2.22044604925E-16,1.));
#662 = DIRECTION('',(1.,0.,0.));
#663 = ADVANCED_FACE('',(#664),#675,.F.);
#664 = FACE_BOUND('',#665,.F.);
#665 = EDGE_LOOP('',(#666,#667,#668,#669));
#666 = ORIENTED_EDGE('',*,*,#602,.F.);
#667 = ORIENTED_EDGE('',*,*,#653,.T.);
#668 = ORIENTED_EDGE('',*,*,#571,.T.);
#669 = ORIENTED_EDGE('',*,*,#670,.F.);
#670 = EDGE_CURVE('',#603,#564,#671,.T.);
#671 = LINE('',#672,#673);
#672 = CARTESIAN_POINT('',(-2.25,0.75,-1.15));
#673 = VECTOR('',#674,1.);
#674 = DIRECTION('',(1.,0.,0.));
#675 = PLANE('',#676);
#676 = AXIS2_PLACEMENT_3D('',#677,#678,#679);
#677 = CARTESIAN_POINT('',(-2.25,0.56,-1.2));
#678 = DIRECTION('',(0.,-0.25449329928,0.967074537263));
#679 = DIRECTION('',(1.,0.,0.));
#680 = ADVANCED_FACE('',(#681),#687,.T.);
#681 = FACE_BOUND('',#682,.T.);
#682 = EDGE_LOOP('',(#683,#684,#685,#686));
#683 = ORIENTED_EDGE('',*,*,#610,.F.);
#684 = ORIENTED_EDGE('',*,*,#636,.F.);
#685 = ORIENTED_EDGE('',*,*,#563,.F.);
#686 = ORIENTED_EDGE('',*,*,#670,.F.);
#687 = PLANE('',#688);
#688 = AXIS2_PLACEMENT_3D('',#689,#690,#691);
#689 = CARTESIAN_POINT('',(0.,0.75,-1.665334536938E-16));
#690 = DIRECTION('',(0.,1.,0.));
#691 = DIRECTION('',(0.,0.,1.));
#692 = ( GEOMETRIC_REPRESENTATION_CONTEXT(3) 
GLOBAL_UNCERTAINTY_ASSIGNED_CONTEXT((#696)) GLOBAL_UNIT_ASSIGNED_CONTEXT
((#693,#694,#695)) REPRESENTATION_CONTEXT('Context #1',
  '3D Context with UNIT and UNCERTAINTY') );
#693 = ( LENGTH_UNIT() NAMED_UNIT(*) SI_UNIT(.MILLI.,.METRE.) );
#694 = ( NAMED_UNIT(*) PLANE_ANGLE_UNIT() SI_UNIT($,.RADIAN.) );
#695 = ( NAMED_UNIT(*) SI_UNIT($,.STERADIAN.) SOLID_ANGLE_UNIT() );
#696 = UNCERTAINTY_MEASURE_WITH_UNIT(LENGTH_MEASURE(1.E-07),#693,
  'distance_accuracy_value','confusion accuracy');
#697 = CONTEXT_DEPENDENT_SHAPE_REPRESENTATION(#698,#700);
#698 = ( REPRESENTATION_RELATIONSHIP('','',#379,#10) 
REPRESENTATION_RELATIONSHIP_WITH_TRANSFORMATION(#699) 
SHAPE_REPRESENTATION_RELATIONSHIP() );
#699 = ITEM_DEFINED_TRANSFORMATION('','',#11,#19);
#700 = PRODUCT_DEFINITION_SHAPE('Placement','Placement of an item',#701
  );
#701 = NEXT_ASSEMBLY_USAGE_OCCURRENCE('8','Chamfer004','',#5,#374,$);
#702 = PRODUCT_RELATED_PRODUCT_CATEGORY('part',$,(#376));
#703 = SHAPE_DEFINITION_REPRESENTATION(#704,#710);
#704 = PRODUCT_DEFINITION_SHAPE('','',#705);
#705 = PRODUCT_DEFINITION('design','',#706,#709);
#706 = PRODUCT_DEFINITION_FORMATION('','',#707);
#707 = PRODUCT('PIN_CENTRAL','PIN_CENTRAL','',(#708));
#708 = PRODUCT_CONTEXT('',#2,'mechanical');
#709 = PRODUCT_DEFINITION_CONTEXT('part definition',#2,'design');
#710 = ADVANCED_BREP_SHAPE_REPRESENTATION('',(#11,#711),#1063);
#711 = MANIFOLD_SOLID_BREP('',#712);
#712 = CLOSED_SHELL('',(#713,#753,#784,#815,#846,#877,#908,#939,#972,
    #1003,#1027,#1045));
#713 = ADVANCED_FACE('',(#714),#748,.T.);
#714 = FACE_BOUND('',#715,.T.);
#715 = EDGE_LOOP('',(#716,#726,#734,#742));
#716 = ORIENTED_EDGE('',*,*,#717,.T.);
#717 = EDGE_CURVE('',#718,#720,#722,.T.);
#718 = VERTEX_POINT('',#719);
#719 = CARTESIAN_POINT('',(-0.8665,0.37,1.63));
#720 = VERTEX_POINT('',#721);
#721 = CARTESIAN_POINT('',(-0.8665,0.76,1.63));
#722 = LINE('',#723,#724);
#723 = CARTESIAN_POINT('',(-0.8665,0.37,1.63));
#724 = VECTOR('',#725,1.);
#725 = DIRECTION('',(0.,1.,-2.22044604925E-16));
#726 = ORIENTED_EDGE('',*,*,#727,.T.);
#727 = EDGE_CURVE('',#720,#728,#730,.T.);
#728 = VERTEX_POINT('',#729);
#729 = CARTESIAN_POINT('',(-0.8665,0.76,-0.95));
#730 = LINE('',#731,#732);
#731 = CARTESIAN_POINT('',(-0.8665,0.76,1.63));
#732 = VECTOR('',#733,1.);
#733 = DIRECTION('',(0.,-2.22044604925E-16,-1.));
#734 = ORIENTED_EDGE('',*,*,#735,.F.);
#735 = EDGE_CURVE('',#736,#728,#738,.T.);
#736 = VERTEX_POINT('',#737);
#737 = CARTESIAN_POINT('',(-0.8665,0.37,-0.95));
#738 = LINE('',#739,#740);
#739 = CARTESIAN_POINT('',(-0.8665,0.37,-0.95));
#740 = VECTOR('',#741,1.);
#741 = DIRECTION('',(0.,1.,-2.22044604925E-16));
#742 = ORIENTED_EDGE('',*,*,#743,.F.);
#743 = EDGE_CURVE('',#718,#736,#744,.T.);
#744 = LINE('',#745,#746);
#745 = CARTESIAN_POINT('',(-0.8665,0.37,1.63));
#746 = VECTOR('',#747,1.);
#747 = DIRECTION('',(0.,-2.22044604925E-16,-1.));
#748 = PLANE('',#749);
#749 = AXIS2_PLACEMENT_3D('',#750,#751,#752);
#750 = CARTESIAN_POINT('',(-0.8665,0.37,1.63));
#751 = DIRECTION('',(-1.,0.,0.));
#752 = DIRECTION('',(0.,-2.22044604925E-16,-1.));
#753 = ADVANCED_FACE('',(#754),#779,.T.);
#754 = FACE_BOUND('',#755,.T.);
#755 = EDGE_LOOP('',(#756,#757,#765,#773));
#756 = ORIENTED_EDGE('',*,*,#735,.T.);
#757 = ORIENTED_EDGE('',*,*,#758,.T.);
#758 = EDGE_CURVE('',#728,#759,#761,.T.);
#759 = VERTEX_POINT('',#760);
#760 = CARTESIAN_POINT('',(-0.28,0.76,-0.95));
#761 = LINE('',#762,#763);
#762 = CARTESIAN_POINT('',(-0.8665,0.76,-0.95));
#763 = VECTOR('',#764,1.);
#764 = DIRECTION('',(1.,0.,0.));
#765 = ORIENTED_EDGE('',*,*,#766,.F.);
#766 = EDGE_CURVE('',#767,#759,#769,.T.);
#767 = VERTEX_POINT('',#768);
#768 = CARTESIAN_POINT('',(-0.28,0.37,-0.95));
#769 = LINE('',#770,#771);
#770 = CARTESIAN_POINT('',(-0.28,0.37,-0.95));
#771 = VECTOR('',#772,1.);
#772 = DIRECTION('',(0.,1.,-2.22044604925E-16));
#773 = ORIENTED_EDGE('',*,*,#774,.F.);
#774 = EDGE_CURVE('',#736,#767,#775,.T.);
#775 = LINE('',#776,#777);
#776 = CARTESIAN_POINT('',(-0.8665,0.37,-0.95));
#777 = VECTOR('',#778,1.);
#778 = DIRECTION('',(1.,0.,0.));
#779 = PLANE('',#780);
#780 = AXIS2_PLACEMENT_3D('',#781,#782,#783);
#781 = CARTESIAN_POINT('',(-0.8665,0.37,-0.95));
#782 = DIRECTION('',(0.,-2.22044604925E-16,-1.));
#783 = DIRECTION('',(1.,0.,0.));
#784 = ADVANCED_FACE('',(#785),#810,.T.);
#785 = FACE_BOUND('',#786,.T.);
#786 = EDGE_LOOP('',(#787,#788,#796,#804));
#787 = ORIENTED_EDGE('',*,*,#766,.T.);
#788 = ORIENTED_EDGE('',*,*,#789,.T.);
#789 = EDGE_CURVE('',#759,#790,#792,.T.);
#790 = VERTEX_POINT('',#791);
#791 = CARTESIAN_POINT('',(-0.28,0.76,-2.3));
#792 = LINE('',#793,#794);
#793 = CARTESIAN_POINT('',(-0.28,0.76,-0.95));
#794 = VECTOR('',#795,1.);
#795 = DIRECTION('',(0.,-2.22044604925E-16,-1.));
#796 = ORIENTED_EDGE('',*,*,#797,.F.);
#797 = EDGE_CURVE('',#798,#790,#800,.T.);
#798 = VERTEX_POINT('',#799);
#799 = CARTESIAN_POINT('',(-0.28,0.37,-2.3));
#800 = LINE('',#801,#802);
#801 = CARTESIAN_POINT('',(-0.28,0.37,-2.3));
#802 = VECTOR('',#803,1.);
#803 = DIRECTION('',(0.,1.,-2.22044604925E-16));
#804 = ORIENTED_EDGE('',*,*,#805,.F.);
#805 = EDGE_CURVE('',#767,#798,#806,.T.);
#806 = LINE('',#807,#808);
#807 = CARTESIAN_POINT('',(-0.28,0.37,-0.95));
#808 = VECTOR('',#809,1.);
#809 = DIRECTION('',(0.,-2.22044604925E-16,-1.));
#810 = PLANE('',#811);
#811 = AXIS2_PLACEMENT_3D('',#812,#813,#814);
#812 = CARTESIAN_POINT('',(-0.28,0.37,-0.95));
#813 = DIRECTION('',(-1.,0.,0.));
#814 = DIRECTION('',(0.,-2.22044604925E-16,-1.));
#815 = ADVANCED_FACE('',(#816),#841,.T.);
#816 = FACE_BOUND('',#817,.T.);
#817 = EDGE_LOOP('',(#818,#819,#827,#835));
#818 = ORIENTED_EDGE('',*,*,#797,.T.);
#819 = ORIENTED_EDGE('',*,*,#820,.T.);
#820 = EDGE_CURVE('',#790,#821,#823,.T.);
#821 = VERTEX_POINT('',#822);
#822 = CARTESIAN_POINT('',(0.28,0.76,-2.3));
#823 = LINE('',#824,#825);
#824 = CARTESIAN_POINT('',(-0.28,0.76,-2.3));
#825 = VECTOR('',#826,1.);
#826 = DIRECTION('',(1.,0.,0.));
#827 = ORIENTED_EDGE('',*,*,#828,.F.);
#828 = EDGE_CURVE('',#829,#821,#831,.T.);
#829 = VERTEX_POINT('',#830);
#830 = CARTESIAN_POINT('',(0.28,0.37,-2.3));
#831 = LINE('',#832,#833);
#832 = CARTESIAN_POINT('',(0.28,0.37,-2.3));
#833 = VECTOR('',#834,1.);
#834 = DIRECTION('',(0.,1.,-2.22044604925E-16));
#835 = ORIENTED_EDGE('',*,*,#836,.F.);
#836 = EDGE_CURVE('',#798,#829,#837,.T.);
#837 = LINE('',#838,#839);
#838 = CARTESIAN_POINT('',(-0.28,0.37,-2.3));
#839 = VECTOR('',#840,1.);
#840 = DIRECTION('',(1.,0.,0.));
#841 = PLANE('',#842);
#842 = AXIS2_PLACEMENT_3D('',#843,#844,#845);
#843 = CARTESIAN_POINT('',(-0.28,0.37,-2.3));
#844 = DIRECTION('',(0.,-2.22044604925E-16,-1.));
#845 = DIRECTION('',(1.,0.,0.));
#846 = ADVANCED_FACE('',(#847),#872,.T.);
#847 = FACE_BOUND('',#848,.T.);
#848 = EDGE_LOOP('',(#849,#850,#858,#866));
#849 = ORIENTED_EDGE('',*,*,#828,.T.);
#850 = ORIENTED_EDGE('',*,*,#851,.T.);
#851 = EDGE_CURVE('',#821,#852,#854,.T.);
#852 = VERTEX_POINT('',#853);
#853 = CARTESIAN_POINT('',(0.28,0.76,-0.95));
#854 = LINE('',#855,#856);
#855 = CARTESIAN_POINT('',(0.28,0.76,-2.3));
#856 = VECTOR('',#857,1.);
#857 = DIRECTION('',(0.,2.22044604925E-16,1.));
#858 = ORIENTED_EDGE('',*,*,#859,.F.);
#859 = EDGE_CURVE('',#860,#852,#862,.T.);
#860 = VERTEX_POINT('',#861);
#861 = CARTESIAN_POINT('',(0.28,0.37,-0.95));
#862 = LINE('',#863,#864);
#863 = CARTESIAN_POINT('',(0.28,0.37,-0.95));
#864 = VECTOR('',#865,1.);
#865 = DIRECTION('',(0.,1.,-2.22044604925E-16));
#866 = ORIENTED_EDGE('',*,*,#867,.F.);
#867 = EDGE_CURVE('',#829,#860,#868,.T.);
#868 = LINE('',#869,#870);
#869 = CARTESIAN_POINT('',(0.28,0.37,-2.3));
#870 = VECTOR('',#871,1.);
#871 = DIRECTION('',(0.,2.22044604925E-16,1.));
#872 = PLANE('',#873);
#873 = AXIS2_PLACEMENT_3D('',#874,#875,#876);
#874 = CARTESIAN_POINT('',(0.28,0.37,-2.3));
#875 = DIRECTION('',(1.,0.,0.));
#876 = DIRECTION('',(0.,2.22044604925E-16,1.));
#877 = ADVANCED_FACE('',(#878),#903,.T.);
#878 = FACE_BOUND('',#879,.T.);
#879 = EDGE_LOOP('',(#880,#881,#889,#897));
#880 = ORIENTED_EDGE('',*,*,#859,.T.);
#881 = ORIENTED_EDGE('',*,*,#882,.T.);
#882 = EDGE_CURVE('',#852,#883,#885,.T.);
#883 = VERTEX_POINT('',#884);
#884 = CARTESIAN_POINT('',(0.8665,0.76,-0.95));
#885 = LINE('',#886,#887);
#886 = CARTESIAN_POINT('',(0.28,0.76,-0.95));
#887 = VECTOR('',#888,1.);
#888 = DIRECTION('',(1.,0.,0.));
#889 = ORIENTED_EDGE('',*,*,#890,.F.);
#890 = EDGE_CURVE('',#891,#883,#893,.T.);
#891 = VERTEX_POINT('',#892);
#892 = CARTESIAN_POINT('',(0.8665,0.37,-0.95));
#893 = LINE('',#894,#895);
#894 = CARTESIAN_POINT('',(0.8665,0.37,-0.95));
#895 = VECTOR('',#896,1.);
#896 = DIRECTION('',(0.,1.,-2.22044604925E-16));
#897 = ORIENTED_EDGE('',*,*,#898,.F.);
#898 = EDGE_CURVE('',#860,#891,#899,.T.);
#899 = LINE('',#900,#901);
#900 = CARTESIAN_POINT('',(0.28,0.37,-0.95));
#901 = VECTOR('',#902,1.);
#902 = DIRECTION('',(1.,0.,0.));
#903 = PLANE('',#904);
#904 = AXIS2_PLACEMENT_3D('',#905,#906,#907);
#905 = CARTESIAN_POINT('',(0.28,0.37,-0.95));
#906 = DIRECTION('',(0.,-2.22044604925E-16,-1.));
#907 = DIRECTION('',(1.,0.,0.));
#908 = ADVANCED_FACE('',(#909),#934,.T.);
#909 = FACE_BOUND('',#910,.T.);
#910 = EDGE_LOOP('',(#911,#912,#920,#928));
#911 = ORIENTED_EDGE('',*,*,#890,.T.);
#912 = ORIENTED_EDGE('',*,*,#913,.T.);
#913 = EDGE_CURVE('',#883,#914,#916,.T.);
#914 = VERTEX_POINT('',#915);
#915 = CARTESIAN_POINT('',(0.8665,0.76,1.63));
#916 = LINE('',#917,#918);
#917 = CARTESIAN_POINT('',(0.8665,0.76,-0.95));
#918 = VECTOR('',#919,1.);
#919 = DIRECTION('',(0.,2.22044604925E-16,1.));
#920 = ORIENTED_EDGE('',*,*,#921,.F.);
#921 = EDGE_CURVE('',#922,#914,#924,.T.);
#922 = VERTEX_POINT('',#923);
#923 = CARTESIAN_POINT('',(0.8665,0.37,1.63));
#924 = LINE('',#925,#926);
#925 = CARTESIAN_POINT('',(0.8665,0.37,1.63));
#926 = VECTOR('',#927,1.);
#927 = DIRECTION('',(0.,1.,-2.22044604925E-16));
#928 = ORIENTED_EDGE('',*,*,#929,.F.);
#929 = EDGE_CURVE('',#891,#922,#930,.T.);
#930 = LINE('',#931,#932);
#931 = CARTESIAN_POINT('',(0.8665,0.37,-0.95));
#932 = VECTOR('',#933,1.);
#933 = DIRECTION('',(0.,2.22044604925E-16,1.));
#934 = PLANE('',#935);
#935 = AXIS2_PLACEMENT_3D('',#936,#937,#938);
#936 = CARTESIAN_POINT('',(0.8665,0.37,-0.95));
#937 = DIRECTION('',(1.,0.,0.));
#938 = DIRECTION('',(0.,2.22044604925E-16,1.));
#939 = ADVANCED_FACE('',(#940),#967,.T.);
#940 = FACE_BOUND('',#941,.F.);
#941 = EDGE_LOOP('',(#942,#952,#959,#960));
#942 = ORIENTED_EDGE('',*,*,#943,.T.);
#943 = EDGE_CURVE('',#944,#946,#948,.T.);
#944 = VERTEX_POINT('',#945);
#945 = CARTESIAN_POINT('',(0.6665,0.37,1.83));
#946 = VERTEX_POINT('',#947);
#947 = CARTESIAN_POINT('',(0.6665,0.76,1.83));
#948 = LINE('',#949,#950);
#949 = CARTESIAN_POINT('',(0.6665,0.37,1.83));
#950 = VECTOR('',#951,1.);
#951 = DIRECTION('',(0.,1.,-2.22044604925E-16));
#952 = ORIENTED_EDGE('',*,*,#953,.T.);
#953 = EDGE_CURVE('',#946,#914,#954,.T.);
#954 = CIRCLE('',#955,0.2);
#955 = AXIS2_PLACEMENT_3D('',#956,#957,#958);
#956 = CARTESIAN_POINT('',(0.6665,0.76,1.63));
#957 = DIRECTION('',(0.,1.,-2.22044604925E-16));
#958 = DIRECTION('',(-1.,0.,0.));
#959 = ORIENTED_EDGE('',*,*,#921,.F.);
#960 = ORIENTED_EDGE('',*,*,#961,.F.);
#961 = EDGE_CURVE('',#944,#922,#962,.T.);
#962 = CIRCLE('',#963,0.2);
#963 = AXIS2_PLACEMENT_3D('',#964,#965,#966);
#964 = CARTESIAN_POINT('',(0.6665,0.37,1.63));
#965 = DIRECTION('',(0.,1.,-2.22044604925E-16));
#966 = DIRECTION('',(-1.,0.,0.));
#967 = CYLINDRICAL_SURFACE('',#968,0.2);
#968 = AXIS2_PLACEMENT_3D('',#969,#970,#971);
#969 = CARTESIAN_POINT('',(0.6665,0.37,1.63));
#970 = DIRECTION('',(0.,-1.,2.22044604925E-16));
#971 = DIRECTION('',(-1.,0.,0.));
#972 = ADVANCED_FACE('',(#973),#998,.T.);
#973 = FACE_BOUND('',#974,.T.);
#974 = EDGE_LOOP('',(#975,#976,#984,#992));
#975 = ORIENTED_EDGE('',*,*,#943,.T.);
#976 = ORIENTED_EDGE('',*,*,#977,.T.);
#977 = EDGE_CURVE('',#946,#978,#980,.T.);
#978 = VERTEX_POINT('',#979);
#979 = CARTESIAN_POINT('',(-0.6665,0.76,1.83));
#980 = LINE('',#981,#982);
#981 = CARTESIAN_POINT('',(0.6665,0.76,1.83));
#982 = VECTOR('',#983,1.);
#983 = DIRECTION('',(-1.,0.,0.));
#984 = ORIENTED_EDGE('',*,*,#985,.F.);
#985 = EDGE_CURVE('',#986,#978,#988,.T.);
#986 = VERTEX_POINT('',#987);
#987 = CARTESIAN_POINT('',(-0.6665,0.37,1.83));
#988 = LINE('',#989,#990);
#989 = CARTESIAN_POINT('',(-0.6665,0.37,1.83));
#990 = VECTOR('',#991,1.);
#991 = DIRECTION('',(0.,1.,-2.22044604925E-16));
#992 = ORIENTED_EDGE('',*,*,#993,.F.);
#993 = EDGE_CURVE('',#944,#986,#994,.T.);
#994 = LINE('',#995,#996);
#995 = CARTESIAN_POINT('',(0.6665,0.37,1.83));
#996 = VECTOR('',#997,1.);
#997 = DIRECTION('',(-1.,0.,0.));
#998 = PLANE('',#999);
#999 = AXIS2_PLACEMENT_3D('',#1000,#1001,#1002);
#1000 = CARTESIAN_POINT('',(0.6665,0.37,1.83));
#1001 = DIRECTION('',(0.,2.22044604925E-16,1.));
#1002 = DIRECTION('',(-1.,0.,0.));
#1003 = ADVANCED_FACE('',(#1004),#1022,.T.);
#1004 = FACE_BOUND('',#1005,.F.);
#1005 = EDGE_LOOP('',(#1006,#1007,#1014,#1015));
#1006 = ORIENTED_EDGE('',*,*,#717,.T.);
#1007 = ORIENTED_EDGE('',*,*,#1008,.T.);
#1008 = EDGE_CURVE('',#720,#978,#1009,.T.);
#1009 = CIRCLE('',#1010,0.2);
#1010 = AXIS2_PLACEMENT_3D('',#1011,#1012,#1013);
#1011 = CARTESIAN_POINT('',(-0.6665,0.76,1.63));
#1012 = DIRECTION('',(0.,1.,-2.22044604925E-16));
#1013 = DIRECTION('',(-1.,0.,0.));
#1014 = ORIENTED_EDGE('',*,*,#985,.F.);
#1015 = ORIENTED_EDGE('',*,*,#1016,.F.);
#1016 = EDGE_CURVE('',#718,#986,#1017,.T.);
#1017 = CIRCLE('',#1018,0.2);
#1018 = AXIS2_PLACEMENT_3D('',#1019,#1020,#1021);
#1019 = CARTESIAN_POINT('',(-0.6665,0.37,1.63));
#1020 = DIRECTION('',(0.,1.,-2.22044604925E-16));
#1021 = DIRECTION('',(-1.,0.,0.));
#1022 = CYLINDRICAL_SURFACE('',#1023,0.2);
#1023 = AXIS2_PLACEMENT_3D('',#1024,#1025,#1026);
#1024 = CARTESIAN_POINT('',(-0.6665,0.37,1.63));
#1025 = DIRECTION('',(0.,-1.,2.22044604925E-16));
#1026 = DIRECTION('',(-1.,0.,0.));
#1027 = ADVANCED_FACE('',(#1028),#1040,.F.);
#1028 = FACE_BOUND('',#1029,.T.);
#1029 = EDGE_LOOP('',(#1030,#1031,#1032,#1033,#1034,#1035,#1036,#1037,
    #1038,#1039));
#1030 = ORIENTED_EDGE('',*,*,#743,.T.);
#1031 = ORIENTED_EDGE('',*,*,#774,.T.);
#1032 = ORIENTED_EDGE('',*,*,#805,.T.);
#1033 = ORIENTED_EDGE('',*,*,#836,.T.);
#1034 = ORIENTED_EDGE('',*,*,#867,.T.);
#1035 = ORIENTED_EDGE('',*,*,#898,.T.);
#1036 = ORIENTED_EDGE('',*,*,#929,.T.);
#1037 = ORIENTED_EDGE('',*,*,#961,.F.);
#1038 = ORIENTED_EDGE('',*,*,#993,.T.);
#1039 = ORIENTED_EDGE('',*,*,#1016,.F.);
#1040 = PLANE('',#1041);
#1041 = AXIS2_PLACEMENT_3D('',#1042,#1043,#1044);
#1042 = CARTESIAN_POINT('',(-4.146330722765E-17,0.37,-0.130446368184));
#1043 = DIRECTION('',(0.,1.,0.));
#1044 = DIRECTION('',(0.,0.,1.));
#1045 = ADVANCED_FACE('',(#1046),#1058,.T.);
#1046 = FACE_BOUND('',#1047,.F.);
#1047 = EDGE_LOOP('',(#1048,#1049,#1050,#1051,#1052,#1053,#1054,#1055,
    #1056,#1057));
#1048 = ORIENTED_EDGE('',*,*,#727,.T.);
#1049 = ORIENTED_EDGE('',*,*,#758,.T.);
#1050 = ORIENTED_EDGE('',*,*,#789,.T.);
#1051 = ORIENTED_EDGE('',*,*,#820,.T.);
#1052 = ORIENTED_EDGE('',*,*,#851,.T.);
#1053 = ORIENTED_EDGE('',*,*,#882,.T.);
#1054 = ORIENTED_EDGE('',*,*,#913,.T.);
#1055 = ORIENTED_EDGE('',*,*,#953,.F.);
#1056 = ORIENTED_EDGE('',*,*,#977,.T.);
#1057 = ORIENTED_EDGE('',*,*,#1008,.F.);
#1058 = PLANE('',#1059);
#1059 = AXIS2_PLACEMENT_3D('',#1060,#1061,#1062);
#1060 = CARTESIAN_POINT('',(-4.146330722765E-17,0.76,-0.130446368184));
#1061 = DIRECTION('',(0.,1.,0.));
#1062 = DIRECTION('',(0.,0.,1.));
#1063 = ( GEOMETRIC_REPRESENTATION_CONTEXT(3) 
GLOBAL_UNCERTAINTY_ASSIGNED_CONTEXT((#1067)) 
GLOBAL_UNIT_ASSIGNED_CONTEXT((#1064,#1065,#1066)) REPRESENTATION_CONTEXT
('Context #1','3D Context with UNIT and UNCERTAINTY') );
#1064 = ( LENGTH_UNIT() NAMED_UNIT(*) SI_UNIT(.MILLI.,.METRE.) );
#1065 = ( NAMED_UNIT(*) PLANE_ANGLE_UNIT() SI_UNIT($,.RADIAN.) );
#1066 = ( NAMED_UNIT(*) SI_UNIT($,.STERADIAN.) SOLID_ANGLE_UNIT() );
#1067 = UNCERTAINTY_MEASURE_WITH_UNIT(LENGTH_MEASURE(1.E-07),#1064,
  'distance_accuracy_value','confusion accuracy');
#1068 = CONTEXT_DEPENDENT_SHAPE_REPRESENTATION(#1069,#1071);
#1069 = ( REPRESENTATION_RELATIONSHIP('','',#710,#10) 
REPRESENTATION_RELATIONSHIP_WITH_TRANSFORMATION(#1070) 
SHAPE_REPRESENTATION_RELATIONSHIP() );
#1070 = ITEM_DEFINED_TRANSFORMATION('','',#11,#23);
#1071 = PRODUCT_DEFINITION_SHAPE('Placement','Placement of an item',
  #1072);
#1072 = NEXT_ASSEMBLY_USAGE_OCCURRENCE('9','PIN_CENTRAL','',#5,#705,$);
#1073 = PRODUCT_RELATED_PRODUCT_CATEGORY('part',$,(#707));
#1074 = SHAPE_DEFINITION_REPRESENTATION(#1075,#1081);
#1075 = PRODUCT_DEFINITION_SHAPE('','',#1076);
#1076 = PRODUCT_DEFINITION('design','',#1077,#1080);
#1077 = PRODUCT_DEFINITION_FORMATION('','',#1078);
#1078 = PRODUCT('Pad001','Pad001','',(#1079));
#1079 = PRODUCT_CONTEXT('',#2,'mechanical');
#1080 = PRODUCT_DEFINITION_CONTEXT('part definition',#2,'design');
#1081 = ADVANCED_BREP_SHAPE_REPRESENTATION('',(#11,#1082),#1434);
#1082 = MANIFOLD_SOLID_BREP('',#1083);
#1083 = CLOSED_SHELL('',(#1084,#1124,#1155,#1186,#1217,#1248,#1279,#1310
    ,#1343,#1374,#1398,#1416));
#1084 = ADVANCED_FACE('',(#1085),#1119,.T.);
#1085 = FACE_BOUND('',#1086,.T.);
#1086 = EDGE_LOOP('',(#1087,#1097,#1105,#1113));
#1087 = ORIENTED_EDGE('',*,*,#1088,.T.);
#1088 = EDGE_CURVE('',#1089,#1091,#1093,.T.);
#1089 = VERTEX_POINT('',#1090);
#1090 = CARTESIAN_POINT('',(-0.8665,-0.38,1.63));
#1091 = VERTEX_POINT('',#1092);
#1092 = CARTESIAN_POINT('',(-0.8665,1.E-02,1.63));
#1093 = LINE('',#1094,#1095);
#1094 = CARTESIAN_POINT('',(-0.8665,-0.38,1.63));
#1095 = VECTOR('',#1096,1.);
#1096 = DIRECTION('',(0.,1.,-2.22044604925E-16));
#1097 = ORIENTED_EDGE('',*,*,#1098,.T.);
#1098 = EDGE_CURVE('',#1091,#1099,#1101,.T.);
#1099 = VERTEX_POINT('',#1100);
#1100 = CARTESIAN_POINT('',(-0.8665,1.E-02,-0.95));
#1101 = LINE('',#1102,#1103);
#1102 = CARTESIAN_POINT('',(-0.8665,1.E-02,1.63));
#1103 = VECTOR('',#1104,1.);
#1104 = DIRECTION('',(0.,-2.22044604925E-16,-1.));
#1105 = ORIENTED_EDGE('',*,*,#1106,.F.);
#1106 = EDGE_CURVE('',#1107,#1099,#1109,.T.);
#1107 = VERTEX_POINT('',#1108);
#1108 = CARTESIAN_POINT('',(-0.8665,-0.38,-0.95));
#1109 = LINE('',#1110,#1111);
#1110 = CARTESIAN_POINT('',(-0.8665,-0.38,-0.95));
#1111 = VECTOR('',#1112,1.);
#1112 = DIRECTION('',(0.,1.,-2.22044604925E-16));
#1113 = ORIENTED_EDGE('',*,*,#1114,.F.);
#1114 = EDGE_CURVE('',#1089,#1107,#1115,.T.);
#1115 = LINE('',#1116,#1117);
#1116 = CARTESIAN_POINT('',(-0.8665,-0.38,1.63));
#1117 = VECTOR('',#1118,1.);
#1118 = DIRECTION('',(0.,-2.22044604925E-16,-1.));
#1119 = PLANE('',#1120);
#1120 = AXIS2_PLACEMENT_3D('',#1121,#1122,#1123);
#1121 = CARTESIAN_POINT('',(-0.8665,-0.38,1.63));
#1122 = DIRECTION('',(-1.,0.,-0.));
#1123 = DIRECTION('',(0.,-2.22044604925E-16,-1.));
#1124 = ADVANCED_FACE('',(#1125),#1150,.T.);
#1125 = FACE_BOUND('',#1126,.T.);
#1126 = EDGE_LOOP('',(#1127,#1128,#1136,#1144));
#1127 = ORIENTED_EDGE('',*,*,#1106,.T.);
#1128 = ORIENTED_EDGE('',*,*,#1129,.T.);
#1129 = EDGE_CURVE('',#1099,#1130,#1132,.T.);
#1130 = VERTEX_POINT('',#1131);
#1131 = CARTESIAN_POINT('',(-0.28,1.E-02,-0.95));
#1132 = LINE('',#1133,#1134);
#1133 = CARTESIAN_POINT('',(-0.8665,1.E-02,-0.95));
#1134 = VECTOR('',#1135,1.);
#1135 = DIRECTION('',(1.,0.,0.));
#1136 = ORIENTED_EDGE('',*,*,#1137,.F.);
#1137 = EDGE_CURVE('',#1138,#1130,#1140,.T.);
#1138 = VERTEX_POINT('',#1139);
#1139 = CARTESIAN_POINT('',(-0.28,-0.38,-0.95));
#1140 = LINE('',#1141,#1142);
#1141 = CARTESIAN_POINT('',(-0.28,-0.38,-0.95));
#1142 = VECTOR('',#1143,1.);
#1143 = DIRECTION('',(0.,1.,-2.22044604925E-16));
#1144 = ORIENTED_EDGE('',*,*,#1145,.F.);
#1145 = EDGE_CURVE('',#1107,#1138,#1146,.T.);
#1146 = LINE('',#1147,#1148);
#1147 = CARTESIAN_POINT('',(-0.8665,-0.38,-0.95));
#1148 = VECTOR('',#1149,1.);
#1149 = DIRECTION('',(1.,0.,0.));
#1150 = PLANE('',#1151);
#1151 = AXIS2_PLACEMENT_3D('',#1152,#1153,#1154);
#1152 = CARTESIAN_POINT('',(-0.8665,-0.38,-0.95));
#1153 = DIRECTION('',(0.,-2.22044604925E-16,-1.));
#1154 = DIRECTION('',(1.,0.,0.));
#1155 = ADVANCED_FACE('',(#1156),#1181,.T.);
#1156 = FACE_BOUND('',#1157,.T.);
#1157 = EDGE_LOOP('',(#1158,#1159,#1167,#1175));
#1158 = ORIENTED_EDGE('',*,*,#1137,.T.);
#1159 = ORIENTED_EDGE('',*,*,#1160,.T.);
#1160 = EDGE_CURVE('',#1130,#1161,#1163,.T.);
#1161 = VERTEX_POINT('',#1162);
#1162 = CARTESIAN_POINT('',(-0.28,9.999999999999E-03,-2.3));
#1163 = LINE('',#1164,#1165);
#1164 = CARTESIAN_POINT('',(-0.28,1.E-02,-0.95));
#1165 = VECTOR('',#1166,1.);
#1166 = DIRECTION('',(0.,-2.22044604925E-16,-1.));
#1167 = ORIENTED_EDGE('',*,*,#1168,.F.);
#1168 = EDGE_CURVE('',#1169,#1161,#1171,.T.);
#1169 = VERTEX_POINT('',#1170);
#1170 = CARTESIAN_POINT('',(-0.28,-0.38,-2.3));
#1171 = LINE('',#1172,#1173);
#1172 = CARTESIAN_POINT('',(-0.28,-0.38,-2.3));
#1173 = VECTOR('',#1174,1.);
#1174 = DIRECTION('',(0.,1.,-2.22044604925E-16));
#1175 = ORIENTED_EDGE('',*,*,#1176,.F.);
#1176 = EDGE_CURVE('',#1138,#1169,#1177,.T.);
#1177 = LINE('',#1178,#1179);
#1178 = CARTESIAN_POINT('',(-0.28,-0.38,-0.95));
#1179 = VECTOR('',#1180,1.);
#1180 = DIRECTION('',(0.,-2.22044604925E-16,-1.));
#1181 = PLANE('',#1182);
#1182 = AXIS2_PLACEMENT_3D('',#1183,#1184,#1185);
#1183 = CARTESIAN_POINT('',(-0.28,-0.38,-0.95));
#1184 = DIRECTION('',(-1.,0.,-0.));
#1185 = DIRECTION('',(0.,-2.22044604925E-16,-1.));
#1186 = ADVANCED_FACE('',(#1187),#1212,.T.);
#1187 = FACE_BOUND('',#1188,.T.);
#1188 = EDGE_LOOP('',(#1189,#1190,#1198,#1206));
#1189 = ORIENTED_EDGE('',*,*,#1168,.T.);
#1190 = ORIENTED_EDGE('',*,*,#1191,.T.);
#1191 = EDGE_CURVE('',#1161,#1192,#1194,.T.);
#1192 = VERTEX_POINT('',#1193);
#1193 = CARTESIAN_POINT('',(0.28,9.999999999999E-03,-2.3));
#1194 = LINE('',#1195,#1196);
#1195 = CARTESIAN_POINT('',(-0.28,9.999999999999E-03,-2.3));
#1196 = VECTOR('',#1197,1.);
#1197 = DIRECTION('',(1.,0.,0.));
#1198 = ORIENTED_EDGE('',*,*,#1199,.F.);
#1199 = EDGE_CURVE('',#1200,#1192,#1202,.T.);
#1200 = VERTEX_POINT('',#1201);
#1201 = CARTESIAN_POINT('',(0.28,-0.38,-2.3));
#1202 = LINE('',#1203,#1204);
#1203 = CARTESIAN_POINT('',(0.28,-0.38,-2.3));
#1204 = VECTOR('',#1205,1.);
#1205 = DIRECTION('',(0.,1.,-2.22044604925E-16));
#1206 = ORIENTED_EDGE('',*,*,#1207,.F.);
#1207 = EDGE_CURVE('',#1169,#1200,#1208,.T.);
#1208 = LINE('',#1209,#1210);
#1209 = CARTESIAN_POINT('',(-0.28,-0.38,-2.3));
#1210 = VECTOR('',#1211,1.);
#1211 = DIRECTION('',(1.,0.,0.));
#1212 = PLANE('',#1213);
#1213 = AXIS2_PLACEMENT_3D('',#1214,#1215,#1216);
#1214 = CARTESIAN_POINT('',(-0.28,-0.38,-2.3));
#1215 = DIRECTION('',(0.,-2.22044604925E-16,-1.));
#1216 = DIRECTION('',(1.,0.,0.));
#1217 = ADVANCED_FACE('',(#1218),#1243,.T.);
#1218 = FACE_BOUND('',#1219,.T.);
#1219 = EDGE_LOOP('',(#1220,#1221,#1229,#1237));
#1220 = ORIENTED_EDGE('',*,*,#1199,.T.);
#1221 = ORIENTED_EDGE('',*,*,#1222,.T.);
#1222 = EDGE_CURVE('',#1192,#1223,#1225,.T.);
#1223 = VERTEX_POINT('',#1224);
#1224 = CARTESIAN_POINT('',(0.28,1.E-02,-0.95));
#1225 = LINE('',#1226,#1227);
#1226 = CARTESIAN_POINT('',(0.28,9.999999999999E-03,-2.3));
#1227 = VECTOR('',#1228,1.);
#1228 = DIRECTION('',(0.,2.22044604925E-16,1.));
#1229 = ORIENTED_EDGE('',*,*,#1230,.F.);
#1230 = EDGE_CURVE('',#1231,#1223,#1233,.T.);
#1231 = VERTEX_POINT('',#1232);
#1232 = CARTESIAN_POINT('',(0.28,-0.38,-0.95));
#1233 = LINE('',#1234,#1235);
#1234 = CARTESIAN_POINT('',(0.28,-0.38,-0.95));
#1235 = VECTOR('',#1236,1.);
#1236 = DIRECTION('',(0.,1.,-2.22044604925E-16));
#1237 = ORIENTED_EDGE('',*,*,#1238,.F.);
#1238 = EDGE_CURVE('',#1200,#1231,#1239,.T.);
#1239 = LINE('',#1240,#1241);
#1240 = CARTESIAN_POINT('',(0.28,-0.38,-2.3));
#1241 = VECTOR('',#1242,1.);
#1242 = DIRECTION('',(0.,2.22044604925E-16,1.));
#1243 = PLANE('',#1244);
#1244 = AXIS2_PLACEMENT_3D('',#1245,#1246,#1247);
#1245 = CARTESIAN_POINT('',(0.28,-0.38,-2.3));
#1246 = DIRECTION('',(1.,-0.,0.));
#1247 = DIRECTION('',(0.,2.22044604925E-16,1.));
#1248 = ADVANCED_FACE('',(#1249),#1274,.T.);
#1249 = FACE_BOUND('',#1250,.T.);
#1250 = EDGE_LOOP('',(#1251,#1252,#1260,#1268));
#1251 = ORIENTED_EDGE('',*,*,#1230,.T.);
#1252 = ORIENTED_EDGE('',*,*,#1253,.T.);
#1253 = EDGE_CURVE('',#1223,#1254,#1256,.T.);
#1254 = VERTEX_POINT('',#1255);
#1255 = CARTESIAN_POINT('',(0.8665,1.E-02,-0.95));
#1256 = LINE('',#1257,#1258);
#1257 = CARTESIAN_POINT('',(0.28,1.E-02,-0.95));
#1258 = VECTOR('',#1259,1.);
#1259 = DIRECTION('',(1.,0.,0.));
#1260 = ORIENTED_EDGE('',*,*,#1261,.F.);
#1261 = EDGE_CURVE('',#1262,#1254,#1264,.T.);
#1262 = VERTEX_POINT('',#1263);
#1263 = CARTESIAN_POINT('',(0.8665,-0.38,-0.95));
#1264 = LINE('',#1265,#1266);
#1265 = CARTESIAN_POINT('',(0.8665,-0.38,-0.95));
#1266 = VECTOR('',#1267,1.);
#1267 = DIRECTION('',(0.,1.,-2.22044604925E-16));
#1268 = ORIENTED_EDGE('',*,*,#1269,.F.);
#1269 = EDGE_CURVE('',#1231,#1262,#1270,.T.);
#1270 = LINE('',#1271,#1272);
#1271 = CARTESIAN_POINT('',(0.28,-0.38,-0.95));
#1272 = VECTOR('',#1273,1.);
#1273 = DIRECTION('',(1.,0.,0.));
#1274 = PLANE('',#1275);
#1275 = AXIS2_PLACEMENT_3D('',#1276,#1277,#1278);
#1276 = CARTESIAN_POINT('',(0.28,-0.38,-0.95));
#1277 = DIRECTION('',(0.,-2.22044604925E-16,-1.));
#1278 = DIRECTION('',(1.,0.,0.));
#1279 = ADVANCED_FACE('',(#1280),#1305,.T.);
#1280 = FACE_BOUND('',#1281,.T.);
#1281 = EDGE_LOOP('',(#1282,#1283,#1291,#1299));
#1282 = ORIENTED_EDGE('',*,*,#1261,.T.);
#1283 = ORIENTED_EDGE('',*,*,#1284,.T.);
#1284 = EDGE_CURVE('',#1254,#1285,#1287,.T.);
#1285 = VERTEX_POINT('',#1286);
#1286 = CARTESIAN_POINT('',(0.8665,1.E-02,1.63));
#1287 = LINE('',#1288,#1289);
#1288 = CARTESIAN_POINT('',(0.8665,1.E-02,-0.95));
#1289 = VECTOR('',#1290,1.);
#1290 = DIRECTION('',(0.,2.22044604925E-16,1.));
#1291 = ORIENTED_EDGE('',*,*,#1292,.F.);
#1292 = EDGE_CURVE('',#1293,#1285,#1295,.T.);
#1293 = VERTEX_POINT('',#1294);
#1294 = CARTESIAN_POINT('',(0.8665,-0.38,1.63));
#1295 = LINE('',#1296,#1297);
#1296 = CARTESIAN_POINT('',(0.8665,-0.38,1.63));
#1297 = VECTOR('',#1298,1.);
#1298 = DIRECTION('',(0.,1.,-2.22044604925E-16));
#1299 = ORIENTED_EDGE('',*,*,#1300,.F.);
#1300 = EDGE_CURVE('',#1262,#1293,#1301,.T.);
#1301 = LINE('',#1302,#1303);
#1302 = CARTESIAN_POINT('',(0.8665,-0.38,-0.95));
#1303 = VECTOR('',#1304,1.);
#1304 = DIRECTION('',(0.,2.22044604925E-16,1.));
#1305 = PLANE('',#1306);
#1306 = AXIS2_PLACEMENT_3D('',#1307,#1308,#1309);
#1307 = CARTESIAN_POINT('',(0.8665,-0.38,-0.95));
#1308 = DIRECTION('',(1.,-0.,0.));
#1309 = DIRECTION('',(0.,2.22044604925E-16,1.));
#1310 = ADVANCED_FACE('',(#1311),#1338,.T.);
#1311 = FACE_BOUND('',#1312,.F.);
#1312 = EDGE_LOOP('',(#1313,#1323,#1330,#1331));
#1313 = ORIENTED_EDGE('',*,*,#1314,.T.);
#1314 = EDGE_CURVE('',#1315,#1317,#1319,.T.);
#1315 = VERTEX_POINT('',#1316);
#1316 = CARTESIAN_POINT('',(0.6665,-0.38,1.83));
#1317 = VERTEX_POINT('',#1318);
#1318 = CARTESIAN_POINT('',(0.6665,1.E-02,1.83));
#1319 = LINE('',#1320,#1321);
#1320 = CARTESIAN_POINT('',(0.6665,-0.38,1.83));
#1321 = VECTOR('',#1322,1.);
#1322 = DIRECTION('',(0.,1.,-2.22044604925E-16));
#1323 = ORIENTED_EDGE('',*,*,#1324,.T.);
#1324 = EDGE_CURVE('',#1317,#1285,#1325,.T.);
#1325 = CIRCLE('',#1326,0.2);
#1326 = AXIS2_PLACEMENT_3D('',#1327,#1328,#1329);
#1327 = CARTESIAN_POINT('',(0.6665,1.E-02,1.63));
#1328 = DIRECTION('',(0.,1.,-2.22044604925E-16));
#1329 = DIRECTION('',(-1.,0.,0.));
#1330 = ORIENTED_EDGE('',*,*,#1292,.F.);
#1331 = ORIENTED_EDGE('',*,*,#1332,.F.);
#1332 = EDGE_CURVE('',#1315,#1293,#1333,.T.);
#1333 = CIRCLE('',#1334,0.2);
#1334 = AXIS2_PLACEMENT_3D('',#1335,#1336,#1337);
#1335 = CARTESIAN_POINT('',(0.6665,-0.38,1.63));
#1336 = DIRECTION('',(0.,1.,-2.22044604925E-16));
#1337 = DIRECTION('',(-1.,0.,0.));
#1338 = CYLINDRICAL_SURFACE('',#1339,0.2);
#1339 = AXIS2_PLACEMENT_3D('',#1340,#1341,#1342);
#1340 = CARTESIAN_POINT('',(0.6665,-0.38,1.63));
#1341 = DIRECTION('',(-0.,-1.,2.22044604925E-16));
#1342 = DIRECTION('',(-1.,0.,0.));
#1343 = ADVANCED_FACE('',(#1344),#1369,.T.);
#1344 = FACE_BOUND('',#1345,.T.);
#1345 = EDGE_LOOP('',(#1346,#1347,#1355,#1363));
#1346 = ORIENTED_EDGE('',*,*,#1314,.T.);
#1347 = ORIENTED_EDGE('',*,*,#1348,.T.);
#1348 = EDGE_CURVE('',#1317,#1349,#1351,.T.);
#1349 = VERTEX_POINT('',#1350);
#1350 = CARTESIAN_POINT('',(-0.6665,1.E-02,1.83));
#1351 = LINE('',#1352,#1353);
#1352 = CARTESIAN_POINT('',(0.6665,1.E-02,1.83));
#1353 = VECTOR('',#1354,1.);
#1354 = DIRECTION('',(-1.,0.,0.));
#1355 = ORIENTED_EDGE('',*,*,#1356,.F.);
#1356 = EDGE_CURVE('',#1357,#1349,#1359,.T.);
#1357 = VERTEX_POINT('',#1358);
#1358 = CARTESIAN_POINT('',(-0.6665,-0.38,1.83));
#1359 = LINE('',#1360,#1361);
#1360 = CARTESIAN_POINT('',(-0.6665,-0.38,1.83));
#1361 = VECTOR('',#1362,1.);
#1362 = DIRECTION('',(0.,1.,-2.22044604925E-16));
#1363 = ORIENTED_EDGE('',*,*,#1364,.F.);
#1364 = EDGE_CURVE('',#1315,#1357,#1365,.T.);
#1365 = LINE('',#1366,#1367);
#1366 = CARTESIAN_POINT('',(0.6665,-0.38,1.83));
#1367 = VECTOR('',#1368,1.);
#1368 = DIRECTION('',(-1.,0.,0.));
#1369 = PLANE('',#1370);
#1370 = AXIS2_PLACEMENT_3D('',#1371,#1372,#1373);
#1371 = CARTESIAN_POINT('',(0.6665,-0.38,1.83));
#1372 = DIRECTION('',(0.,2.22044604925E-16,1.));
#1373 = DIRECTION('',(-1.,0.,0.));
#1374 = ADVANCED_FACE('',(#1375),#1393,.T.);
#1375 = FACE_BOUND('',#1376,.F.);
#1376 = EDGE_LOOP('',(#1377,#1378,#1385,#1386));
#1377 = ORIENTED_EDGE('',*,*,#1088,.T.);
#1378 = ORIENTED_EDGE('',*,*,#1379,.T.);
#1379 = EDGE_CURVE('',#1091,#1349,#1380,.T.);
#1380 = CIRCLE('',#1381,0.2);
#1381 = AXIS2_PLACEMENT_3D('',#1382,#1383,#1384);
#1382 = CARTESIAN_POINT('',(-0.6665,1.E-02,1.63));
#1383 = DIRECTION('',(0.,1.,-2.22044604925E-16));
#1384 = DIRECTION('',(-1.,0.,0.));
#1385 = ORIENTED_EDGE('',*,*,#1356,.F.);
#1386 = ORIENTED_EDGE('',*,*,#1387,.F.);
#1387 = EDGE_CURVE('',#1089,#1357,#1388,.T.);
#1388 = CIRCLE('',#1389,0.2);
#1389 = AXIS2_PLACEMENT_3D('',#1390,#1391,#1392);
#1390 = CARTESIAN_POINT('',(-0.6665,-0.38,1.63));
#1391 = DIRECTION('',(0.,1.,-2.22044604925E-16));
#1392 = DIRECTION('',(-1.,0.,0.));
#1393 = CYLINDRICAL_SURFACE('',#1394,0.2);
#1394 = AXIS2_PLACEMENT_3D('',#1395,#1396,#1397);
#1395 = CARTESIAN_POINT('',(-0.6665,-0.38,1.63));
#1396 = DIRECTION('',(-0.,-1.,2.22044604925E-16));
#1397 = DIRECTION('',(-1.,0.,0.));
#1398 = ADVANCED_FACE('',(#1399),#1411,.F.);
#1399 = FACE_BOUND('',#1400,.T.);
#1400 = EDGE_LOOP('',(#1401,#1402,#1403,#1404,#1405,#1406,#1407,#1408,
    #1409,#1410));
#1401 = ORIENTED_EDGE('',*,*,#1114,.T.);
#1402 = ORIENTED_EDGE('',*,*,#1145,.T.);
#1403 = ORIENTED_EDGE('',*,*,#1176,.T.);
#1404 = ORIENTED_EDGE('',*,*,#1207,.T.);
#1405 = ORIENTED_EDGE('',*,*,#1238,.T.);
#1406 = ORIENTED_EDGE('',*,*,#1269,.T.);
#1407 = ORIENTED_EDGE('',*,*,#1300,.T.);
#1408 = ORIENTED_EDGE('',*,*,#1332,.F.);
#1409 = ORIENTED_EDGE('',*,*,#1364,.T.);
#1410 = ORIENTED_EDGE('',*,*,#1387,.F.);
#1411 = PLANE('',#1412);
#1412 = AXIS2_PLACEMENT_3D('',#1413,#1414,#1415);
#1413 = CARTESIAN_POINT('',(-4.146330722765E-17,-0.38,-0.130446368184));
#1414 = DIRECTION('',(0.,1.,0.));
#1415 = DIRECTION('',(0.,0.,1.));
#1416 = ADVANCED_FACE('',(#1417),#1429,.T.);
#1417 = FACE_BOUND('',#1418,.F.);
#1418 = EDGE_LOOP('',(#1419,#1420,#1421,#1422,#1423,#1424,#1425,#1426,
    #1427,#1428));
#1419 = ORIENTED_EDGE('',*,*,#1098,.T.);
#1420 = ORIENTED_EDGE('',*,*,#1129,.T.);
#1421 = ORIENTED_EDGE('',*,*,#1160,.T.);
#1422 = ORIENTED_EDGE('',*,*,#1191,.T.);
#1423 = ORIENTED_EDGE('',*,*,#1222,.T.);
#1424 = ORIENTED_EDGE('',*,*,#1253,.T.);
#1425 = ORIENTED_EDGE('',*,*,#1284,.T.);
#1426 = ORIENTED_EDGE('',*,*,#1324,.F.);
#1427 = ORIENTED_EDGE('',*,*,#1348,.T.);
#1428 = ORIENTED_EDGE('',*,*,#1379,.F.);
#1429 = PLANE('',#1430);
#1430 = AXIS2_PLACEMENT_3D('',#1431,#1432,#1433);
#1431 = CARTESIAN_POINT('',(-4.146330722765E-17,1.E-02,-0.130446368184)
  );
#1432 = DIRECTION('',(0.,1.,0.));
#1433 = DIRECTION('',(0.,0.,1.));
#1434 = ( GEOMETRIC_REPRESENTATION_CONTEXT(3) 
GLOBAL_UNCERTAINTY_ASSIGNED_CONTEXT((#1438)) 
GLOBAL_UNIT_ASSIGNED_CONTEXT((#1435,#1436,#1437)) REPRESENTATION_CONTEXT
('Context #1','3D Context with UNIT and UNCERTAINTY') );
#1435 = ( LENGTH_UNIT() NAMED_UNIT(*) SI_UNIT(.MILLI.,.METRE.) );
#1436 = ( NAMED_UNIT(*) PLANE_ANGLE_UNIT() SI_UNIT($,.RADIAN.) );
#1437 = ( NAMED_UNIT(*) SI_UNIT($,.STERADIAN.) SOLID_ANGLE_UNIT() );
#1438 = UNCERTAINTY_MEASURE_WITH_UNIT(LENGTH_MEASURE(1.E-07),#1435,
  'distance_accuracy_value','confusion accuracy');
#1439 = CONTEXT_DEPENDENT_SHAPE_REPRESENTATION(#1440,#1442);
#1440 = ( REPRESENTATION_RELATIONSHIP('','',#1081,#10) 
REPRESENTATION_RELATIONSHIP_WITH_TRANSFORMATION(#1441) 
SHAPE_REPRESENTATION_RELATIONSHIP() );
#1441 = ITEM_DEFINED_TRANSFORMATION('','',#11,#27);
#1442 = PRODUCT_DEFINITION_SHAPE('Placement','Placement of an item',
  #1443);
#1443 = NEXT_ASSEMBLY_USAGE_OCCURRENCE('10','Pad001','',#5,#1076,$);
#1444 = PRODUCT_RELATED_PRODUCT_CATEGORY('part',$,(#1078));
#1445 = SHAPE_DEFINITION_REPRESENTATION(#1446,#1452);
#1446 = PRODUCT_DEFINITION_SHAPE('','',#1447);
#1447 = PRODUCT_DEFINITION('design','',#1448,#1451);
#1448 = PRODUCT_DEFINITION_FORMATION('','',#1449);
#1449 = PRODUCT('Mirrored','Mirrored','',(#1450));
#1450 = PRODUCT_CONTEXT('',#2,'mechanical');
#1451 = PRODUCT_DEFINITION_CONTEXT('part definition',#2,'design');
#1452 = SHAPE_REPRESENTATION('',(#11,#1453,#1603),#1753);
#1453 = MANIFOLD_SOLID_BREP('',#1454);
#1454 = CLOSED_SHELL('',(#1455,#1495,#1526,#1557,#1579,#1591));
#1455 = ADVANCED_FACE('',(#1456),#1490,.F.);
#1456 = FACE_BOUND('',#1457,.F.);
#1457 = EDGE_LOOP('',(#1458,#1468,#1476,#1484));
#1458 = ORIENTED_EDGE('',*,*,#1459,.T.);
#1459 = EDGE_CURVE('',#1460,#1462,#1464,.T.);
#1460 = VERTEX_POINT('',#1461);
#1461 = CARTESIAN_POINT('',(-1.26,-0.38,-0.923));
#1462 = VERTEX_POINT('',#1463);
#1463 = CARTESIAN_POINT('',(-1.26,1.E-02,-0.923));
#1464 = LINE('',#1465,#1466);
#1465 = CARTESIAN_POINT('',(-1.26,-0.38,-0.923));
#1466 = VECTOR('',#1467,1.);
#1467 = DIRECTION('',(0.,1.,-2.22044604925E-16));
#1468 = ORIENTED_EDGE('',*,*,#1469,.T.);
#1469 = EDGE_CURVE('',#1462,#1470,#1472,.T.);
#1470 = VERTEX_POINT('',#1471);
#1471 = CARTESIAN_POINT('',(-1.26,1.E-02,-2.3));
#1472 = LINE('',#1473,#1474);
#1473 = CARTESIAN_POINT('',(-1.26,1.E-02,-0.923));
#1474 = VECTOR('',#1475,1.);
#1475 = DIRECTION('',(0.,-2.22044604925E-16,-1.));
#1476 = ORIENTED_EDGE('',*,*,#1477,.F.);
#1477 = EDGE_CURVE('',#1478,#1470,#1480,.T.);
#1478 = VERTEX_POINT('',#1479);
#1479 = CARTESIAN_POINT('',(-1.26,-0.38,-2.3));
#1480 = LINE('',#1481,#1482);
#1481 = CARTESIAN_POINT('',(-1.26,-0.38,-2.3));
#1482 = VECTOR('',#1483,1.);
#1483 = DIRECTION('',(0.,1.,-2.22044604925E-16));
#1484 = ORIENTED_EDGE('',*,*,#1485,.F.);
#1485 = EDGE_CURVE('',#1460,#1478,#1486,.T.);
#1486 = LINE('',#1487,#1488);
#1487 = CARTESIAN_POINT('',(-1.26,-0.38,-0.923));
#1488 = VECTOR('',#1489,1.);
#1489 = DIRECTION('',(0.,-2.22044604925E-16,-1.));
#1490 = PLANE('',#1491);
#1491 = AXIS2_PLACEMENT_3D('',#1492,#1493,#1494);
#1492 = CARTESIAN_POINT('',(-1.26,-0.38,-0.923));
#1493 = DIRECTION('',(-1.,0.,0.));
#1494 = DIRECTION('',(0.,-2.22044604925E-16,-1.));
#1495 = ADVANCED_FACE('',(#1496),#1521,.F.);
#1496 = FACE_BOUND('',#1497,.F.);
#1497 = EDGE_LOOP('',(#1498,#1499,#1507,#1515));
#1498 = ORIENTED_EDGE('',*,*,#1477,.T.);
#1499 = ORIENTED_EDGE('',*,*,#1500,.T.);
#1500 = EDGE_CURVE('',#1470,#1501,#1503,.T.);
#1501 = VERTEX_POINT('',#1502);
#1502 = CARTESIAN_POINT('',(-1.74,1.E-02,-2.3));
#1503 = LINE('',#1504,#1505);
#1504 = CARTESIAN_POINT('',(-1.26,1.E-02,-2.3));
#1505 = VECTOR('',#1506,1.);
#1506 = DIRECTION('',(-1.,0.,0.));
#1507 = ORIENTED_EDGE('',*,*,#1508,.F.);
#1508 = EDGE_CURVE('',#1509,#1501,#1511,.T.);
#1509 = VERTEX_POINT('',#1510);
#1510 = CARTESIAN_POINT('',(-1.74,-0.38,-2.3));
#1511 = LINE('',#1512,#1513);
#1512 = CARTESIAN_POINT('',(-1.74,-0.38,-2.3));
#1513 = VECTOR('',#1514,1.);
#1514 = DIRECTION('',(0.,1.,-2.22044604925E-16));
#1515 = ORIENTED_EDGE('',*,*,#1516,.F.);
#1516 = EDGE_CURVE('',#1478,#1509,#1517,.T.);
#1517 = LINE('',#1518,#1519);
#1518 = CARTESIAN_POINT('',(-1.26,-0.38,-2.3));
#1519 = VECTOR('',#1520,1.);
#1520 = DIRECTION('',(-1.,0.,0.));
#1521 = PLANE('',#1522);
#1522 = AXIS2_PLACEMENT_3D('',#1523,#1524,#1525);
#1523 = CARTESIAN_POINT('',(-1.26,-0.38,-2.3));
#1524 = DIRECTION('',(0.,2.22044604925E-16,1.));
#1525 = DIRECTION('',(-1.,0.,0.));
#1526 = ADVANCED_FACE('',(#1527),#1552,.F.);
#1527 = FACE_BOUND('',#1528,.F.);
#1528 = EDGE_LOOP('',(#1529,#1530,#1538,#1546));
#1529 = ORIENTED_EDGE('',*,*,#1508,.T.);
#1530 = ORIENTED_EDGE('',*,*,#1531,.T.);
#1531 = EDGE_CURVE('',#1501,#1532,#1534,.T.);
#1532 = VERTEX_POINT('',#1533);
#1533 = CARTESIAN_POINT('',(-1.74,1.E-02,-0.923));
#1534 = LINE('',#1535,#1536);
#1535 = CARTESIAN_POINT('',(-1.74,1.E-02,-2.3));
#1536 = VECTOR('',#1537,1.);
#1537 = DIRECTION('',(0.,2.22044604925E-16,1.));
#1538 = ORIENTED_EDGE('',*,*,#1539,.F.);
#1539 = EDGE_CURVE('',#1540,#1532,#1542,.T.);
#1540 = VERTEX_POINT('',#1541);
#1541 = CARTESIAN_POINT('',(-1.74,-0.38,-0.923));
#1542 = LINE('',#1543,#1544);
#1543 = CARTESIAN_POINT('',(-1.74,-0.38,-0.923));
#1544 = VECTOR('',#1545,1.);
#1545 = DIRECTION('',(0.,1.,-2.22044604925E-16));
#1546 = ORIENTED_EDGE('',*,*,#1547,.F.);
#1547 = EDGE_CURVE('',#1509,#1540,#1548,.T.);
#1548 = LINE('',#1549,#1550);
#1549 = CARTESIAN_POINT('',(-1.74,-0.38,-2.3));
#1550 = VECTOR('',#1551,1.);
#1551 = DIRECTION('',(0.,2.22044604925E-16,1.));
#1552 = PLANE('',#1553);
#1553 = AXIS2_PLACEMENT_3D('',#1554,#1555,#1556);
#1554 = CARTESIAN_POINT('',(-1.74,-0.38,-2.3));
#1555 = DIRECTION('',(1.,0.,0.));
#1556 = DIRECTION('',(0.,2.22044604925E-16,1.));
#1557 = ADVANCED_FACE('',(#1558),#1574,.F.);
#1558 = FACE_BOUND('',#1559,.F.);
#1559 = EDGE_LOOP('',(#1560,#1561,#1567,#1568));
#1560 = ORIENTED_EDGE('',*,*,#1539,.T.);
#1561 = ORIENTED_EDGE('',*,*,#1562,.T.);
#1562 = EDGE_CURVE('',#1532,#1462,#1563,.T.);
#1563 = LINE('',#1564,#1565);
#1564 = CARTESIAN_POINT('',(-1.74,1.E-02,-0.923));
#1565 = VECTOR('',#1566,1.);
#1566 = DIRECTION('',(1.,0.,0.));
#1567 = ORIENTED_EDGE('',*,*,#1459,.F.);
#1568 = ORIENTED_EDGE('',*,*,#1569,.F.);
#1569 = EDGE_CURVE('',#1540,#1460,#1570,.T.);
#1570 = LINE('',#1571,#1572);
#1571 = CARTESIAN_POINT('',(-1.74,-0.38,-0.923));
#1572 = VECTOR('',#1573,1.);
#1573 = DIRECTION('',(1.,0.,0.));
#1574 = PLANE('',#1575);
#1575 = AXIS2_PLACEMENT_3D('',#1576,#1577,#1578);
#1576 = CARTESIAN_POINT('',(-1.74,-0.38,-0.923));
#1577 = DIRECTION('',(0.,-2.22044604925E-16,-1.));
#1578 = DIRECTION('',(1.,0.,0.));
#1579 = ADVANCED_FACE('',(#1580),#1586,.F.);
#1580 = FACE_BOUND('',#1581,.F.);
#1581 = EDGE_LOOP('',(#1582,#1583,#1584,#1585));
#1582 = ORIENTED_EDGE('',*,*,#1485,.T.);
#1583 = ORIENTED_EDGE('',*,*,#1516,.T.);
#1584 = ORIENTED_EDGE('',*,*,#1547,.T.);
#1585 = ORIENTED_EDGE('',*,*,#1569,.T.);
#1586 = PLANE('',#1587);
#1587 = AXIS2_PLACEMENT_3D('',#1588,#1589,#1590);
#1588 = CARTESIAN_POINT('',(-1.5,-0.38,-1.6115));
#1589 = DIRECTION('',(0.,1.,-2.418786546024E-16));
#1590 = DIRECTION('',(0.,2.418786546024E-16,1.));
#1591 = ADVANCED_FACE('',(#1592),#1598,.T.);
#1592 = FACE_BOUND('',#1593,.T.);
#1593 = EDGE_LOOP('',(#1594,#1595,#1596,#1597));
#1594 = ORIENTED_EDGE('',*,*,#1469,.T.);
#1595 = ORIENTED_EDGE('',*,*,#1500,.T.);
#1596 = ORIENTED_EDGE('',*,*,#1531,.T.);
#1597 = ORIENTED_EDGE('',*,*,#1562,.T.);
#1598 = PLANE('',#1599);
#1599 = AXIS2_PLACEMENT_3D('',#1600,#1601,#1602);
#1600 = CARTESIAN_POINT('',(-1.5,1.E-02,-1.6115));
#1601 = DIRECTION('',(0.,1.,-2.418786546024E-16));
#1602 = DIRECTION('',(0.,2.418786546024E-16,1.));
#1603 = MANIFOLD_SOLID_BREP('',#1604);
#1604 = CLOSED_SHELL('',(#1605,#1645,#1676,#1707,#1729,#1741));
#1605 = ADVANCED_FACE('',(#1606),#1640,.F.);
#1606 = FACE_BOUND('',#1607,.T.);
#1607 = EDGE_LOOP('',(#1608,#1618,#1626,#1634));
#1608 = ORIENTED_EDGE('',*,*,#1609,.T.);
#1609 = EDGE_CURVE('',#1610,#1612,#1614,.T.);
#1610 = VERTEX_POINT('',#1611);
#1611 = CARTESIAN_POINT('',(1.26,-0.38,-0.923));
#1612 = VERTEX_POINT('',#1613);
#1613 = CARTESIAN_POINT('',(1.26,1.E-02,-0.923));
#1614 = LINE('',#1615,#1616);
#1615 = CARTESIAN_POINT('',(1.26,-0.38,-0.923));
#1616 = VECTOR('',#1617,1.);
#1617 = DIRECTION('',(2.22044604925E-16,1.,-2.22044604925E-16));
#1618 = ORIENTED_EDGE('',*,*,#1619,.T.);
#1619 = EDGE_CURVE('',#1612,#1620,#1622,.T.);
#1620 = VERTEX_POINT('',#1621);
#1621 = CARTESIAN_POINT('',(1.26,9.999999999999E-03,-2.3));
#1622 = LINE('',#1623,#1624);
#1623 = CARTESIAN_POINT('',(1.26,1.E-02,-0.923));
#1624 = VECTOR('',#1625,1.);
#1625 = DIRECTION('',(2.22044604925E-16,-2.22044604925E-16,-1.));
#1626 = ORIENTED_EDGE('',*,*,#1627,.F.);
#1627 = EDGE_CURVE('',#1628,#1620,#1630,.T.);
#1628 = VERTEX_POINT('',#1629);
#1629 = CARTESIAN_POINT('',(1.26,-0.38,-2.3));
#1630 = LINE('',#1631,#1632);
#1631 = CARTESIAN_POINT('',(1.26,-0.38,-2.3));
#1632 = VECTOR('',#1633,1.);
#1633 = DIRECTION('',(2.22044604925E-16,1.,-2.22044604925E-16));
#1634 = ORIENTED_EDGE('',*,*,#1635,.F.);
#1635 = EDGE_CURVE('',#1610,#1628,#1636,.T.);
#1636 = LINE('',#1637,#1638);
#1637 = CARTESIAN_POINT('',(1.26,-0.38,-0.923));
#1638 = VECTOR('',#1639,1.);
#1639 = DIRECTION('',(2.22044604925E-16,-2.22044604925E-16,-1.));
#1640 = PLANE('',#1641);
#1641 = AXIS2_PLACEMENT_3D('',#1642,#1643,#1644);
#1642 = CARTESIAN_POINT('',(1.26,-0.38,-0.923));
#1643 = DIRECTION('',(1.,-2.22044604925E-16,2.22044604925E-16));
#1644 = DIRECTION('',(-2.22044604925E-16,2.22044604925E-16,1.));
#1645 = ADVANCED_FACE('',(#1646),#1671,.F.);
#1646 = FACE_BOUND('',#1647,.T.);
#1647 = EDGE_LOOP('',(#1648,#1649,#1657,#1665));
#1648 = ORIENTED_EDGE('',*,*,#1627,.T.);
#1649 = ORIENTED_EDGE('',*,*,#1650,.T.);
#1650 = EDGE_CURVE('',#1620,#1651,#1653,.T.);
#1651 = VERTEX_POINT('',#1652);
#1652 = CARTESIAN_POINT('',(1.74,9.999999999999E-03,-2.3));
#1653 = LINE('',#1654,#1655);
#1654 = CARTESIAN_POINT('',(1.26,9.999999999999E-03,-2.3));
#1655 = VECTOR('',#1656,1.);
#1656 = DIRECTION('',(1.,-2.22044604925E-16,2.22044604925E-16));
#1657 = ORIENTED_EDGE('',*,*,#1658,.F.);
#1658 = EDGE_CURVE('',#1659,#1651,#1661,.T.);
#1659 = VERTEX_POINT('',#1660);
#1660 = CARTESIAN_POINT('',(1.74,-0.38,-2.3));
#1661 = LINE('',#1662,#1663);
#1662 = CARTESIAN_POINT('',(1.74,-0.38,-2.3));
#1663 = VECTOR('',#1664,1.);
#1664 = DIRECTION('',(2.22044604925E-16,1.,-2.22044604925E-16));
#1665 = ORIENTED_EDGE('',*,*,#1666,.F.);
#1666 = EDGE_CURVE('',#1628,#1659,#1667,.T.);
#1667 = LINE('',#1668,#1669);
#1668 = CARTESIAN_POINT('',(1.26,-0.38,-2.3));
#1669 = VECTOR('',#1670,1.);
#1670 = DIRECTION('',(1.,-2.22044604925E-16,2.22044604925E-16));
#1671 = PLANE('',#1672);
#1672 = AXIS2_PLACEMENT_3D('',#1673,#1674,#1675);
#1673 = CARTESIAN_POINT('',(1.26,-0.38,-2.3));
#1674 = DIRECTION('',(-2.22044604925E-16,2.22044604925E-16,1.));
#1675 = DIRECTION('',(-1.,2.22044604925E-16,-2.22044604925E-16));
#1676 = ADVANCED_FACE('',(#1677),#1702,.F.);
#1677 = FACE_BOUND('',#1678,.T.);
#1678 = EDGE_LOOP('',(#1679,#1680,#1688,#1696));
#1679 = ORIENTED_EDGE('',*,*,#1658,.T.);
#1680 = ORIENTED_EDGE('',*,*,#1681,.T.);
#1681 = EDGE_CURVE('',#1651,#1682,#1684,.T.);
#1682 = VERTEX_POINT('',#1683);
#1683 = CARTESIAN_POINT('',(1.74,9.999999999999E-03,-0.923));
#1684 = LINE('',#1685,#1686);
#1685 = CARTESIAN_POINT('',(1.74,9.999999999999E-03,-2.3));
#1686 = VECTOR('',#1687,1.);
#1687 = DIRECTION('',(-2.22044604925E-16,2.22044604925E-16,1.));
#1688 = ORIENTED_EDGE('',*,*,#1689,.F.);
#1689 = EDGE_CURVE('',#1690,#1682,#1692,.T.);
#1690 = VERTEX_POINT('',#1691);
#1691 = CARTESIAN_POINT('',(1.74,-0.38,-0.923));
#1692 = LINE('',#1693,#1694);
#1693 = CARTESIAN_POINT('',(1.74,-0.38,-0.923));
#1694 = VECTOR('',#1695,1.);
#1695 = DIRECTION('',(2.22044604925E-16,1.,-2.22044604925E-16));
#1696 = ORIENTED_EDGE('',*,*,#1697,.F.);
#1697 = EDGE_CURVE('',#1659,#1690,#1698,.T.);
#1698 = LINE('',#1699,#1700);
#1699 = CARTESIAN_POINT('',(1.74,-0.38,-2.3));
#1700 = VECTOR('',#1701,1.);
#1701 = DIRECTION('',(-2.22044604925E-16,2.22044604925E-16,1.));
#1702 = PLANE('',#1703);
#1703 = AXIS2_PLACEMENT_3D('',#1704,#1705,#1706);
#1704 = CARTESIAN_POINT('',(1.74,-0.38,-2.3));
#1705 = DIRECTION('',(-1.,2.22044604925E-16,-2.22044604925E-16));
#1706 = DIRECTION('',(2.22044604925E-16,-2.22044604925E-16,-1.));
#1707 = ADVANCED_FACE('',(#1708),#1724,.F.);
#1708 = FACE_BOUND('',#1709,.T.);
#1709 = EDGE_LOOP('',(#1710,#1711,#1717,#1718));
#1710 = ORIENTED_EDGE('',*,*,#1689,.T.);
#1711 = ORIENTED_EDGE('',*,*,#1712,.T.);
#1712 = EDGE_CURVE('',#1682,#1612,#1713,.T.);
#1713 = LINE('',#1714,#1715);
#1714 = CARTESIAN_POINT('',(1.74,9.999999999999E-03,-0.923));
#1715 = VECTOR('',#1716,1.);
#1716 = DIRECTION('',(-1.,2.22044604925E-16,-2.22044604925E-16));
#1717 = ORIENTED_EDGE('',*,*,#1609,.F.);
#1718 = ORIENTED_EDGE('',*,*,#1719,.F.);
#1719 = EDGE_CURVE('',#1690,#1610,#1720,.T.);
#1720 = LINE('',#1721,#1722);
#1721 = CARTESIAN_POINT('',(1.74,-0.38,-0.923));
#1722 = VECTOR('',#1723,1.);
#1723 = DIRECTION('',(-1.,2.22044604925E-16,-2.22044604925E-16));
#1724 = PLANE('',#1725);
#1725 = AXIS2_PLACEMENT_3D('',#1726,#1727,#1728);
#1726 = CARTESIAN_POINT('',(1.74,-0.38,-0.923));
#1727 = DIRECTION('',(2.22044604925E-16,-2.22044604925E-16,-1.));
#1728 = DIRECTION('',(1.,-2.22044604925E-16,2.22044604925E-16));
#1729 = ADVANCED_FACE('',(#1730),#1736,.F.);
#1730 = FACE_BOUND('',#1731,.T.);
#1731 = EDGE_LOOP('',(#1732,#1733,#1734,#1735));
#1732 = ORIENTED_EDGE('',*,*,#1635,.T.);
#1733 = ORIENTED_EDGE('',*,*,#1666,.T.);
#1734 = ORIENTED_EDGE('',*,*,#1697,.T.);
#1735 = ORIENTED_EDGE('',*,*,#1719,.T.);
#1736 = PLANE('',#1737);
#1737 = AXIS2_PLACEMENT_3D('',#1738,#1739,#1740);
#1738 = CARTESIAN_POINT('',(1.5,-0.38,-1.6115));
#1739 = DIRECTION('',(2.22044604925E-16,1.,-2.418786546024E-16));
#1740 = DIRECTION('',(2.22044604925E-16,-2.418786546024E-16,-1.));
#1741 = ADVANCED_FACE('',(#1742),#1748,.T.);
#1742 = FACE_BOUND('',#1743,.F.);
#1743 = EDGE_LOOP('',(#1744,#1745,#1746,#1747));
#1744 = ORIENTED_EDGE('',*,*,#1619,.T.);
#1745 = ORIENTED_EDGE('',*,*,#1650,.T.);
#1746 = ORIENTED_EDGE('',*,*,#1681,.T.);
#1747 = ORIENTED_EDGE('',*,*,#1712,.T.);
#1748 = PLANE('',#1749);
#1749 = AXIS2_PLACEMENT_3D('',#1750,#1751,#1752);
#1750 = CARTESIAN_POINT('',(1.5,9.999999999999E-03,-1.6115));
#1751 = DIRECTION('',(2.22044604925E-16,1.,-2.418786546024E-16));
#1752 = DIRECTION('',(2.22044604925E-16,-2.418786546024E-16,-1.));
#1753 = ( GEOMETRIC_REPRESENTATION_CONTEXT(3) 
GLOBAL_UNCERTAINTY_ASSIGNED_CONTEXT((#1757)) 
GLOBAL_UNIT_ASSIGNED_CONTEXT((#1754,#1755,#1756)) REPRESENTATION_CONTEXT
('Context #1','3D Context with UNIT and UNCERTAINTY') );
#1754 = ( LENGTH_UNIT() NAMED_UNIT(*) SI_UNIT(.MILLI.,.METRE.) );
#1755 = ( NAMED_UNIT(*) PLANE_ANGLE_UNIT() SI_UNIT($,.RADIAN.) );
#1756 = ( NAMED_UNIT(*) SI_UNIT($,.STERADIAN.) SOLID_ANGLE_UNIT() );
#1757 = UNCERTAINTY_MEASURE_WITH_UNIT(LENGTH_MEASURE(1.E-07),#1754,
  'distance_accuracy_value','confusion accuracy');
#1758 = CONTEXT_DEPENDENT_SHAPE_REPRESENTATION(#1759,#1761);
#1759 = ( REPRESENTATION_RELATIONSHIP('','',#1452,#10) 
REPRESENTATION_RELATIONSHIP_WITH_TRANSFORMATION(#1760) 
SHAPE_REPRESENTATION_RELATIONSHIP() );
#1760 = ITEM_DEFINED_TRANSFORMATION('','',#11,#31);
#1761 = PRODUCT_DEFINITION_SHAPE('Placement','Placement of an item',
  #1762);
#1762 = NEXT_ASSEMBLY_USAGE_OCCURRENCE('11','Mirrored','',#5,#1447,$);
#1763 = PRODUCT_RELATED_PRODUCT_CATEGORY('part',$,(#1449));
#1764 = MECHANICAL_DESIGN_GEOMETRIC_PRESENTATION_REPRESENTATION('',(
    #1765),#1063);
#1765 = STYLED_ITEM('color',(#1766),#711);
#1766 = PRESENTATION_STYLE_ASSIGNMENT((#1767,#1773));
#1767 = SURFACE_STYLE_USAGE(.BOTH.,#1768);
#1768 = SURFACE_SIDE_STYLE('',(#1769));
#1769 = SURFACE_STYLE_FILL_AREA(#1770);
#1770 = FILL_AREA_STYLE('',(#1771));
#1771 = FILL_AREA_STYLE_COLOUR('',#1772);
#1772 = COLOUR_RGB('',0.917599985683,0.917599985683,0.917599985683);
#1773 = CURVE_STYLE('',#1774,POSITIVE_LENGTH_MEASURE(0.1),#1775);
#1774 = DRAUGHTING_PRE_DEFINED_CURVE_FONT('continuous');
#1775 = COLOUR_RGB('',9.803921802644E-02,9.803921802644E-02,
  9.803921802644E-02);
#1776 = MECHANICAL_DESIGN_GEOMETRIC_PRESENTATION_REPRESENTATION('',(
    #1777,#1786),#1753);
#1777 = STYLED_ITEM('color',(#1778),#1453);
#1778 = PRESENTATION_STYLE_ASSIGNMENT((#1779,#1784));
#1779 = SURFACE_STYLE_USAGE(.BOTH.,#1780);
#1780 = SURFACE_SIDE_STYLE('',(#1781));
#1781 = SURFACE_STYLE_FILL_AREA(#1782);
#1782 = FILL_AREA_STYLE('',(#1783));
#1783 = FILL_AREA_STYLE_COLOUR('',#1772);
#1784 = CURVE_STYLE('',#1785,POSITIVE_LENGTH_MEASURE(0.1),#1775);
#1785 = DRAUGHTING_PRE_DEFINED_CURVE_FONT('continuous');
#1786 = STYLED_ITEM('color',(#1787),#1603);
#1787 = PRESENTATION_STYLE_ASSIGNMENT((#1788,#1793));
#1788 = SURFACE_STYLE_USAGE(.BOTH.,#1789);
#1789 = SURFACE_SIDE_STYLE('',(#1790));
#1790 = SURFACE_STYLE_FILL_AREA(#1791);
#1791 = FILL_AREA_STYLE('',(#1792));
#1792 = FILL_AREA_STYLE_COLOUR('',#1772);
#1793 = CURVE_STYLE('',#1794,POSITIVE_LENGTH_MEASURE(0.1),#1775);
#1794 = DRAUGHTING_PRE_DEFINED_CURVE_FONT('continuous');
#1795 = MECHANICAL_DESIGN_GEOMETRIC_PRESENTATION_REPRESENTATION('',(
    #1796),#1434);
#1796 = STYLED_ITEM('color',(#1797),#1082);
#1797 = PRESENTATION_STYLE_ASSIGNMENT((#1798,#1803));
#1798 = SURFACE_STYLE_USAGE(.BOTH.,#1799);
#1799 = SURFACE_SIDE_STYLE('',(#1800));
#1800 = SURFACE_STYLE_FILL_AREA(#1801);
#1801 = FILL_AREA_STYLE('',(#1802));
#1802 = FILL_AREA_STYLE_COLOUR('',#1772);
#1803 = CURVE_STYLE('',#1804,POSITIVE_LENGTH_MEASURE(0.1),#1775);
#1804 = DRAUGHTING_PRE_DEFINED_CURVE_FONT('continuous');
#1805 = MECHANICAL_DESIGN_GEOMETRIC_PRESENTATION_REPRESENTATION('',(
    #1806),#692);
#1806 = STYLED_ITEM('color',(#1807),#380);
#1807 = PRESENTATION_STYLE_ASSIGNMENT((#1808,#1814));
#1808 = SURFACE_STYLE_USAGE(.BOTH.,#1809);
#1809 = SURFACE_SIDE_STYLE('',(#1810));
#1810 = SURFACE_STYLE_FILL_AREA(#1811);
#1811 = FILL_AREA_STYLE('',(#1812));
#1812 = FILL_AREA_STYLE_COLOUR('',#1813);
#1813 = COLOUR_RGB('',0.116700000506,0.116700000506,0.116700000506);
#1814 = CURVE_STYLE('',#1815,POSITIVE_LENGTH_MEASURE(0.1),#1775);
#1815 = DRAUGHTING_PRE_DEFINED_CURVE_FONT('continuous');
#1816 = MECHANICAL_DESIGN_GEOMETRIC_PRESENTATION_REPRESENTATION('',(
    #1817),#361);
#1817 = STYLED_ITEM('color',(#1818),#49);
#1818 = PRESENTATION_STYLE_ASSIGNMENT((#1819,#1824));
#1819 = SURFACE_STYLE_USAGE(.BOTH.,#1820);
#1820 = SURFACE_SIDE_STYLE('',(#1821));
#1821 = SURFACE_STYLE_FILL_AREA(#1822);
#1822 = FILL_AREA_STYLE('',(#1823));
#1823 = FILL_AREA_STYLE_COLOUR('',#1813);
#1824 = CURVE_STYLE('',#1825,POSITIVE_LENGTH_MEASURE(0.1),#1775);
#1825 = DRAUGHTING_PRE_DEFINED_CURVE_FONT('continuous');
ENDSEC;
END-ISO-10303-21;
